<svg width="81" height="27" viewBox="0 0 81 27" fill="none" xmlns="http://www.w3.org/2000/svg">
<path d="M0 26.9999C0 26.9999 46.4674 15.7848 80.894 23.6889L81 23.3231C81 23.3231 50.961 14.6298 0.576918 25.225L0 26.9999Z" fill="#58585F"/>
<path d="M22.2446 5.0241V6.87979C22.4492 6.35682 22.7838 5.89229 23.2179 5.52845C23.9161 4.98555 24.784 4.69587 25.6748 4.7084C26.147 4.71047 26.6154 4.79118 27.0601 4.9471C27.5414 5.12244 27.9743 5.40548 28.3245 5.77374C28.6747 6.142 28.9325 6.58531 29.0774 7.06844C29.4264 6.36218 29.9729 5.76784 30.6532 5.35474C31.3335 4.94164 32.1195 4.72683 32.9196 4.73535C33.984 4.71405 35.0144 5.10397 35.7885 5.82105C37.0051 6.97604 37.0522 8.25809 37.0522 11.4382V18.7532H33.4769V12.2621C33.4769 10.0637 33.4298 9.61329 33.0648 9.02809C32.9171 8.77519 32.6993 8.56858 32.4367 8.43228C32.1741 8.29598 31.8775 8.23558 31.5813 8.25809C31.2793 8.25879 30.9821 8.33174 30.7154 8.47062C30.4487 8.60949 30.2205 8.8101 30.0507 9.05504C29.6582 9.71724 29.6582 10.8568 29.6582 11.9695V18.7532H26.0868V11.8232C26.0868 10.3371 26.0868 9.67489 25.7218 9.06659C25.5717 8.81761 25.3582 8.61115 25.1023 8.4674C24.8464 8.32366 24.5568 8.24755 24.2619 8.24654C23.9374 8.24703 23.6185 8.32922 23.3357 8.48524C22.2917 9.06659 22.2643 10.0753 22.2643 12.674V18.7532H18.6929V5.0241H22.2446Z" fill="#58585F"/>
<path d="M51.2671 5.02441H54.9131L51.2671 18.7535H47.9351L45.8198 9.47501L43.7279 18.7535H40.3489L36.699 5.02441H40.3449L42.2641 13.6137L44.2264 5.02441H47.3857L49.348 13.6137L51.2671 5.02441Z" fill="#58585F"/>
<path d="M62.4209 11.731C62.4209 12.9784 62.2521 14.168 61.4986 15.0728C61.3098 15.3054 61.0715 15.4948 60.8004 15.6278C60.5292 15.7608 60.2318 15.8342 59.9288 15.8428C59.2263 15.8428 58.4217 15.4193 57.9351 14.2258C57.6504 13.4713 57.5171 12.6699 57.5426 11.8657C57.4864 10.8093 57.7543 9.76057 58.3118 8.85503C58.5067 8.56271 58.7687 8.31921 59.0767 8.14405C59.3847 7.96889 59.7303 7.86693 60.0858 7.84633C60.3615 7.85365 60.6325 7.91896 60.8803 8.03785C61.1281 8.15675 61.347 8.32645 61.5222 8.53548C61.9853 9.02828 62.4209 9.95613 62.4209 11.731ZM62.6054 18.7534H66.1061V5.00504H62.676V6.77604C62.0441 5.45164 60.9492 4.68164 59.5638 4.68164C57.1816 4.68164 54.0693 6.69519 54.0693 12.1044C54.0693 16.3972 56.3064 19.0344 59.2969 19.0344C59.9635 19.059 60.6242 18.904 61.2074 18.5864C61.7906 18.2688 62.2741 17.8006 62.6054 17.2326V18.7534Z" fill="#58585F"/>
<path d="M74.3635 5.02441H77.9977L73.9985 18.6495C73.7081 19.6043 73.245 21.1674 72.5386 21.9374C71.8832 22.6266 71.1022 22.9461 68.2215 22.9461C67.8094 22.9461 67.6367 22.9192 67.2717 22.8922V19.843H68.2215C68.5629 19.843 69.3636 19.843 69.7285 19.5004C70.0793 19.1239 70.2665 18.628 70.2505 18.1182C70.213 17.7235 70.1233 17.3353 69.9836 16.9632L66.0944 5.02826H69.9836L72.2678 14.2682L74.3635 5.02441Z" fill="#58585F"/>
<path d="M10.7102 4.11949L12.6293 11.3459H8.88919L10.7102 4.11949ZM8.44178 0L2.43713 18.7533H6.84839L7.97083 14.7686H13.5987L14.7447 18.7533H19.1795L12.9276 0H8.44178Z" fill="#58585F"/>
<path d="M77.4404 21.206H77.1147V20.3243C77.1147 20.2319 77.1147 20.0664 77.1147 20.0086L77.044 20.2627L76.7497 21.206H76.4514L76.1492 20.2627C76.1492 20.2242 76.0864 20.0548 76.0786 20.0163C76.0926 20.1171 76.1005 20.2187 76.1021 20.3205V21.2021H75.7764V19.6621H76.2081L76.6005 20.8171L76.9577 19.6621H77.3972L77.4404 21.206ZM75.2191 21.206H74.8855V19.9393H74.391V19.6698H75.7018V19.9393H75.223L75.2191 21.206Z" fill="#58585F"/>
</svg>
