<svg width="53" height="57" viewBox="0 0 53 57" fill="none" xmlns="http://www.w3.org/2000/svg">
<g clip-path="url(#clip0)">
<path d="M2.8416 53.9852C2.82416 54.0028 2.7893 54.0028 2.75443 54.0028H1.77811V56.7708C1.77811 56.7884 1.77811 56.8237 1.76067 56.859C1.74324 56.8942 1.70837 56.8766 1.6735 56.8766H1.37712C1.35968 56.8766 1.32481 56.8766 1.28995 56.859C1.27251 56.8413 1.27251 56.8061 1.27251 56.7708V54.0028H0.29619C0.278756 54.0028 0.243888 54.0028 0.209019 53.9852C0.191585 53.9675 0.191585 53.9323 0.191585 53.897V53.6854C0.191585 53.6678 0.191585 53.6325 0.209019 53.5973C0.226453 53.5797 0.261322 53.5797 0.29619 53.5797H2.80673C2.82416 53.5797 2.85903 53.5797 2.8939 53.5973C2.91133 53.6149 2.91134 53.6502 2.91134 53.6854V53.897C2.8939 53.9146 2.85903 53.9499 2.8416 53.9852ZM5.8403 55.2898C5.8403 55.378 5.82286 55.4309 5.71826 55.4309H3.69588V55.519C3.69588 55.8716 3.74818 56.1361 3.90509 56.2771C4.04456 56.4182 4.25378 56.5063 4.53272 56.5063C4.70707 56.5063 4.91628 56.5063 5.07319 56.4887C5.2824 56.4887 5.45674 56.4711 5.59622 56.4358H5.68339C5.70082 56.4358 5.70082 56.4534 5.70082 56.524V56.7355C5.70082 56.7532 5.70082 56.7884 5.68339 56.8237C5.66595 56.8413 5.63108 56.8413 5.59622 56.8766C5.42187 56.8942 5.24753 56.9295 5.07319 56.9647C4.89884 57 4.7245 56.9824 4.53272 56.9824C4.35838 56.9824 4.18404 56.9647 4.04456 56.9295C3.87022 56.8766 3.73075 56.8061 3.60871 56.7003C3.48667 56.5945 3.38206 56.4358 3.29489 56.2595C3.20772 56.0832 3.17285 55.854 3.17285 55.5543V55.0077C3.17285 54.567 3.29489 54.2144 3.52154 53.9499C3.74818 53.6854 4.062 53.562 4.49786 53.562C4.7245 53.562 4.89884 53.5796 5.07319 53.6502C5.24753 53.7031 5.36957 53.8265 5.47418 53.9499C5.57878 54.0733 5.68339 54.2144 5.73569 54.3907C5.78799 54.567 5.82286 54.7785 5.82286 54.9725L5.8403 55.2898ZM5.31727 54.9372C5.31727 54.5846 5.26497 54.3554 5.10806 54.1967C4.96858 54.0557 4.79424 53.9675 4.49786 53.9675C4.23634 53.9675 4.04456 54.0557 3.88766 54.1967C3.74818 54.3378 3.67844 54.6022 3.67844 54.9372V54.9901H5.26497V54.9372H5.31727ZM9.25742 56.859C9.25742 56.8766 9.23998 56.9118 9.17025 56.9118H8.76926C8.75182 56.9118 8.71696 56.8942 8.68209 56.859L7.81037 55.5895L6.95609 56.8413C6.93866 56.859 6.93866 56.8942 6.90379 56.8942H6.46793C6.4505 56.8942 6.41563 56.8942 6.41563 56.8766C6.41563 56.859 6.41563 56.8237 6.43306 56.7884L7.53142 55.2017L6.52023 53.7207C6.5028 53.6678 6.5028 53.6325 6.5028 53.5973C6.52023 53.5797 6.5551 53.5797 6.58997 53.5797H6.99096C7.00839 53.5797 7.04326 53.5797 7.04326 53.5973C7.0607 53.5973 7.0607 53.6149 7.09557 53.6502L7.84524 54.7962L8.62978 53.6502C8.64722 53.6325 8.68209 53.5973 8.68209 53.562H9.08308C9.10051 53.562 9.13538 53.5796 9.17025 53.6149C9.17025 53.6325 9.17025 53.6678 9.15281 53.7383L8.14162 55.2017L9.23998 56.8061C9.22255 56.8237 9.25742 56.8413 9.25742 56.859ZM12.4828 56.859C12.4653 56.8766 12.4305 56.8766 12.3956 56.8766H12.0992C12.0818 56.8766 12.0469 56.8766 12.012 56.859C11.9772 56.8413 11.9946 56.8061 11.9946 56.7708V55.4132H10.4081V56.7708C10.4081 56.7884 10.4081 56.8237 10.3906 56.859C10.3732 56.8766 10.3383 56.8766 10.3035 56.8766H10.0071C9.98966 56.8766 9.95479 56.8766 9.91992 56.859C9.88505 56.8413 9.90249 56.8061 9.90249 56.7708V53.6854C9.90249 53.6678 9.90249 53.6325 9.91992 53.5973C9.93736 53.562 9.97223 53.5797 10.0071 53.5797H10.3035C10.3209 53.5797 10.3558 53.5797 10.3906 53.5973C10.4255 53.6149 10.4081 53.6502 10.4081 53.6854V54.9725H11.9946V53.6854C11.9946 53.6678 11.9946 53.6325 12.012 53.5973C12.0295 53.562 12.0643 53.5797 12.0992 53.5797H12.3956C12.413 53.5797 12.4479 53.5797 12.4828 53.5973C12.5002 53.6149 12.5002 53.6502 12.5002 53.6854V56.8061C12.5176 56.8413 12.5176 56.859 12.4828 56.859ZM13.3196 53.6854C13.3196 53.5973 13.337 53.562 13.4416 53.562H13.7555C13.7729 53.562 13.8078 53.562 13.8426 53.5797C13.8775 53.5973 13.8601 53.6325 13.8601 53.6678V56.0832L15.2723 53.6854C15.2897 53.6325 15.3246 53.5973 15.3594 53.562C15.3769 53.562 15.4466 53.5444 15.4989 53.5444H15.8127C15.865 53.5444 15.8999 53.5444 15.9348 53.562C15.9522 53.5796 15.9522 53.6149 15.9522 53.7031V56.8061C15.9522 56.8237 15.9522 56.859 15.9348 56.8942C15.9173 56.9118 15.8825 56.9118 15.8476 56.9118H15.5338C15.5163 56.9118 15.4815 56.9118 15.4466 56.8942C15.4117 56.8766 15.4292 56.8413 15.4292 56.8061V54.4436C15.4292 54.4259 15.4292 54.4259 15.4117 54.4436L14.0344 56.8413C14.017 56.8942 13.9821 56.8942 13.9472 56.9295C13.9298 56.9295 13.8949 56.9471 13.8252 56.9471H13.5114C13.4591 56.9471 13.4242 56.9295 13.3893 56.8942C13.3719 56.8766 13.337 56.8061 13.337 56.7708L13.3196 53.6854ZM19.1601 56.8413C19.1601 56.8942 19.1427 56.9295 19.1078 56.9295H18.6719C18.6545 56.9295 18.6196 56.9295 18.5848 56.9118C18.5673 56.9118 18.5673 56.8942 18.5325 56.859L17.3469 55.378V56.8413C17.3469 56.859 17.3469 56.8942 17.3295 56.9295C17.3121 56.9647 17.2772 56.9471 17.2423 56.9471H16.9459C16.9285 56.9471 16.8936 56.9471 16.8588 56.9295C16.8413 56.9119 16.8413 56.8766 16.8413 56.8413V53.756C16.8413 53.7383 16.8413 53.7031 16.8588 53.6678C16.8762 53.6502 16.9111 53.6502 16.9459 53.6502H17.2423C17.2598 53.6502 17.2946 53.6502 17.3295 53.6678C17.3644 53.6854 17.3469 53.7207 17.3469 53.756V55.0606L18.5673 53.6854C18.5848 53.6678 18.5848 53.6678 18.6196 53.6678H19.1078C19.1601 53.6678 19.195 53.6854 19.195 53.7207C19.195 53.7383 19.195 53.7736 19.1775 53.7736L17.8351 55.2369L19.1601 56.8413C19.1601 56.8237 19.1601 56.8237 19.1601 56.8413ZM22.1065 56.8237C22.1065 56.8413 22.1065 56.8766 22.0891 56.9118C22.0716 56.9295 22.0368 56.9295 22.0019 56.9295H21.7055C21.6881 56.9295 21.6532 56.9295 21.6183 56.9118C21.5835 56.8942 21.6009 56.859 21.6009 56.8237V56.6827C21.4614 56.7708 21.3045 56.8237 21.165 56.8942C21.0256 56.9647 20.8512 56.9824 20.6769 56.9824C20.5548 56.9824 20.4154 56.9647 20.2933 56.9295C20.1713 56.9119 20.0667 56.8413 19.9795 56.7532C19.8923 56.665 19.8052 56.5769 19.7529 56.4535C19.7006 56.33 19.6657 56.1537 19.6657 55.995V55.9422C19.6657 55.7659 19.6831 55.6424 19.7529 55.5014C19.8052 55.378 19.8923 55.2722 20.0144 55.184C20.1364 55.0959 20.2759 55.043 20.4677 55.0077C20.642 54.9901 20.8687 54.9548 21.165 54.9548H21.6009V54.7256C21.6009 54.4612 21.5486 54.2849 21.4614 54.1967C21.3743 54.1086 21.1999 54.0557 20.9733 54.0557C20.7641 54.0557 20.5897 54.0557 20.4502 54.0733C20.3108 54.0733 20.1539 54.0909 20.0492 54.0909H19.9621C19.9272 54.0909 19.9098 54.0733 19.9098 54.0028V53.7912C19.9098 53.7383 19.9272 53.6678 20.0318 53.6678C20.1539 53.6502 20.2933 53.6502 20.4328 53.6149C20.5723 53.5973 20.7466 53.5973 20.9558 53.5973C21.3568 53.5973 21.6881 53.6854 21.845 53.897C22.0019 54.1086 22.1065 54.3907 22.1065 54.7433V56.8237ZM21.5486 55.2898H21.1127C20.9384 55.2898 20.7989 55.2898 20.6594 55.3075C20.5374 55.3251 20.4502 55.3604 20.3631 55.4309C20.3108 55.4838 20.241 55.5543 20.2236 55.6072C20.2062 55.6953 20.2062 55.7835 20.2062 55.8716V55.9598C20.2062 56.189 20.2585 56.3477 20.3456 56.4006C20.4328 56.4887 20.5723 56.524 20.7466 56.524C20.8861 56.524 21.043 56.5063 21.1476 56.4711C21.2696 56.4534 21.4091 56.3829 21.5486 56.2948V55.2898ZM24.4253 53.6854C24.4253 53.5973 24.4427 53.562 24.5473 53.562H24.8611C24.8785 53.562 24.9134 53.562 24.9483 53.5797C24.9832 53.5973 24.9657 53.6325 24.9657 53.6678V56.0832L26.3779 53.6854C26.3953 53.6325 26.4302 53.5973 26.4651 53.562C26.4825 53.562 26.5522 53.5444 26.6045 53.5444H26.9184C26.9707 53.5444 27.0055 53.5444 27.0404 53.562C27.0578 53.5796 27.0578 53.6149 27.0578 53.7031V56.8061C27.0578 56.8237 27.0578 56.859 27.0404 56.8942C27.023 56.9295 26.9881 56.9118 26.9532 56.9118H26.6394C26.622 56.9118 26.5871 56.9118 26.5522 56.8942C26.5174 56.8766 26.5348 56.8413 26.5348 56.8061V54.4436C26.5348 54.4259 26.5348 54.4259 26.5174 54.4436L25.1401 56.8413C25.1226 56.8942 25.0878 56.8942 25.0529 56.9295C25.0355 56.9295 25.0006 56.9471 24.9309 56.9471H24.5473C24.495 56.9471 24.4601 56.9295 24.4253 56.8942C24.4078 56.8766 24.373 56.8061 24.373 56.7708V53.6854H24.4253ZM31.7825 56.859C31.7651 56.8766 31.7302 56.8766 31.6954 56.8766H31.399C31.3815 56.8766 31.3467 56.8766 31.3118 56.859C31.2769 56.8413 31.2944 56.8061 31.2944 56.7708V55.519C31.1723 55.5367 31.0329 55.5367 30.8585 55.5719C30.6842 55.5896 30.5447 55.5895 30.4227 55.5895C30.2832 55.5895 30.1088 55.5896 29.9694 55.5719C29.8299 55.5543 29.7078 55.4838 29.5858 55.4309C29.4638 55.3427 29.4115 55.2546 29.3243 55.1312C29.272 55.0077 29.2371 54.8314 29.2371 54.6375V53.6678C29.2371 53.6502 29.2371 53.6149 29.2546 53.5797C29.272 53.5444 29.3069 53.562 29.3417 53.562H29.6381C29.6555 53.562 29.6904 53.562 29.7253 53.5797C29.7602 53.5973 29.7427 53.6325 29.7427 53.6678V54.6375C29.7427 54.7609 29.7427 54.8491 29.7602 54.902C29.7776 54.9548 29.8125 55.0254 29.8822 55.0783C29.9345 55.0959 30.0217 55.1312 30.1088 55.1664C30.196 55.184 30.318 55.184 30.4575 55.184H30.6319C30.6842 55.184 30.7713 55.184 30.8585 55.1664C30.9457 55.1664 30.998 55.1664 31.0852 55.1488C31.1375 55.1488 31.2072 55.1312 31.2595 55.1312V53.7031C31.2595 53.6854 31.2595 53.6502 31.2769 53.6149C31.2944 53.5796 31.3292 53.5973 31.3641 53.5973H31.6605C31.6779 53.5973 31.7128 53.5973 31.7477 53.6149C31.7825 53.6325 31.7651 53.6678 31.7651 53.7031V56.8237C31.8 56.8413 31.8 56.859 31.7825 56.859ZM35.1997 55.2898C35.1997 55.378 35.1822 55.4309 35.0776 55.4309H33.0552V55.519C33.0552 55.8716 33.1075 56.1361 33.2644 56.2771C33.4039 56.4182 33.6131 56.5063 33.8921 56.5063C34.0664 56.5063 34.2756 56.5063 34.4325 56.4887C34.6418 56.4887 34.8161 56.4711 34.9556 56.4358H35.0427C35.0776 56.4358 35.0602 56.4534 35.0602 56.524V56.7355C35.0602 56.7532 35.0602 56.7884 35.0427 56.8237C35.0253 56.859 34.9904 56.8413 34.9556 56.8766C34.7812 56.8942 34.6069 56.9295 34.4325 56.9647C34.2582 57 34.0839 56.9824 33.8921 56.9824C33.7177 56.9824 33.5434 56.9647 33.4039 56.9295C33.2296 56.8766 33.0901 56.8061 32.9681 56.7003C32.846 56.5945 32.7414 56.4358 32.6542 56.2595C32.5671 56.0832 32.5322 55.854 32.5322 55.5543V55.0077C32.5322 54.567 32.6542 54.2144 32.8809 53.9499C33.1075 53.6854 33.4214 53.562 33.8572 53.562C34.0839 53.562 34.2582 53.5796 34.4325 53.6502C34.6069 53.7031 34.7289 53.8265 34.8335 53.9499C34.9381 54.0733 35.0427 54.2144 35.095 54.3907C35.1474 54.567 35.1822 54.7785 35.1822 54.9725L35.1997 55.2898ZM34.6766 54.9372C34.6766 54.5846 34.6243 54.3554 34.4674 54.1967C34.3279 54.0557 34.1536 53.9675 33.8572 53.9675C33.5957 53.9675 33.4039 54.0557 33.247 54.1967C33.1075 54.3378 33.0378 54.6022 33.0378 54.9372V54.9901H34.6243V54.9372H34.6766ZM37.2395 54.1086C37.222 54.0204 37.1872 53.9852 37.1174 53.9852C37.0477 53.9852 37.0303 54.0028 36.9954 54.1086L36.2631 56.8237C36.2631 56.8413 36.2457 56.8766 36.2457 56.8766C36.2283 56.8942 36.2283 56.8942 36.1934 56.8942H35.8447C35.7924 56.8942 35.7227 56.8766 35.7227 56.8061V56.7884L36.5421 54.0204C36.5595 53.9323 36.5944 53.8441 36.6641 53.7912C36.7164 53.7383 36.7513 53.6678 36.8036 53.6502C36.8559 53.6325 36.9257 53.5973 36.978 53.562C37.0303 53.562 37.1 53.5444 37.1523 53.5444C37.2046 53.5444 37.2743 53.5444 37.3266 53.562C37.3789 53.562 37.4487 53.5796 37.501 53.6149C37.5533 53.6325 37.623 53.7031 37.6405 53.756C37.6928 53.8089 37.7276 53.897 37.7625 53.9852L38.547 56.7884V56.8061C38.547 56.859 38.5296 56.8942 38.425 56.8942H38.0763C38.0589 56.8942 38.024 56.8942 38.024 56.8766C38.0066 56.859 38.0066 56.859 38.0066 56.8237L37.2395 54.1086ZM41.5457 55.4661C41.5457 55.6953 41.5283 55.9069 41.4586 56.0832C41.4063 56.2595 41.3191 56.4358 41.197 56.5416C41.0924 56.6474 40.9355 56.7708 40.7612 56.8413C40.5868 56.8942 40.3776 56.9647 40.1859 56.9647C39.9592 56.9647 39.7849 56.9471 39.6105 56.8413C39.4362 56.7884 39.2967 56.665 39.2095 56.5416C39.0875 56.4182 39.0003 56.2419 38.948 56.0832C38.8957 55.9069 38.8609 55.6953 38.8609 55.4661V55.0077C38.8609 54.7785 38.8783 54.567 38.948 54.3907C39.0003 54.2144 39.0875 54.0381 39.2095 53.9323C39.3316 53.8089 39.4711 53.7031 39.6105 53.6325C39.7849 53.5797 39.9592 53.5091 40.1859 53.5091C40.4125 53.5091 40.5868 53.5268 40.7612 53.6325C40.9355 53.6854 41.075 53.8089 41.197 53.9323C41.3191 54.0557 41.4063 54.232 41.4586 54.3907C41.5109 54.567 41.5457 54.7785 41.5457 55.0077V55.4661ZM41.0227 55.0254C41.0227 54.708 40.9704 54.4788 40.8135 54.2849C40.6915 54.1086 40.4648 54.0204 40.2033 54.0204C39.9069 54.0204 39.7151 54.1086 39.5931 54.2849C39.4711 54.4612 39.3839 54.7256 39.3839 55.043V55.5014C39.3839 55.8187 39.4362 56.0479 39.5931 56.2419C39.7151 56.4182 39.9069 56.5063 40.2033 56.5063C40.4997 56.5063 40.6915 56.4182 40.8135 56.2419C40.953 56.0656 41.0227 55.8011 41.0227 55.4838V55.0254ZM44.8408 55.9245C44.8408 56.1361 44.8234 56.2771 44.7188 56.3829C44.6316 56.5063 44.5444 56.6121 44.405 56.7003C44.2655 56.7884 44.1086 56.8413 43.9168 56.8766C43.7425 56.8942 43.5332 56.9295 43.3066 56.9295H42.5744C42.4872 56.9295 42.4349 56.9295 42.3652 56.9118C42.2431 56.9118 42.1908 56.859 42.1908 56.7355V53.7383C42.1908 53.6149 42.2431 53.562 42.3652 53.562C42.4523 53.562 42.5744 53.5444 42.7487 53.5444H43.324C43.4984 53.5444 43.6727 53.5444 43.8471 53.562C44.0214 53.5796 44.1609 53.6149 44.3004 53.6854C44.4398 53.7383 44.5619 53.8265 44.6142 53.9499C44.7013 54.0733 44.7362 54.2144 44.7362 54.4083V54.4259C44.7362 54.567 44.7188 54.7256 44.649 54.8314C44.5967 54.9725 44.4747 55.0606 44.3352 55.1312C44.5096 55.184 44.6316 55.3075 44.6839 55.4309C44.7362 55.5543 44.806 55.6953 44.806 55.8364L44.8408 55.9245ZM44.2481 54.4436C44.2481 54.2672 44.1609 54.1262 44.0214 54.0557C43.8819 54.0028 43.6379 53.9675 43.324 53.9675H42.7661V54.9548H43.5158C43.603 54.9548 43.6902 54.9548 43.7773 54.9372C43.8645 54.9372 43.9517 54.9196 44.004 54.8843C44.0563 54.8491 44.126 54.7962 44.1783 54.7433C44.1958 54.6904 44.2306 54.6022 44.2306 54.4788V54.4436H44.2481ZM44.2829 55.9069C44.2829 55.7835 44.2655 55.6953 44.2306 55.6424C44.1783 55.5895 44.1086 55.519 44.0563 55.5014C43.9691 55.4838 43.9168 55.4485 43.7948 55.4485H42.7836V56.5945H43.3066C43.6902 56.5945 43.9342 56.5416 44.0911 56.4535C44.2306 56.3653 44.3178 56.2243 44.3178 56.0127V55.9245H44.2829V55.9069ZM48.1185 55.2898C48.1185 55.378 48.101 55.4309 47.9964 55.4309H45.974V55.519C45.974 55.8716 46.0264 56.1361 46.1833 56.2771C46.3227 56.4182 46.5319 56.5063 46.8109 56.5063C46.9852 56.5063 47.1945 56.5063 47.3514 56.4887C47.5606 56.4887 47.7349 56.4711 47.8744 56.4358H47.9616C47.9964 56.4358 47.979 56.4534 47.979 56.524V56.7355C47.979 56.7532 47.979 56.7884 47.9616 56.8237C47.9441 56.859 47.9093 56.8413 47.8744 56.8766C47.7 56.8942 47.5257 56.9295 47.3514 56.9647C47.177 57 47.0027 56.9824 46.8109 56.9824C46.6366 56.9824 46.4622 56.9647 46.2879 56.9295C46.1135 56.8766 45.974 56.8061 45.852 56.7003C45.73 56.5945 45.6254 56.4358 45.5382 56.2595C45.451 56.0832 45.4162 55.854 45.4162 55.5543V55.0077C45.4162 54.567 45.5382 54.2144 45.7648 53.9499C45.9915 53.6854 46.3053 53.562 46.7412 53.562C46.9678 53.562 47.1421 53.5796 47.3165 53.6502C47.4908 53.7031 47.6129 53.8265 47.7175 53.9499C47.8221 54.0733 47.9267 54.2144 47.979 54.3907C48.0313 54.567 48.0662 54.7785 48.0662 54.9725V55.2898H48.1185ZM47.578 54.9372C47.578 54.5846 47.5257 54.3554 47.3688 54.1967C47.2293 54.0557 47.055 53.9675 46.7586 53.9675C46.4971 53.9675 46.3053 54.0557 46.1484 54.1967C46.0089 54.3378 45.9392 54.6022 45.9392 54.9372V54.9901H47.5257V54.9372H47.578ZM51.2218 56.8413C51.2218 56.8942 51.2043 56.9295 51.1695 56.9295H50.7336C50.7162 56.9295 50.6813 56.9295 50.6464 56.9118C50.629 56.9118 50.629 56.8942 50.5941 56.859L49.4086 55.378V56.8413C49.4086 56.859 49.4086 56.8942 49.3912 56.9295C49.3737 56.9647 49.3389 56.9471 49.304 56.9471H49.0076C48.9902 56.9471 48.9553 56.9471 48.9204 56.9295C48.8856 56.9119 48.903 56.8766 48.903 56.8413V53.756C48.903 53.7383 48.903 53.7031 48.9204 53.6678C48.9379 53.6325 48.9727 53.6502 49.0076 53.6502H49.304C49.3214 53.6502 49.3563 53.6502 49.3912 53.6678C49.426 53.6854 49.4086 53.7207 49.4086 53.756V55.0606L50.629 53.6854C50.6464 53.6678 50.6464 53.6678 50.6813 53.6678H51.1695C51.2218 53.6678 51.2566 53.6854 51.2566 53.7207C51.2566 53.7383 51.2566 53.7736 51.2392 53.7736L49.8968 55.2369L51.2218 56.8413C51.2218 56.8237 51.2218 56.8237 51.2218 56.8413ZM50.7336 30.6774C50.5593 30.4129 50.3501 30.1837 50.106 29.9722C48.9727 29.1083 47.3339 29.3903 46.4099 30.6069L37.7451 42.0492L39.5408 38.1352V32.2994C39.5408 30.7832 38.3901 29.5314 36.9954 29.5314C35.5832 29.5314 34.4151 30.7832 34.4151 32.2994V47.0916C34.4151 47.6205 34.5546 48.1141 34.7987 48.5549V48.5196C34.9381 48.837 35.1822 49.1015 35.4612 49.3483C36.5944 50.2122 38.2332 49.9301 39.1572 48.7136L47.6303 37.5181L46.0787 40.8679V47.0916C46.0787 48.6078 47.2293 49.8596 48.6241 49.8596C50.0362 49.8596 51.2043 48.6078 51.2043 47.0916V32.2818C51.2218 31.6823 51.0126 31.1358 50.7336 30.6774ZM11.489 39.9159L8.839 41.6084L16.3532 34.0096C17.4167 32.9341 17.4864 31.2063 16.4927 30.2014C15.4989 29.1964 13.8078 29.2669 12.7268 30.3424L5.26497 37.9412V32.2818C5.26497 30.7655 4.1143 29.5138 2.68469 29.5138C1.25508 29.5138 0.139282 30.7655 0.139282 32.2818V47.0739C0.139282 48.5902 1.28995 49.8419 2.68469 49.8419C4.09687 49.8419 5.26497 48.5902 5.26497 47.0739V45.258L7.39195 43.107L13.2324 49.0133C14.2959 50.0888 16.0045 50.1593 16.9982 49.1543C17.9746 48.167 17.9223 46.4392 16.8588 45.3461L11.489 39.9159ZM30.2832 34.6619C31.7825 34.6619 33.0204 33.4983 33.0204 32.0526C33.0204 30.6069 31.7825 29.4432 30.2832 29.4432H23.3269C20.5548 29.4432 18.4802 31.9292 18.4802 34.4151V44.7643C18.4802 47.4618 20.4502 49.7362 23.3269 49.7362H30.2832C31.7825 49.7362 33.0204 48.5725 33.0204 47.1621C33.0204 45.7693 31.7825 44.5527 30.2832 44.5527H23.5884V42.1726H29.1848C30.6842 42.1726 31.922 41.009 31.922 39.5985C31.922 38.1704 30.6842 36.9892 29.1848 36.9892H23.571V34.6443L30.2832 34.6619ZM44.2132 29.9545C44.2132 30.7479 43.5855 31.3474 42.8359 31.3474C42.0513 31.3474 41.4586 30.7127 41.4586 29.9545C41.4586 29.1611 42.0862 28.5617 42.8359 28.5617C43.5681 28.5617 44.2132 29.214 44.2132 29.9545ZM19.6483 0.634704H4.1143C2.03962 0.634704 0.331059 2.34488 0.331059 4.46056V20.1695C0.331059 22.2676 2.02219 23.9954 4.1143 23.9954H19.6483C21.7229 23.9954 23.4315 22.2852 23.4315 20.1695V4.46056C23.4315 2.34488 21.7229 0.634704 19.6483 0.634704ZM5.40444 10.8252C4.74194 10.8252 4.18404 10.2787 4.18404 9.59109C4.18404 8.92113 4.7245 8.35694 5.40444 8.35694C6.08438 8.35694 6.62484 8.90349 6.62484 9.59109C6.62484 10.2787 6.06694 10.8252 5.40444 10.8252ZM18.2884 10.8252C17.6259 10.8252 17.068 10.2787 17.068 9.59109C17.068 8.92113 17.6084 8.35694 18.2884 8.35694C18.9683 8.35694 19.5088 8.90349 19.5088 9.59109C19.5088 10.2787 18.9683 10.8252 18.2884 10.8252ZM40.674 0C33.9444 0 28.4874 5.5184 28.4874 12.3238C28.4874 19.1293 33.9444 24.6477 40.674 24.6477C47.4037 24.6477 52.8606 19.1293 52.8606 12.3238C52.8606 5.5184 47.4037 0 40.674 0ZM47.1247 8.37457C47.7872 8.37457 48.3451 8.92113 48.3451 9.60872C48.3451 10.2787 47.8046 10.8429 47.1247 10.8429C46.4622 10.8429 45.9043 10.2963 45.9043 9.60872C45.9043 8.92113 46.4448 8.37457 47.1247 8.37457ZM34.2059 8.37457C34.8684 8.37457 35.4263 8.92113 35.4263 9.60872C35.4263 10.2787 34.8858 10.8429 34.2059 10.8429C33.5434 10.8429 32.9855 10.2963 32.9855 9.60872C33.0029 8.92113 33.5434 8.37457 34.2059 8.37457ZM40.674 21.9502C36.7862 21.9502 33.3342 19.5877 31.8871 15.9381C31.8 15.7089 31.9046 15.4797 32.1138 15.3916C32.3404 15.3034 32.5671 15.4092 32.6542 15.6208C33.9967 18.953 37.1 21.0863 40.6566 21.0863C44.1434 21.0863 47.2991 18.953 48.6241 15.6913C48.7112 15.4621 48.9727 15.374 49.1645 15.4621C49.3912 15.5503 49.4783 15.8147 49.3912 16.0087C47.9616 19.623 44.527 21.9502 40.674 21.9502Z" fill="#58585F"/>
</g>
<defs>
<clipPath id="clip0">
<rect width="53" height="57" fill="white"/>
</clipPath>
</defs>
</svg>
