<svg width="100" height="21" viewBox="0 0 100 21" fill="none" xmlns="http://www.w3.org/2000/svg">
<path d="M18.0335 2.04053H0V20.1621H18.0335V2.04053Z" fill="#58585F"/>
<path fill-rule="evenodd" clip-rule="evenodd" d="M16.0882 5.33515L14.0287 8.7225C13.9334 8.86542 13.8751 9.03031 13.8591 9.20202C13.8432 9.37373 13.8701 9.54675 13.9374 9.70518L17.1037 17.7978H4.09622C3.82603 17.7993 3.5582 17.7468 3.30808 17.6433C3.05795 17.5398 2.83045 17.3872 2.6386 17.1945C2.44675 17.0017 2.29433 16.7725 2.19007 16.5199C2.0858 16.2673 2.03175 15.9964 2.03101 15.7226V4.90161C2.03101 4.62183 2.1407 4.3535 2.33596 4.15566C2.53121 3.95782 2.79604 3.84668 3.07217 3.84668C3.34831 3.84668 3.61313 3.95782 3.80839 4.15566C4.00364 4.3535 4.11334 4.62183 4.11334 4.90161V15.0521C4.11318 15.2266 4.17958 15.3944 4.29865 15.5204C4.41772 15.6464 4.58026 15.721 4.7523 15.7284H14.2512L11.7809 9.85547C11.7141 9.63818 11.6776 9.41247 11.6725 9.18493C11.7032 8.84193 11.8042 8.5092 11.9692 8.20804L14.2512 4.43918C14.3367 4.26876 14.4662 4.12502 14.6259 4.02324C14.7857 3.92146 14.9696 3.86543 15.1583 3.86113C15.2923 3.8501 15.4272 3.86679 15.5548 3.9102C15.6823 3.95361 15.7998 4.02283 15.9001 4.11365C16.0004 4.20447 16.0814 4.315 16.1383 4.43853C16.1951 4.56206 16.2266 4.69601 16.2308 4.83225C16.2331 5.00379 16.2041 5.17428 16.1452 5.33515" fill="white"/>
<path fill-rule="evenodd" clip-rule="evenodd" d="M8.92841 12.1623V4.90769C8.92841 4.6302 9.0372 4.36407 9.23085 4.16786C9.4245 3.97164 9.68715 3.86141 9.96102 3.86141C10.2349 3.86141 10.4975 3.97164 10.6912 4.16786C10.8848 4.36407 10.9936 4.6302 10.9936 4.90769V12.249C10.9936 12.9895 10.7033 13.6997 10.1865 14.2233C9.66979 14.7469 8.96891 15.041 8.2381 15.041C7.5073 15.041 6.80642 14.7469 6.28966 14.2233C5.7729 13.6997 5.48259 12.9895 5.48259 12.249V4.90769C5.47204 4.76414 5.49083 4.61993 5.5378 4.48407C5.58477 4.34822 5.6589 4.22365 5.75555 4.11815C5.8522 4.01265 5.9693 3.92849 6.09952 3.87094C6.22974 3.8134 6.37028 3.78369 6.51234 3.78369C6.65441 3.78369 6.79495 3.8134 6.92517 3.87094C7.05538 3.92849 7.17248 4.01265 7.26914 4.11815C7.36579 4.22365 7.43992 4.34822 7.48688 4.48407C7.53385 4.61993 7.55265 4.76414 7.54209 4.90769V12.1623C7.53335 12.2599 7.54477 12.3582 7.57563 12.4511C7.60649 12.544 7.65611 12.6293 7.72133 12.7017C7.78654 12.774 7.86593 12.8318 7.95441 12.8713C8.0429 12.9109 8.13854 12.9313 8.23525 12.9313C8.33196 12.9313 8.42761 12.9109 8.51609 12.8713C8.60458 12.8318 8.68396 12.774 8.74918 12.7017C8.8144 12.6293 8.86402 12.544 8.89488 12.4511C8.92574 12.3582 8.93716 12.2599 8.92841 12.1623Z" fill="white"/>
<path fill-rule="evenodd" clip-rule="evenodd" d="M25.0165 3.83245V11.3471C25.0165 13.2604 24.8282 14.3182 23.305 14.3182C23.0435 14.3348 22.7815 14.2975 22.5348 14.2084V17.5033C22.9914 17.701 23.4816 17.8071 23.9782 17.8154C28.2969 17.8154 28.4908 14.3991 28.4908 12.5032V7.30073H30.9896V17.5322H34.4126V3.83245H25.0165ZM38.5545 17.5322H42.3027L47.8764 3.83245H44.1283L42.1087 9.56668L39.7069 3.83245H35.5764L40.2831 13.7055L38.5545 17.5322ZM48.9319 17.5322H52.3549V11.5841L55.9148 17.5322H60.3305L55.4299 10.4164L60.1365 3.83245H56.1259L52.3777 9.56668V3.83245H48.9547L48.9319 17.5322ZM66.0469 18.064C70.6508 18.064 72.7617 14.3413 72.7617 10.6245C72.7617 7.01171 70.6508 3.39892 66.0469 3.39892C61.5285 3.39892 59.4177 7.01171 59.4177 10.6245C59.4177 14.3471 61.5285 18.064 66.0469 18.064ZM66.0469 14.6708C64.5123 14.6708 62.9719 13.2835 62.9719 10.6245C62.9719 7.96549 64.5123 6.69956 66.0469 6.69956C67.6785 6.69956 69.2075 7.97705 69.2075 10.6245C69.2075 13.272 67.6842 14.6708 66.0469 14.6708ZM74.4903 3.83245V17.5322H77.8506L82.6542 9.24875V17.5322H86.0144V3.83245H82.6542L77.8278 12.0176V3.83245H74.4903ZM76.8921 0.855509C77.4626 2.44514 79.003 2.97694 80.3494 2.97694C81.7927 2.97694 83.2304 2.44514 83.9036 0.855509L81.884 0C81.8017 0.345068 81.6024 0.649872 81.3208 0.86118C81.0393 1.07249 80.6934 1.17687 80.3437 1.15609C80.006 1.17181 79.6741 1.06352 79.4089 0.851132C79.1437 0.63874 78.9632 0.336514 78.9003 0L76.8921 0.855509ZM89.6599 3.83245V11.3471C89.6599 13.2604 89.466 14.3182 87.9484 14.3182C87.687 14.3345 87.4251 14.2972 87.1783 14.2084V17.5033C87.635 17.7008 88.1251 17.8068 88.6216 17.8154C92.946 17.8154 93.1343 14.3991 93.1343 12.5032V7.24293H95.6331V17.5322H99.0903V3.83245H89.6599Z" fill="#58585F"/>
</svg>
