<svg width="99" height="13" viewBox="0 0 99 13" fill="none" xmlns="http://www.w3.org/2000/svg">
<g clip-path="url(#clip0)">
<path d="M14.3321 12.6285V7.02674C14.3321 4.92011 12.9749 3.49974 10.7774 3.48378C9.63016 3.46782 8.43447 3.81892 7.61041 5.06375C6.99641 4.07427 6.01077 3.48378 4.62119 3.48378C3.65171 3.48378 2.71454 3.77104 1.97127 4.8084V3.70721H0V12.6285H1.98743V7.68107C1.98743 6.13302 2.85996 5.3191 4.20108 5.3191C5.50987 5.3191 6.17235 6.16494 6.17235 7.66511V12.6285H8.15978V7.68107C8.15978 6.13302 9.06463 5.3191 10.3734 5.3191C11.7145 5.3191 12.3609 6.16494 12.3609 7.66511V12.6285H14.3321ZM43.6589 3.70721H40.4434V1.01009H38.456V3.70721H36.6463V5.47869H38.4722V9.54831C38.4722 11.623 39.2801 12.8519 41.6068 12.8519C42.4632 12.8519 43.4327 12.5965 44.0628 12.1656L43.4973 10.5059C42.9156 10.841 42.2693 11.0166 41.7522 11.0166C40.7666 11.0166 40.4434 10.4261 40.4434 9.53235V5.47869H43.6589V3.70721ZM60.4147 3.48378C59.2837 3.48378 58.5404 4.01043 58.0395 4.79244V3.70721H56.1005V12.6285H58.0557V7.63319C58.0557 6.16494 58.702 5.33505 59.9785 5.33505C60.3662 5.33505 60.7864 5.39889 61.2065 5.55848L61.8043 3.73912C61.368 3.56357 60.8025 3.48378 60.4147 3.48378ZM35.0952 4.42537C34.158 3.80296 32.8492 3.49974 31.4111 3.49974C29.1329 3.49974 27.6463 4.58497 27.6463 6.35645C27.6463 7.80875 28.7451 8.70247 30.7648 8.98973L31.6858 9.11741C32.7522 9.26104 33.2693 9.54831 33.2693 10.043C33.2693 10.7293 32.5583 11.1283 31.2172 11.1283C29.86 11.1283 28.8743 10.6974 28.2118 10.2026L27.2908 11.7188C28.3734 12.5008 29.7307 12.8678 31.2011 12.8678C33.8025 12.8678 35.3214 11.6549 35.3214 9.96325C35.3214 8.39924 34.1257 7.56936 32.1706 7.29805L31.2496 7.17037C30.4093 7.05866 29.7145 6.89907 29.7145 6.29261C29.7145 5.63828 30.3609 5.2393 31.4273 5.2393C32.5745 5.2393 33.6894 5.6702 34.2388 6.00535L35.0952 4.42537ZM87.6894 3.48378C86.5583 3.48378 85.8151 4.01043 85.3142 4.79244V3.70721H83.3752V12.6285H85.3303V7.63319C85.3303 6.16494 85.9767 5.33505 87.2531 5.33505C87.6409 5.33505 88.061 5.39889 88.4811 5.55848L89.079 3.73912C88.6589 3.56357 88.0934 3.48378 87.6894 3.48378ZM62.4022 8.17581C62.4022 10.8729 64.3088 12.8519 67.2172 12.8519C68.5745 12.8519 69.4793 12.5487 70.465 11.7826L69.5278 10.2186C68.7846 10.7453 68.009 11.0166 67.1688 11.0166C65.6014 11.0006 64.4542 9.88345 64.4542 8.15985C64.4542 6.45221 65.6014 5.3191 67.1688 5.30314C68.009 5.30314 68.7846 5.5904 69.5278 6.1011L70.465 4.53709C69.4793 3.77104 68.5745 3.46782 67.2172 3.46782C64.3088 3.48378 62.4022 5.46273 62.4022 8.17581ZM80.7899 8.17581V3.70721H78.8187V4.79244C78.2047 3.99447 77.2514 3.48378 75.9749 3.48378C73.4381 3.48378 71.4668 5.44677 71.4668 8.15985C71.4668 10.8889 73.4542 12.8359 75.9749 12.8359C77.2514 12.8359 78.2047 12.3252 78.8187 11.5273V12.6125H80.7899V8.17581ZM73.4704 8.17581C73.4704 6.6118 74.5045 5.3191 76.2172 5.3191C77.833 5.3191 78.9318 6.54796 78.9318 8.17581C78.9318 9.80366 77.833 11.0325 76.2172 11.0325C74.5206 11.0166 73.4704 9.73982 73.4704 8.17581ZM49.7828 3.48378C47.1329 3.48378 45.2908 5.38293 45.2908 8.15985C45.2908 11.0006 47.2136 12.8359 49.912 12.8359C51.2693 12.8359 52.5135 12.5008 53.6122 11.5911L52.6427 10.1548C51.8833 10.7453 50.93 11.0804 50.0251 11.0804C48.7648 11.0804 47.6014 10.5059 47.3268 8.89398H54.0323C54.0485 8.65459 54.0646 8.4152 54.0646 8.14389C54.0485 5.39889 52.3196 3.48378 49.7828 3.48378ZM49.7505 5.22334C51.0108 5.22334 51.8187 6.00534 52.0287 7.3938H47.3429C47.553 6.1011 48.3447 5.22334 49.7505 5.22334ZM99 8.17581V0.132324H97.0287V4.79244C96.4147 3.99447 95.4614 3.48378 94.1849 3.48378C91.6481 3.48378 89.6768 5.44677 89.6768 8.15985C89.6768 10.8889 91.6643 12.8359 94.1849 12.8359C95.4614 12.8359 96.4147 12.3252 97.0287 11.5273V12.6125H99V8.17581ZM91.6966 8.17581C91.6966 6.6118 92.7307 5.3191 94.4273 5.3191C96.0431 5.3191 97.1418 6.54796 97.1418 8.17581C97.1418 9.80366 96.0431 11.0325 94.4273 11.0325C92.7307 11.0166 91.6966 9.73982 91.6966 8.17581ZM25.3842 8.17581V3.70721H23.4291V4.79244C22.7989 3.99447 21.8618 3.48378 20.5853 3.48378C18.0485 3.48378 16.0772 5.44677 16.0772 8.15985C16.0772 10.8889 18.0646 12.8359 20.5853 12.8359C21.8618 12.8359 22.8151 12.3252 23.4291 11.5273V12.6125H25.3842V8.17581ZM18.0808 8.17581C18.0808 6.6118 19.1149 5.3191 20.8115 5.3191C22.4273 5.3191 23.526 6.54796 23.526 8.17581C23.526 9.80366 22.4273 11.0325 20.8115 11.0325C19.1149 11.0166 18.0808 9.73982 18.0808 8.17581Z" fill="#58585F"/>
</g>
<defs>
<clipPath id="clip0">
<rect width="99" height="13" fill="white"/>
</clipPath>
</defs>
</svg>
