<svg width="95" height="39" viewBox="0 0 95 39" fill="none" xmlns="http://www.w3.org/2000/svg">
<path d="M48.2607 0.0474112C47.9279 0.0474112 47.1195 -0.000266254 45.9307 0.953279C45.4076 1.38237 44.409 3.0034 44.6943 4.38604C44.7894 4.81514 45.0272 5.19655 45.2174 5.43494C45.6929 6.05475 46.6915 6.48384 47.167 6.10242C47.6901 5.62565 48.6887 5.721 49.0691 5.48262C49.3544 5.29191 50.1628 4.76746 50.5908 3.62321C50.7334 3.14643 51.8271 -0.000266097 48.2607 0.0474112ZM54.0621 22.6464C52.3026 20.4533 46.5488 22.0743 45.0272 22.408C45.3125 21.0731 48.3083 11.3946 48.4034 10.3934C48.4509 9.7259 48.4509 8.91538 47.4999 8.43861C45.5978 7.48506 42.9824 9.01074 41.9838 9.77357C40.7475 10.7271 41.5559 9.86893 38.2748 12.8726C34.2328 16.5914 32.7587 18.2601 32.5685 18.2124C32.1405 18.1171 34.4706 12.9679 34.8035 11.5853C35.0412 10.6794 35.279 10.0596 35.0412 9.2968C34.8035 8.58164 34.2328 7.96184 33.1391 7.8188C31.9028 7.67577 30.2385 8.29558 28.0511 9.20145C25.0077 10.5364 18.9211 13.9692 16.163 15.7332C1.8974 25.0303 0.898805 26.7944 0.470836 27.7002C0.137971 28.4631 0.233075 29.2736 0.613492 29.512C1.08901 29.8457 1.70719 30.0364 2.75334 29.2259C4.1799 28.1293 4.75053 26.7944 7.65121 24.1721C13.5001 18.8799 19.3015 15.7809 21.584 14.4459C24.6273 12.6342 28.0035 11.2516 29.7154 10.6794C29.7629 10.6794 27.0049 18.2124 26.5294 19.5951C25.4357 22.9802 25.4357 24.1721 26.1014 24.8873C26.9574 25.8885 28.479 25.6024 29.6203 24.7442C30.286 24.2675 31.9028 22.265 32.6636 21.4068C33.4245 20.5963 34.7084 19.3567 35.8021 18.1648C36.8958 16.9728 38.7027 15.3041 39.7964 14.3983C40.6999 13.6354 41.4608 13.0156 41.6985 13.111C42.0314 13.254 41.5559 14.3029 41.5559 14.3029C41.5559 14.3029 40.1293 18.5462 39.6538 20.1672C39.4636 20.8347 39.0832 22.2173 38.7027 23.743C30.0483 25.9838 21.0609 28.2724 16.6386 29.8457C7.74631 33.0401 1.94495 35.0425 2.61068 36.9019C3.37152 38.9997 6.74772 35.567 17.8274 31.4667C23.1532 29.5596 24.6273 29.1782 27.5755 28.4154C31.6175 27.4142 34.9937 26.699 38.2272 26.1269C38.0846 26.9374 38.037 28.034 38.1321 28.7014C38.4174 30.3225 39.5111 30.7516 40.3195 30.9423C41.6034 31.2283 43.6482 30.8946 43.8859 28.034C43.981 27.2234 44.1712 25.9362 44.2188 25.6501C44.5041 25.6024 45.0747 25.5071 45.4551 25.4594C49.2118 25.078 49.2593 25.5071 49.6397 25.7931C50.0201 26.0792 50.353 27.5572 52.7782 26.5083C55.0131 25.6501 54.6803 23.4569 54.0621 22.6464ZM76.8871 21.5975L76.6018 22.9325H79.1696L79.0269 23.6H76.4591L76.1738 24.9349H78.7416L78.599 25.6024H76.0312L75.7458 26.9374H78.3137C80.7388 26.9374 81.0241 26.2222 81.4045 24.2675C81.6423 23.0755 81.9276 21.5975 79.7402 21.5975H76.8871ZM65.5697 19.8335L63.9054 23.6953H63.8578L63.7152 19.8335H59.483L58.0565 26.9374H60.5767L61.718 21.3591H61.7655L62.0033 26.9374H64.2382L66.806 21.3591H66.8536L65.7123 26.9374H68.2802L69.7067 19.8335H65.5697ZM73.5109 21.5975L72.7025 25.5547H71.8941L72.7025 21.5975H70.1347L69.5165 24.6966C69.2312 25.9838 69.6592 26.8897 71.6088 26.8897H74.985L76.0787 21.5975H73.5109ZM85.2563 21.6452C83.4493 21.6452 82.5458 22.3604 82.308 23.6477L81.6423 26.9851H84.2101L85.0185 23.0755H85.8269L85.0185 26.9851H87.5863L88.68 21.6929L85.2563 21.6452ZM92.4842 23.3139H91.5807L91.9136 21.5975H89.3457L88.2521 26.8897H91.2003C93.1499 26.8897 94.2912 26.3653 94.5289 25.1257C94.8618 23.9337 93.8632 23.3616 92.4842 23.3139ZM91.1527 25.6024L91.3429 24.6489H92.1513L91.9611 25.6024H91.1527Z" fill="#58585F"/>
</svg>
