<svg width="100" height="12" viewBox="0 0 100 12" fill="none" xmlns="http://www.w3.org/2000/svg">
<g clip-path="url(#clip0)">
<path d="M4.25448 11.8717C4.05191 11.8717 3.91687 11.8717 3.7143 11.809C3.37669 11.809 3.03908 11.7462 2.70147 11.7462C1.82369 11.7462 0.608291 11.7462 0.405725 11.809H0.270681L0.203159 11.7462C0.0681153 11.6206 0.0681153 11.495 0.0681153 11.4322C0.0681153 11.3694 0.0681153 11.2438 0.203159 11.1182H0.338203C0.743335 10.9926 1.08094 10.9298 1.35103 10.867C1.68864 10.7414 1.75616 10.553 1.75616 9.7995V5.7806C1.75616 4.02232 1.75616 2.01287 1.68864 1.76169C1.68864 1.25933 1.5536 1.25933 1.41855 1.19653C1.21599 1.13374 1.08094 1.13374 0.810857 1.13374C0.675813 1.13374 0.540769 1.07094 0.338203 1.07094H0.203159C0.000593334 0.819758 0.0681152 0.505781 0.135637 0.38019L0.270681 0.191804H0.405725C0.540769 0.191804 1.62112 0.317395 1.62112 0.317395C1.95873 0.317395 2.36386 0.38019 2.70147 0.38019H4.9297L4.99722 0.505781C5.13226 0.631372 5.13226 1.00814 4.9297 1.13374H4.86217C4.52456 1.07094 4.11943 1.13374 3.98439 1.19653C3.64678 1.25933 3.57926 1.25933 3.57926 1.69889C3.51173 2.38964 3.51173 3.58276 3.51173 5.34103H10.1289C10.1289 4.27351 10.0614 2.07567 10.0614 1.5733C10.0614 1.25933 9.92632 1.19653 9.8588 1.19653C9.52119 1.13374 9.2511 1.07094 8.91349 1.07094H8.77845C8.57588 0.882554 8.57588 0.568577 8.77845 0.442986L8.84597 0.191804H8.91349C8.98101 0.191804 9.2511 0.2546 9.38614 0.2546H9.58871C10.0614 0.2546 10.534 0.317395 11.0067 0.317395H12.4246C12.4246 0.317395 13.0323 0.2546 13.0999 0.2546H13.2349L13.3699 0.38019V0.442986C13.505 0.568577 13.505 0.882554 13.3024 1.07094L13.2349 1.13374L12.9648 1.19653C12.6947 1.25933 12.4922 1.25933 12.3571 1.32212C12.087 1.38492 11.952 1.44771 11.952 2.07567C11.952 2.57803 11.8845 4.14791 11.8845 6.09457C11.8845 7.72725 11.8845 9.8623 11.952 10.3647C12.0195 10.867 12.087 10.867 12.2896 10.9298C12.5597 10.9926 12.7622 11.0554 13.3024 11.1182H13.4375L13.505 11.2438C13.64 11.4322 13.64 11.6834 13.3699 11.809H8.77845L8.71093 11.7462C8.57588 11.5578 8.57588 11.3066 8.71093 11.181L8.77845 11.0554H9.04853C9.31862 11.0554 9.52119 10.9926 9.8588 10.9298C10.1289 10.867 10.1289 10.867 10.1964 10.3019V6.53414H3.64678C3.64678 7.53887 3.64678 9.7995 3.7143 10.0507V10.2391C3.78182 10.7414 3.78182 10.8042 3.98439 10.867H4.05191C4.25448 10.9298 4.45704 10.9926 4.99722 11.0554H5.13226L5.19978 11.181C5.33483 11.3066 5.26731 11.6206 5.19978 11.6834C5.19978 11.7462 4.9297 11.8717 4.9297 11.9345C4.86217 11.8717 4.322 11.8717 4.25448 11.8717ZM99.4604 11.1182L99.3929 10.9926H99.2579C98.0425 10.867 98.0425 10.867 97.5698 9.92509C97.1647 9.04596 96.0843 6.03178 95.2741 3.83394L95.0715 3.33157C94.6664 2.20126 94.3963 1.51051 94.3288 1.25933C94.2612 1.13374 94.1937 0.819758 94.1262 0.505781L94.0587 0.2546L93.7886 0.191804H92.6407L92.5732 0.505781C92.5732 0.694167 92.4381 1.00814 92.3031 1.38492C92.2356 1.5733 92.1005 1.88728 91.9655 2.26405C91.2227 4.08512 89.8723 7.47607 88.927 9.54832C88.3868 10.6786 88.2518 10.8042 87.3065 10.9926C86.6312 10.9298 86.2261 10.6786 85.2133 9.54832C84.3166 8.51557 83.4387 7.46883 82.5799 6.40855C82.3098 6.09457 82.1073 5.90619 81.9047 5.7806C82.4449 5.34103 82.9851 4.46189 83.7953 3.08039C84.403 2.01287 84.6731 1.69889 85.1458 1.69889C85.3483 1.69889 85.7535 1.88728 85.956 2.01287L86.1586 2.13846C86.3612 2.13846 86.4962 1.95008 86.5637 1.88728C86.7663 1.6361 86.9013 1.00814 86.9013 0.694167C86.9013 0.631372 86.8338 0.38019 86.6988 0.317395C86.4962 0.191804 86.1586 0.0662133 85.956 0.0662133C84.6056 0.0662133 83.7953 0.819758 82.4449 3.33157C82.0398 4.02232 81.8372 4.3363 81.4321 4.83866C81.2295 5.08985 80.8919 5.40382 79.8115 5.40382V1.95008C79.8115 1.32212 79.8791 1.32212 80.2167 1.25933C80.4192 1.19653 80.4868 1.19653 80.6218 1.19653L80.8919 1.13374C81.0945 1.07094 81.162 0.945349 81.162 0.756963C81.162 0.568577 81.0269 0.38019 80.8244 0.317395H80.1491C79.8115 0.317395 79.4064 0.38019 78.9338 0.38019C78.3936 0.38019 77.8534 0.38019 77.4483 0.317395H76.7055C76.638 0.317395 76.503 0.38019 76.503 0.568577C76.503 0.631372 76.4354 0.882554 76.638 1.00814H76.773C77.1782 1.07094 77.3807 1.07094 77.6508 1.13374C77.9884 1.19653 77.9884 1.32212 78.056 1.76169C78.056 2.26405 78.1235 3.51996 78.1235 5.59221C78.1235 6.28296 78.1235 8.98316 78.056 9.7995C77.9884 10.7414 77.9884 10.8042 77.4483 10.867L76.773 10.9298H76.5705C75.3551 10.9298 75.0175 10.6158 74.0722 9.42273C73.4645 8.73198 73.0593 8.10403 72.5867 7.53887L72.5192 7.47607L71.9115 6.72253C71.4388 6.09457 71.1687 5.84339 70.7636 5.59221C71.3038 5.08985 71.979 4.14791 72.7217 2.89201C73.4645 1.6361 73.8696 1.5733 74.0046 1.5733C74.2072 1.5733 74.7474 1.69889 74.8149 1.82448C74.8824 1.88728 74.95 1.88728 75.085 1.88728C75.22 1.88728 75.4226 1.82448 75.4901 1.69889C75.5576 1.5733 75.8277 1.00814 75.8277 0.631372C75.8277 0.568577 75.7602 0.317395 75.6252 0.2546C75.3551 0.0662133 75.085 0.00341797 74.8149 0.00341797C73.5995 0.00341797 72.8568 0.694168 71.4388 3.20598C71.0337 3.89673 70.6285 4.52469 70.3585 4.83866C69.9533 5.21544 69.7508 5.40382 68.9405 5.46662V2.01287C68.9405 1.38492 68.9405 1.38492 69.3456 1.25933C69.4132 1.25933 69.4807 1.25933 69.5482 1.19653C69.6832 1.19653 69.7508 1.13374 70.0209 1.13374C70.2234 1.07094 70.2909 0.945349 70.3585 0.756963C70.3585 0.568577 70.2234 0.38019 70.0209 0.38019H69.6832C69.3456 0.38019 68.7379 0.442986 67.9952 0.442986C67.455 0.442986 66.9824 0.442986 66.5772 0.38019H65.8345C65.767 0.38019 65.6319 0.442986 65.5644 0.694167C65.5644 0.756963 65.4969 0.945349 65.6994 1.13374H65.767L66.1046 1.19653C66.3071 1.19653 66.6448 1.25933 66.8473 1.32212C67.1849 1.38492 67.2525 1.51051 67.2525 1.95008V5.52941C66.3747 5.46662 66.0371 5.21544 65.6319 4.58748C65.2943 4.08512 64.9567 3.58276 64.1464 2.01287C63.6063 0.945349 62.9986 0.129009 61.6481 0.129009C61.378 0.129009 61.1755 0.191804 61.0404 0.2546C60.9729 0.317395 60.8379 0.38019 60.7028 0.568577C60.2977 0.756963 60.1626 1.38492 60.1626 1.51051C60.1626 1.6361 60.2302 1.76169 60.2977 1.76169C60.3652 1.82448 60.4327 1.88728 60.5678 1.88728H60.6353L60.8379 1.82448C61.108 1.69889 61.378 1.5733 61.8507 1.5733C62.0533 1.5733 62.4584 1.5733 63.4037 3.20598C64.1464 4.46189 64.6866 5.21544 65.1593 5.655C64.4841 6.03178 64.0114 6.59694 63.2687 7.60166C62.9986 7.97844 61.6481 9.73671 61.378 10.0507C60.9729 10.4903 60.2977 10.8042 59.0823 10.9298C58.8797 10.9298 58.6772 10.8042 58.7447 10.6158C59.0823 10.1135 59.2173 9.54832 59.2849 9.10875V8.98316C59.2173 8.85757 58.9473 8.73198 58.8122 8.73198H58.7447L58.6096 8.79478L58.5421 8.92037C58.272 9.54832 57.7994 10.2391 57.5293 10.4275C57.3267 10.6158 57.1242 10.8042 56.0438 10.8042C54.6934 10.8042 54.0182 10.7414 53.613 10.6786C53.5455 10.6786 53.4105 10.6158 53.3429 10.3019C53.2754 9.29714 53.2754 6.97371 53.2754 6.40855H54.1532C54.9635 6.40855 55.8412 6.40855 56.1789 6.47134C56.584 6.47134 56.6515 6.65973 56.719 6.84812V6.91091C56.7866 7.0993 56.7866 7.22489 56.7866 7.41328V7.53887C56.8541 7.60166 56.9216 7.72725 57.1917 7.72725C57.3942 7.72725 57.5293 7.66446 57.5968 7.53887C57.5968 7.53887 57.6643 6.72253 57.6643 6.59694V5.96898C57.6643 5.40382 57.7319 4.71307 57.7994 4.3991V4.27351C57.7319 4.08512 57.3942 4.08512 57.3267 4.08512C57.1917 4.08512 57.1242 4.08512 56.9891 4.14791L56.9216 4.21071V4.27351C56.8541 4.46189 56.7866 4.71307 56.719 4.90146C56.6515 5.15264 56.584 5.27823 56.1113 5.34103C55.7737 5.34103 54.8959 5.40382 54.0182 5.40382H53.1404C53.1404 4.90146 53.1404 2.01287 53.2079 1.32212H56.1113C56.7866 1.32212 56.8541 1.51051 56.9891 1.88728C57.0566 2.13846 57.1242 2.45244 57.1242 2.89201V3.0176L57.2592 3.08039C57.3267 3.14319 57.4618 3.14319 57.5293 3.14319C57.7319 3.14319 57.8669 3.08039 57.9344 3.0176L58.137 2.9548V2.89201C58.272 1.82448 58.4071 1.07094 58.5421 0.631372V0.568577C58.5421 0.38019 58.3396 0.191804 58.137 0.191804H50.2369L50.1694 0.2546L50.1019 0.317395C49.8993 0.442986 49.8993 0.631372 49.8993 0.694167C49.8993 0.819758 49.9668 0.945349 50.1019 1.00814H50.1694C50.507 1.07094 50.7771 1.07094 51.0472 1.13374C51.3848 1.25933 51.3848 1.25933 51.4523 1.88728C51.4523 2.13846 51.5198 3.77114 51.5198 5.59221C51.5198 7.79005 51.5198 9.7995 51.4523 10.0507C51.3848 10.7414 51.2498 10.8042 50.9797 10.867C50.7096 10.9298 50.4395 10.9298 49.9668 10.9926H49.7643C48.6164 10.867 48.6164 10.867 48.1437 9.92509C47.6711 8.85757 45.983 4.21071 45.2403 2.26405L44.9027 1.32212C44.8352 1.00814 44.7001 0.756963 44.7001 0.505781V0.442986L44.6326 0.191804H43.2146L43.1471 0.505781C43.0796 0.756963 43.0121 1.13374 42.877 1.44771L42.6745 1.88728C42.1343 3.33157 40.5813 7.22489 39.5009 9.54832C38.9608 10.7414 38.8257 10.867 37.7454 10.9926C37.4753 10.9926 37.2727 10.9298 37.1377 10.9298C36.8001 10.867 36.7325 10.7414 36.665 10.4275C36.665 9.7995 36.5975 6.84812 36.5975 5.96898C36.5975 4.65028 36.665 2.76642 36.665 1.88728C36.665 1.32212 36.7325 1.32212 37.0701 1.25933C37.3402 1.19653 37.5428 1.19653 37.9479 1.07094H38.083C38.218 0.945349 38.218 0.819758 38.218 0.694167C38.218 0.568577 38.1505 0.442986 38.0154 0.38019L37.8804 0.2546H37.2052C36.8676 0.2546 36.3949 0.317395 35.7197 0.317395H34.3693C34.3017 0.317395 34.3017 0.2546 34.2342 0.2546C34.0992 0.2546 33.7616 0.191804 33.6265 0.191804H33.559L33.424 0.38019C33.2889 0.505781 33.2889 0.882554 33.424 1.00814L33.4915 1.07094H33.694C33.9641 1.07094 34.0992 1.13374 34.3017 1.13374C34.6394 1.25933 34.7069 1.25933 34.7069 1.6361C34.7744 2.20126 34.7744 3.58276 34.7744 4.71307V5.34103C34.0992 5.59221 33.2889 5.7178 32.7487 5.7178C31.3983 5.7178 30.1829 5.46662 30.1154 3.64555C30.1154 2.9548 30.0479 1.76169 30.1154 1.44771C30.1154 1.25933 30.1154 1.19653 30.9932 1.07094H31.1282L31.1957 0.945349C31.3308 0.819758 31.3308 0.505781 31.1957 0.38019V0.317395L30.9932 0.191804H30.9256L30.5205 0.2546H30.3855C30.0479 0.2546 29.6427 0.317395 29.1026 0.317395H27.4145C27.347 0.2546 27.0769 0.191804 27.0769 0.191804H26.9419L26.8068 0.38019C26.6718 0.505781 26.6718 0.756963 26.7393 0.882554L26.8068 1.00814H27.0769C27.347 1.00814 27.5495 1.07094 27.7521 1.07094C28.1572 1.13374 28.2248 1.25933 28.2248 1.76169V3.51996C28.2248 4.52469 28.4273 5.21544 28.7649 5.655C29.5752 6.65973 30.7906 6.78532 31.871 6.78532C32.7487 6.78532 33.7616 6.53414 34.7069 6.15737V9.73671C34.7069 10.8042 34.5718 10.8042 34.3017 10.867C34.0992 10.9298 33.8291 10.9298 33.4915 10.9926C33.3564 10.9926 33.2214 11.0554 33.2214 11.2438C33.2214 11.3066 33.1539 11.6206 33.424 11.7462H39.4334C39.771 11.7462 40.3112 11.6834 40.7838 11.7462H41.9317C42.0668 11.6206 42.1343 11.3066 41.9317 11.1182H41.7967C41.324 11.0554 41.189 11.0554 40.9864 10.9926C40.7838 10.9298 40.6488 10.867 40.6488 10.8042C40.5813 10.6786 40.5813 10.4903 40.7163 10.1763C40.8514 9.7367 41.324 8.54359 41.7967 7.41328L41.8642 7.28769C42.4719 5.7806 43.2146 3.95953 43.6198 2.82921C45.2403 7.28768 46.1856 9.98789 46.4557 10.7414C46.4557 10.8042 46.5232 10.867 46.5232 10.867L46.4557 10.9298C46.2531 10.9926 45.983 11.0554 45.6454 11.0554H45.3753C45.1728 11.181 45.3078 11.5578 45.3078 11.6206L45.3753 11.7462H45.5779C45.983 11.6834 47.266 11.6834 47.7386 11.6834H52.4651C54.4233 11.6834 55.3686 11.6834 56.1113 11.7462H60.0951C60.5678 11.7462 60.9729 11.6834 61.3105 11.6834C62.0533 11.6206 62.4584 11.4322 63.3362 10.4903C63.4712 10.3647 63.8764 9.7995 64.349 9.04596C64.8892 8.29241 65.5644 7.28768 65.902 6.91091C66.2396 6.53414 66.6448 6.28296 67.2525 6.22016V9.7995C67.1849 10.6786 67.1174 10.8042 66.6448 10.867L65.9695 10.9926C65.767 11.1182 65.767 11.4322 65.767 11.495C65.8345 11.6206 65.9695 11.7462 66.1046 11.7462H68.0627C69.3456 11.7462 69.8183 11.809 70.0209 11.809H70.2909L70.4935 11.7462V11.6834C70.561 11.6206 70.6285 11.495 70.6285 11.3694C70.6285 11.2438 70.561 11.1182 70.426 11.0554H70.2909C69.8858 10.9926 69.6832 10.9926 69.4807 10.9298C69.0755 10.867 69.008 10.8042 69.008 10.3019C69.008 9.67391 69.008 7.97843 68.9405 6.91091V6.28296C69.4132 6.34575 69.8858 6.65973 70.2909 7.28769L70.7636 7.91564C71.8439 9.35993 72.7217 10.6786 73.3969 11.2438C73.7346 11.5578 74.0722 11.7462 74.8824 11.8717H75.6927C75.9628 11.8717 76.7055 11.8717 76.9756 11.809H81.4321C81.4996 11.7462 81.6346 11.6834 81.6346 11.495C81.6346 11.3694 81.5671 11.2438 81.4321 11.1182H81.297C80.8919 11.0554 80.6893 11.0554 80.4868 10.9926C80.0816 10.9298 80.0816 10.867 80.0816 10.3647V6.47134C80.6218 6.53414 80.9594 6.84812 81.4321 7.41328C81.7697 7.79005 82.1073 8.22962 82.3774 8.60639L82.4449 8.73198C83.3902 9.92509 84.2005 10.9298 84.7406 11.3694C85.0782 11.6206 85.3483 11.809 86.0236 11.9345C86.2261 11.9345 87.1039 11.9973 87.7791 11.9973H88.3868C88.4543 11.9973 88.927 11.9345 89.1296 11.9345H89.3997C89.8723 11.9345 91.5604 11.8717 91.5604 11.8717C91.6954 11.7462 91.7629 11.4322 91.5604 11.2438L91.4928 11.181H91.4253C91.0202 11.1182 90.8176 11.1182 90.6151 11.0554C90.2099 10.9926 90.2099 10.867 90.2774 10.6158C90.345 10.1763 91.0202 8.60639 91.5604 7.28769H94.8689L95.0715 7.79005C95.4766 8.79478 96.0168 10.2391 96.2194 10.867C96.2194 10.9298 96.2869 10.9926 96.2869 10.9926L96.2194 11.0554C96.0168 11.1182 95.7467 11.181 95.4091 11.181H95.139C95.004 11.3066 95.0715 11.6834 95.0715 11.7462L95.2065 11.8717H95.4091C95.8142 11.809 97.0972 11.809 97.5698 11.809C98.11 11.809 99.5955 11.8717 99.663 11.8717H99.798C99.8656 11.809 99.9331 11.7462 100.001 11.6206C99.5279 11.4322 99.5279 11.2438 99.4604 11.1182ZM93.1809 6.03178H91.6954C91.7629 5.7806 91.9655 5.40382 91.9655 5.40382C92.2356 4.58748 92.7082 3.45717 92.9783 2.70362C93.2484 3.39437 93.5185 4.27351 93.8561 5.15264L94.1937 6.09457C93.8561 6.03178 93.451 6.03178 93.1809 6.03178ZM20.1897 11.8717C18.2315 11.8717 16.611 11.3066 15.4631 10.2391C14.3828 9.17155 13.7751 7.72725 13.7751 6.03178C13.7751 4.96426 14.0452 3.39437 15.3956 2.13846C16.1383 1.38492 17.2862 0.756963 18.5691 0.505781L18.7717 0.442986L18.9743 0.882554L18.7717 0.945349C18.5691 1.07094 18.3666 1.13374 18.2315 1.25933C17.0836 2.13846 16.5435 3.83394 16.8136 5.90619C16.8811 6.65973 17.1512 7.41328 17.4213 8.04123C17.6913 8.66918 18.029 9.23434 18.4341 9.61112C18.9067 10.1135 19.3119 10.4902 19.852 10.7414C20.3247 10.9926 20.9324 11.1182 21.5401 11.181H21.7427L21.8102 11.6834L21.6076 11.7462C21.135 11.809 20.6623 11.8717 20.1897 11.8717ZM24.9162 9.42273L24.9837 9.23434C25.3888 8.35521 25.5239 7.22489 25.3213 5.84339C25.0512 3.70835 23.9709 1.95008 22.4854 1.13374C22.3504 1.07094 22.1478 0.945349 22.0127 0.945349L21.8102 0.882554L22.0127 0.442986L22.2153 0.505781C24.9162 1.13374 26.6718 3.20598 26.6718 5.90619C26.6718 7.35048 26.2666 8.60639 25.4564 9.54832L25.3213 9.67391L24.9162 9.42273Z" fill="#58585F"/>
</g>
<defs>
<clipPath id="clip0">
<rect width="100" height="12" fill="white"/>
</clipPath>
</defs>
</svg>
