<svg width="59" height="59" viewBox="0 0 59 59" fill="none" xmlns="http://www.w3.org/2000/svg">
<path d="M51.3353 11.5861C50.8719 11.5861 50.4084 11.5148 49.9806 11.3722C48.8042 11.0157 47.8417 10.1958 47.2713 9.12627C46.7009 8.02113 46.5939 6.7734 46.9504 5.63261C46.9861 5.49002 47.0574 5.34742 47.093 5.24047C47.1643 5.09787 47.2356 5.02657 47.3782 4.95527C47.5208 4.91962 47.6634 4.91962 47.7704 4.95527C48.1269 5.09787 48.4834 5.16917 48.8755 5.16917C50.0163 5.16917 51.2284 4.52748 51.8701 3.60059C52.0127 3.42234 52.2266 3.35104 52.4405 3.42234C52.6544 3.49364 52.7969 3.67189 52.7969 3.88579C52.7969 5.52566 54.009 7.0586 55.435 7.34379C55.5776 7.37944 55.6846 7.45074 55.7559 7.55769C55.8272 7.66464 55.8628 7.80724 55.8272 7.94983L55.7202 8.37763C55.1142 10.2671 53.3317 11.5861 51.3353 11.5861ZM47.8417 6.06041C47.5921 6.916 47.6991 7.84289 48.1269 8.66283C48.5903 9.51841 49.3389 10.1245 50.2302 10.4097C50.5867 10.5166 50.9432 10.5879 51.2997 10.5879C52.8326 10.5879 54.1516 9.62536 54.6864 8.19938C53.3673 7.73594 52.2979 6.4882 51.9057 5.02657C51.0501 5.73956 49.945 6.20301 48.8399 6.20301C48.519 6.16736 48.1625 6.13171 47.8417 6.06041Z" fill="#58585F"/>
<path d="M49.2677 7.87866C49.6242 7.9856 49.9807 7.80736 50.0877 7.45086C50.1946 7.09437 50.0164 6.73787 49.6599 6.63092C49.3034 6.52397 48.9469 6.70222 48.8399 7.05872C48.733 7.37956 48.9112 7.77171 49.2677 7.87866ZM52.4762 8.87684C52.8327 8.98379 53.1892 8.80554 53.2961 8.44905C53.4031 8.09255 53.2248 7.73606 52.8683 7.62911C52.5118 7.52216 52.1553 7.70041 52.0484 8.0569C51.9414 8.4134 52.1197 8.76989 52.4762 8.87684ZM26.7729 12.7983C26.7372 12.7626 26.6659 12.7626 26.6303 12.7983L23.0653 13.9747C23.0297 13.9747 22.994 14.0104 22.9584 14.0817C22.9227 14.1173 22.9227 14.1886 22.9584 14.2243C23.0653 14.5808 23.1366 15.0086 23.1366 15.472C23.1366 16.3276 22.994 17.3614 22.7088 18.7518L19.9281 31.6926C19.7499 32.5838 19.6073 33.475 19.6073 33.9385C19.6073 35.5784 20.7124 36.5409 22.5306 36.5409C23.3862 36.5409 24.2061 36.3983 24.9191 36.1131C24.9904 36.0774 25.0617 36.0061 25.026 35.9348L24.8478 33.8672C24.8478 33.7959 24.8121 33.7602 24.7408 33.7246C24.7052 33.6889 24.6339 33.6889 24.5626 33.7246H24.0635C23.7783 33.7246 23.4931 33.6533 23.4931 33.0829C23.4931 32.6907 23.6 32.0847 23.8496 30.9083L26.559 18.2527C26.8085 17.0406 26.9511 15.579 26.9511 14.2956C26.9511 13.6539 26.9155 13.1904 26.8085 12.9052C26.8442 12.8696 26.8085 12.7983 26.7729 12.7983ZM34.4375 33.475C34.0097 33.6533 33.475 33.7602 32.9402 33.7602C31.9777 33.7602 31.6568 33.475 31.6568 32.6551C31.6568 32.2629 31.7281 31.7282 31.8351 31.1578L33.5819 22.9228H36.4339C36.5052 22.9228 36.5765 22.8871 36.6121 22.8158L37.8955 20.3916C37.9312 20.3203 37.9312 20.249 37.8955 20.2134C37.8599 20.1421 37.7886 20.1064 37.7173 20.1064H34.188C34.5088 18.6092 35.0079 16.8623 35.4 15.6859C35.4357 15.6146 35.4 15.5433 35.3644 15.5077C35.3287 15.472 35.2574 15.4364 35.1861 15.4364L31.5499 16.2919C31.4786 16.2919 31.4429 16.3632 31.4073 16.3989C31.0508 17.4684 30.73 18.6092 30.4091 20.1064H28.7692C28.6623 20.1064 28.591 20.1777 28.591 20.249L28.0919 22.6732C28.0919 22.7445 28.0919 22.7802 28.1275 22.8158C28.1632 22.8515 28.2345 22.8871 28.2701 22.8871H29.8031L27.9493 31.5856C27.8067 32.2986 27.7354 33.0829 27.7354 33.7602C27.7354 35.5071 29.0901 36.6122 31.2291 36.6122C32.3342 36.6122 33.475 36.3983 34.5801 35.9348C34.6514 35.8992 34.6871 35.8279 34.6871 35.7566V33.6533C34.6871 33.582 34.6514 33.5463 34.6158 33.5107C34.5445 33.4394 34.4732 33.4394 34.4375 33.475Z" fill="#58585F"/>
<path d="M51.157 33.4749C51.0857 33.4393 51.0501 33.4393 50.9788 33.4749C50.551 33.6532 50.0163 33.7601 49.4815 33.7601C48.6972 33.7601 48.3407 33.5462 48.2338 33.0115C48.2338 32.9402 48.1981 32.8689 48.1981 32.7619V32.5124C48.1981 32.1202 48.2694 31.6568 48.3764 31.1577C48.3764 31.0864 48.412 31.0507 48.412 30.9794L49.6954 24.7408C49.9093 23.6356 50.3371 22.0314 50.6223 21.1402C50.6579 21.0689 50.6223 20.9619 50.551 20.9263C49.3746 20.142 47.5564 19.7142 45.5601 19.7142C42.9933 19.7142 40.89 20.5698 39.1788 22.3166C37.0755 24.4556 35.7921 27.9492 35.7921 31.3716C35.7921 34.687 37.3607 36.5764 40.1057 36.5764C41.9238 36.5764 43.528 35.8278 44.7045 34.4375C44.954 35.8278 46.0592 36.5764 47.806 36.5764C48.9111 36.5764 50.0519 36.3625 51.157 35.8991C51.2283 35.8634 51.264 35.7921 51.264 35.7208V33.6175C51.2283 33.5819 51.1927 33.5106 51.157 33.4749ZM45.1323 22.8157C45.5601 22.8157 46.0592 22.9226 46.38 23.0296L44.7401 30.5873C43.9915 32.1915 42.4585 33.4749 41.1752 33.4749C40.3909 33.4749 39.6422 33.2254 39.6422 31.3003C39.6422 29.1613 40.2839 26.1311 41.6386 24.4912C42.8863 23.1009 43.8132 22.8157 45.1323 22.8157ZM15.2223 20.2846C15.2579 20.5341 15.2579 20.7837 15.2579 21.0332C15.2579 24.4912 13.9746 29.6248 12.0495 31.7637C11.0513 32.8689 9.80357 33.4036 8.34193 33.4036C5.84647 33.4036 4.67003 32.0846 4.67003 29.2683C4.67003 25.6677 5.88211 21.3541 7.52199 19.2507C8.55583 17.9317 10.0888 17.1474 11.7286 17.1474C12.1208 17.1474 12.4773 17.1831 12.8338 17.2544C12.6912 17.0761 12.5486 16.9335 12.406 16.7553C11.1582 15.5075 9.51837 14.8658 7.87849 14.8302C6.9516 15.258 6.20296 15.7927 5.59692 16.3275C3.2084 18.3239 0.427734 22.7444 0.427734 28.6622C0.427734 33.7958 3.03015 36.6121 7.70024 36.6121C9.80357 36.6121 11.5147 36.1486 13.2259 35.1504C16.9691 32.9402 19.6072 27.4145 19.6072 21.7106C19.6072 16.7909 16.9691 13.9746 12.3703 13.9746C11.4791 13.9746 10.6948 14.0459 10.0175 14.1885C11.1939 14.545 12.2634 15.1867 13.1546 16.0779C14.0102 16.9335 14.6519 17.9674 15.0084 19.0725C15.1153 19.3933 15.2223 19.7498 15.2579 20.142L15.2223 20.2846Z" fill="#58585F"/>
<path d="M52.8326 2.03213C55.7915 2.95902 57.6096 6.02488 56.9323 9.01944V9.16204C56.6827 10.1246 56.4688 11.1228 56.3262 12.0853C55.8628 15.1155 55.9341 18.1457 56.4688 20.9264C56.861 22.8158 56.7897 24.8122 56.1836 26.666C56.148 26.7729 56.1123 26.8799 56.0767 26.9512V27.0225C56.0767 27.0581 56.041 27.0581 56.041 27.0938C55.3637 28.9475 54.2229 30.6231 52.7613 31.9064C52.7256 31.9064 52.7256 31.9421 52.7256 31.9777C54.2229 31.1578 55.5419 29.9814 56.5758 28.4841C56.7184 28.1632 56.861 27.878 56.9679 27.5572C57.0036 27.5216 57.0036 27.4859 57.0036 27.4503C57.0392 27.379 57.0392 27.3433 57.0392 27.272C57.0749 27.1651 57.1105 27.0581 57.1462 26.9868C57.7879 24.9548 57.8948 22.7802 57.4314 20.7125C56.9323 18.0744 56.861 15.1512 57.2888 12.2279C57.4314 11.2654 57.6453 10.2672 57.8948 9.30464V9.16204C58.6078 5.66838 56.5401 2.13908 53.0821 1.06959C49.6241 0.000103891 45.8809 1.74693 44.5262 5.06234C44.5262 5.09799 44.5262 5.09799 44.4906 5.13364C44.1341 6.13183 43.7419 7.02306 43.3141 7.9143C42.1377 10.3385 40.6048 12.5844 38.8579 14.3669L38.7866 14.4382L38.7154 14.5095L38.6797 14.5451C38.5728 14.6521 38.4658 14.7234 38.3589 14.8303C38.2876 14.9016 38.2519 15.0086 38.2163 15.0799L40.1413 14.4382C41.7456 12.6557 43.1359 10.588 44.2767 8.2708C44.7045 7.37956 45.0966 6.45267 45.4888 5.41883V5.38318C46.6652 2.63817 49.8737 1.10524 52.8326 2.03213ZM8.34194 33.4394C5.84647 33.4394 4.67004 32.1203 4.67004 29.304C4.67004 25.7034 5.88212 21.3898 7.522 19.2865C8.55584 17.9675 10.0888 17.1832 11.7286 17.1832C12.1208 17.1832 12.4773 17.2188 12.8338 17.2901C12.6912 17.1119 12.5486 16.9693 12.406 16.791C11.1583 15.5433 9.51837 14.9016 7.84284 14.8303C6.91596 15.2581 6.16732 15.7929 5.56127 16.3276C3.17275 18.324 0.39209 22.7445 0.39209 28.6623C0.39209 33.7959 2.99451 36.6122 7.6646 36.6122C9.76792 36.6122 11.4791 36.1487 13.1903 35.1506L8.34194 33.4394ZM3.2797 49.6599C3.52925 49.6956 3.8501 49.8025 4.13529 49.9451C4.59874 50.159 4.84828 50.3729 4.99088 50.6225C5.09783 50.8364 5.09783 51.0859 4.99088 51.3711C4.81263 51.7989 4.38484 51.9771 3.99269 51.9415C4.20659 52.1554 4.24224 52.4406 4.17094 52.8327C4.06399 53.3318 4.02834 53.6883 4.02834 53.8309L3.60055 53.6527C3.60055 53.5457 3.6362 53.2249 3.74315 52.7614C3.8501 52.2623 3.74315 52.0128 3.351 51.8345L2.95886 51.6563L2.31717 53.0823L1.88937 52.904L3.2797 49.6599ZM3.06581 51.3711L3.4936 51.5493C3.95704 51.7632 4.34919 51.6206 4.52744 51.2641C4.70568 50.8364 4.49179 50.5155 4.02834 50.3373C3.81445 50.2303 3.67185 50.1947 3.60055 50.1947L3.06581 51.3711ZM6.63076 54.0805C6.52381 54.33 6.45251 54.5439 6.41686 54.7578L6.02472 54.6152L6.13167 54.2231C5.95342 54.3657 5.59692 54.5439 5.16913 54.3657C4.77698 54.2231 4.42049 53.8309 4.70568 53.011L5.24043 51.585L5.66822 51.7632L5.16913 53.1179C4.99088 53.5814 5.02653 53.9379 5.41868 54.0805C5.70387 54.1874 5.98907 54.0448 6.16732 53.9022C6.20297 53.8666 6.27426 53.7596 6.27426 53.6883L6.80901 52.191L7.2368 52.3693L6.63076 54.0805ZM7.0942 54.4726C7.20115 54.6152 7.41505 54.7578 7.62895 54.8291C7.94979 54.9361 8.16369 54.8291 8.23499 54.6152C8.30629 54.4013 8.19934 54.2587 7.91414 54.0092C7.522 53.6883 7.3794 53.4031 7.48635 53.1179C7.62895 52.7258 8.05674 52.5119 8.55584 52.6545C8.80538 52.7258 9.01928 52.8684 9.12623 53.011L8.91233 53.2962C8.84103 53.2249 8.69843 53.0823 8.44889 53.011C8.19934 52.9397 7.98544 53.0466 7.94979 53.2249C7.87849 53.4388 7.98544 53.5814 8.27064 53.7953C8.62713 54.0805 8.80538 54.3657 8.69843 54.7578C8.55584 55.1856 8.12804 55.3995 7.55765 55.2212C7.27245 55.1499 7.05856 54.9717 6.91596 54.8291L7.0942 54.4726ZM8.98363 55.043C9.09058 55.1499 9.30448 55.3282 9.55402 55.3995C9.87487 55.5064 10.0888 55.3638 10.1244 55.15C10.1957 54.9361 10.0888 54.7935 9.80357 54.5796C9.41142 54.2944 9.26883 53.9735 9.34013 53.6883C9.44707 53.2962 9.87487 53.0466 10.4096 53.1892C10.6592 53.2605 10.8731 53.4031 10.98 53.5101L10.7661 53.7953C10.6948 53.724 10.5166 53.5814 10.3027 53.5101C10.0175 53.4388 9.83922 53.5457 9.80357 53.724C9.73227 53.9379 9.87487 54.0805 10.1601 54.2944C10.5522 54.5796 10.6948 54.8648 10.6235 55.2212C10.5166 55.649 10.0531 55.8629 9.48272 55.7203C9.19753 55.649 8.98363 55.5064 8.84103 55.3638L8.98363 55.043ZM10.8374 56.0412L11.4434 53.5457L11.9069 53.6527L11.2652 56.1481L10.8374 56.0412ZM11.7643 53.1179C11.586 53.0823 11.5147 52.904 11.5504 52.7614C11.586 52.5832 11.7286 52.5119 11.9069 52.5475C12.0851 52.5832 12.1564 52.7614 12.1208 52.904C12.1208 53.0823 11.9782 53.1892 11.7643 53.1179ZM13.7963 56.1125C13.7607 56.3264 13.725 56.5403 13.6894 56.7185L13.2616 56.6116L13.2972 56.2907C13.119 56.469 12.7981 56.5759 12.4416 56.5046C11.9425 56.3977 11.7286 55.9699 11.8356 55.6134C11.9782 55.0073 12.5842 54.7935 13.5468 55.0074V54.9717C13.5824 54.7578 13.6181 54.3657 13.0833 54.2587C12.8338 54.2231 12.5842 54.2231 12.3703 54.2944L12.3347 53.9735C12.5842 53.9022 12.9051 53.8666 13.2259 53.9379C14.0102 54.1161 14.0815 54.6865 13.9746 55.1856L13.7963 56.1125ZM13.5111 55.3282C13.012 55.2212 12.406 55.1856 12.299 55.649C12.2277 55.9699 12.406 56.1481 12.6199 56.1838C12.9407 56.2551 13.2259 56.0768 13.3329 55.8986C13.3685 55.8629 13.3685 55.7916 13.3685 55.756L13.5111 55.3282ZM14.6163 54.9717C14.6519 54.6865 14.6876 54.5083 14.7232 54.2944L15.151 54.3657L15.1154 54.7935C15.2936 54.5796 15.6144 54.4013 16.0422 54.4726C16.3987 54.5439 16.8978 54.8291 16.7552 55.7203L16.5057 57.2533L16.0422 57.182L16.2918 55.7203C16.3631 55.2925 16.2561 54.9361 15.8283 54.8648C15.5431 54.8291 15.2579 54.9717 15.1154 55.2212C15.0797 55.2925 15.0441 55.3638 15.0441 55.4351L14.7945 56.9681L14.3311 56.8968L14.6163 54.9717ZM18.9655 53.9022L18.7873 55.3995L20.5341 55.5777L20.7123 54.0805L21.1758 54.1161L20.7836 57.6811L20.3202 57.6454L20.4984 55.9699L18.7516 55.7916L18.5734 57.4672L18.1099 57.4315L18.5021 53.8666L18.9655 53.9022ZM22.4592 57.9306C21.7818 57.895 21.2471 57.3246 21.3184 56.5046C21.3897 55.649 21.9957 55.1856 22.7087 55.2212C23.4573 55.2569 23.9208 55.8273 23.8495 56.6116C23.7782 57.5741 23.0652 57.9663 22.4592 57.9306ZM22.4948 57.5741C22.9583 57.6098 23.3147 57.2176 23.3504 56.6116C23.386 56.1838 23.2078 55.6134 22.6374 55.5777C22.1027 55.5421 21.8175 56.0412 21.7818 56.5403C21.7462 57.075 22.0314 57.5385 22.4948 57.5741ZM24.1703 57.4672C24.3129 57.5741 24.5625 57.6454 24.7764 57.6811C25.0972 57.6811 25.2755 57.5385 25.2755 57.3246C25.2755 57.1107 25.1685 56.9681 24.812 56.8255C24.3486 56.6472 24.1347 56.3977 24.1347 56.0768C24.1347 55.649 24.4912 55.3282 25.0616 55.3638C25.3111 55.3638 25.5607 55.4351 25.7033 55.5421L25.5963 55.8629C25.4894 55.7916 25.3111 55.7203 25.0616 55.6847C24.7764 55.6847 24.6338 55.8273 24.6338 56.0055C24.6338 56.2194 24.7764 56.3264 25.0972 56.469C25.525 56.6472 25.7746 56.8968 25.7389 57.2889C25.7389 57.7524 25.3468 58.0732 24.7407 58.0376C24.4555 58.0376 24.206 57.9306 24.0277 57.8237L24.1703 57.4672ZM26.2024 56.2551V55.3995H26.6302L26.6658 55.8273C26.844 55.5064 27.1649 55.3282 27.5927 55.3282C28.2344 55.3282 28.6978 55.8629 28.6978 56.6472C28.6978 57.5741 28.1274 58.0376 27.5214 58.0376C27.1649 58.0376 26.8797 57.895 26.7371 57.6098V59.0001H26.2737L26.2024 56.2551ZM26.6658 56.9681C26.6658 57.0394 26.6658 57.1107 26.7015 57.1463C26.7728 57.4672 27.0579 57.7167 27.4144 57.7167C27.9135 57.7167 28.1987 57.3246 28.1987 56.7185C28.1987 56.1838 27.9492 55.756 27.4501 55.756C27.1292 55.756 26.8084 55.9699 26.7371 56.3264C26.7371 56.3977 26.7015 56.469 26.7015 56.5046L26.6658 56.9681ZM29.2682 54.9361C29.09 54.9361 28.983 54.7935 28.983 54.6509C28.983 54.4726 29.09 54.3657 29.2682 54.33C29.4465 54.33 29.5891 54.4726 29.5891 54.6152C29.5534 54.7935 29.4465 54.9361 29.2682 54.9361ZM29.1256 58.0019L29.0543 55.3995H29.5178L29.5891 58.0019H29.1256ZM30.6229 54.7222L30.6586 55.3282L31.3359 55.2925V55.649L30.6586 55.6847L30.7299 57.075C30.7299 57.3959 30.8368 57.5741 31.122 57.5741C31.2646 57.5741 31.3359 57.5385 31.4072 57.5385L31.4428 57.895C31.3359 57.9306 31.1933 57.9663 31.015 57.9663C30.8012 57.9663 30.6229 57.895 30.516 57.788C30.3734 57.6454 30.3021 57.4315 30.3021 57.1107L30.2308 55.6847L29.8386 55.7203V55.3638L30.2308 55.3282L30.1951 54.8648L30.6229 54.7222ZM33.6175 57.1463C33.6175 57.3602 33.6531 57.5741 33.6888 57.7524L33.261 57.788L33.1897 57.4672C33.0827 57.6811 32.7975 57.895 32.441 57.895C31.9063 57.9306 31.6211 57.5741 31.5854 57.2176C31.5498 56.5759 32.0845 56.2194 33.0827 56.1481V56.1125C33.0827 55.8986 32.9758 55.5064 32.441 55.5421C32.1915 55.5777 31.9419 55.649 31.7637 55.7916L31.6211 55.4708C31.835 55.3282 32.1202 55.2212 32.441 55.1856C33.2253 55.1143 33.4749 55.649 33.5105 56.1838L33.6175 57.1463ZM33.1184 56.469C32.6193 56.5046 32.0489 56.6472 32.0845 57.1463C32.1202 57.4672 32.3341 57.5741 32.548 57.5741C32.9045 57.5385 33.0827 57.3246 33.154 57.1107V56.9681L33.1184 56.469ZM33.9383 53.9022L34.4018 53.8666L34.7939 57.6454L34.3305 57.6811L33.9383 53.9022ZM35.293 54.5083C35.1147 54.5439 34.9721 54.4013 34.9721 54.2231C34.9365 54.0448 35.0434 53.9022 35.2573 53.9022C35.4356 53.8666 35.5782 54.0092 35.5782 54.1518C35.5782 54.33 35.4712 54.4726 35.293 54.5083ZM35.3999 57.5741L35.1147 55.0074L35.5782 54.9361L35.8634 57.5028L35.3999 57.5741ZM36.6477 54.1874L36.719 54.7935L37.3963 54.6865L37.432 55.043L36.7546 55.15L36.9329 56.5403C36.9685 56.8611 37.0755 57.0394 37.3607 57.0037C37.5033 57.0037 37.5746 56.9681 37.6102 56.9324L37.6815 57.2889C37.6102 57.3246 37.4676 57.3959 37.2894 57.3959C37.0755 57.4315 36.8972 57.3602 36.7546 57.2533C36.612 57.1107 36.5407 56.8968 36.4694 56.6116L36.2912 55.2212L35.899 55.2925L35.8634 54.9361L36.2555 54.8648L36.1842 54.4013L36.6477 54.1874Z" fill="#58585F"/>
<path d="M37.9311 54.6151L38.7511 56.0411C38.858 56.1837 38.9293 56.3976 39.0006 56.5402C39.0363 56.3619 39.0363 56.1837 39.0719 55.9698L39.3215 54.4012L39.8206 54.3299L39.4284 56.255C39.2502 57.1818 39.1076 57.6809 38.8224 58.0018C38.6085 58.2513 38.4302 58.3583 38.2876 58.3939L38.1094 58.0374C38.2163 58.0018 38.3589 57.8948 38.4659 57.7522C38.5728 57.6453 38.7154 57.4314 38.7511 57.1818C38.7511 57.1462 38.7867 57.1105 38.7867 57.0749C38.7867 57.0392 38.7511 57.0036 38.7154 56.9679L37.3964 54.7577L37.9311 54.6151ZM41.2465 52.9752L41.9952 56.5045L41.5317 56.6115L40.7831 53.0821L41.2465 52.9752ZM42.1734 54.5438C42.1021 54.2942 42.0665 54.0803 41.9952 53.8664L42.3873 53.7595L42.5299 54.1516C42.6012 53.9021 42.8151 53.5812 43.2429 53.4743C43.5994 53.403 44.1698 53.4743 44.3837 54.3299L44.7402 55.8272L44.2768 55.9341L43.9203 54.4725C43.8133 54.0803 43.5994 53.7595 43.136 53.8664C42.8508 53.9377 42.6725 54.2229 42.6369 54.4725C42.6369 54.5438 42.6369 54.6151 42.6725 54.6864L43.0647 56.2193L42.6012 56.3263L42.1734 54.5438ZM45.168 55.2211C45.3462 55.2568 45.5958 55.2924 45.8097 55.2211C46.1305 55.1142 46.2375 54.9359 46.1662 54.722C46.0949 54.5081 45.9523 54.4368 45.5601 54.4012C45.061 54.3655 44.7758 54.1873 44.7045 53.9021C44.5976 53.5099 44.8115 53.0821 45.3462 52.9395C45.5958 52.8682 45.8453 52.8683 45.9879 52.9039V53.2604C45.881 53.2247 45.6671 53.1891 45.4532 53.2604C45.2036 53.3317 45.0967 53.5456 45.1323 53.7238C45.2036 53.9377 45.3819 53.9734 45.7384 54.009C46.2018 54.0447 46.487 54.1873 46.594 54.5794C46.7366 55.0072 46.487 55.435 45.881 55.6133C45.5958 55.6846 45.3462 55.6846 45.1323 55.6489L45.168 55.2211ZM46.5583 52.1196C46.3801 52.1909 46.2375 52.084 46.1662 51.9057C46.1305 51.7631 46.2018 51.5849 46.3801 51.5136C46.5583 51.4423 46.7009 51.5492 46.7722 51.6918C46.8079 51.8701 46.7366 52.0483 46.5583 52.1196ZM47.2713 55.0785L46.487 52.6187L46.9505 52.4761L47.7348 54.9359L47.2713 55.0785ZM49.1251 50.4084L50.1946 53.3317C50.2659 53.5456 50.3728 53.7951 50.4441 53.9377L50.052 54.0803L49.8737 53.6525C49.8381 53.9734 49.6242 54.2942 49.232 54.4368C48.6616 54.6507 48.02 54.3299 47.7348 53.5812C47.4139 52.7613 47.7704 52.084 48.3408 51.8701C48.7329 51.7275 49.0181 51.7988 49.1964 51.977L48.6617 50.5154L49.1251 50.4084ZM49.4459 52.69C49.4103 52.6187 49.3746 52.5474 49.339 52.5118C49.1607 52.2622 48.8399 52.1196 48.5191 52.2266C48.0556 52.4048 47.9487 52.9039 48.1269 53.4386C48.3052 53.9377 48.6973 54.2586 49.1607 54.0803C49.4459 53.9734 49.6598 53.6525 49.6242 53.3317C49.6242 53.2604 49.5885 53.1891 49.5885 53.1178L49.4459 52.69ZM50.8006 52.5118C51.0502 53.0821 51.5493 53.1534 51.9771 52.9752C52.2979 52.8326 52.4405 52.69 52.5831 52.5831L52.797 52.8683C52.69 53.0108 52.4405 53.1891 52.084 53.3673C51.371 53.6882 50.6937 53.403 50.4085 52.69C50.0876 51.977 50.2659 51.2284 50.9789 50.9075C51.7632 50.551 52.2623 51.1571 52.4405 51.5849C52.4762 51.6562 52.5118 51.7275 52.5118 51.7988L50.8006 52.5118ZM51.9058 51.6562C51.7988 51.371 51.478 51.0145 51.0145 51.2284C50.5867 51.4066 50.5511 51.9057 50.658 52.2266L51.9058 51.6562ZM52.5831 51.0858C52.4405 50.8006 52.3336 50.5867 52.191 50.3728L52.5475 50.1945L52.797 50.6223C52.7613 50.2658 52.9039 49.945 53.1891 49.8024C53.2248 49.7667 53.2604 49.7667 53.2961 49.7667L53.4743 50.1589C53.4387 50.1945 53.3674 50.1945 53.3317 50.2302C53.0465 50.3728 52.9396 50.6936 53.0465 51.0501C53.0822 51.1214 53.0822 51.1927 53.1178 51.264L53.7239 52.5118L53.2961 52.7257L52.5831 51.0858ZM10.4097 42.6012H9.16195V46.5226H8.09247V42.6012H6.80908V41.8169H10.5879L10.4097 42.6012ZM15.365 46.5226H14.2955V41.8169H16.2562C16.6127 41.8169 17.0049 41.8882 17.3613 42.1734C17.7178 42.4942 17.7891 42.8864 17.7891 43.1716C17.7891 43.7776 17.4683 44.1341 17.1475 44.3124C16.9692 44.4193 16.791 44.455 16.6127 44.455C16.6484 44.4906 16.7197 44.5263 16.8266 44.6689C16.9336 44.8115 17.1475 45.061 18.0743 46.487H16.8623C16.7197 46.3087 16.7197 46.2374 16.6127 46.0948C16.5414 45.9879 16.5414 45.9879 16.3632 45.7027C15.9354 44.9897 15.7928 44.7758 15.6858 44.6689C15.6502 44.6332 15.5789 44.5976 15.5076 44.5619C15.4363 44.5263 15.365 44.5263 15.3293 44.5263V46.5226H15.365ZM15.7215 43.8489C16.0067 43.8489 16.3275 43.8489 16.5058 43.7063C16.6127 43.635 16.7197 43.4568 16.7197 43.2429C16.7197 43.0646 16.684 42.7794 16.3632 42.6725C16.1849 42.6012 15.9354 42.6012 15.7571 42.6012H15.4006V43.8846L15.7215 43.8489ZM24.8121 46.5226L24.4556 45.4175H22.9227L22.5662 46.5226H21.461L23.1722 41.8169H24.313L25.9529 46.5226H24.8121ZM24.1704 44.5976C23.9922 44.1341 23.9565 43.8846 23.8852 43.635C23.8139 43.3855 23.7783 43.2785 23.6713 42.8151C23.6 43.1003 23.4931 43.4924 23.4218 43.7063C23.2792 44.1341 23.2435 44.348 23.1366 44.5976H24.1704ZM31.5499 46.5583H30.5873L28.8405 41.8169H29.9813L30.8369 44.2767C30.8725 44.4193 30.9438 44.6332 31.0864 45.0967C31.1577 44.7402 31.2647 44.4906 31.3716 44.1698L32.2629 41.8525H33.368L31.5499 46.5583ZM37.0755 46.5226V41.8169H40.0345L39.8919 42.6012H38.1094V43.7063H39.6067V44.4906H38.145V45.7383H40.1058V46.5583L37.0755 46.5226ZM46.8435 46.5226H44.0985V41.8169H45.168V45.7383H47.0218L46.8435 46.5226Z" fill="#58585F"/>
</svg>
