<svg width="82" height="50" viewBox="0 0 82 50" fill="none" xmlns="http://www.w3.org/2000/svg">
<g clip-path="url(#clip0)">
<path d="M80.8066 5.18115H42.2189V44.8189H82V5.18115H80.8066ZM79.6132 42.4404H44.6055V7.55931H79.6132V42.4404ZM10.7476 28.0255C10.413 28.0255 10.154 28.2934 9.97784 28.8222C9.79358 29.3735 9.70038 30.1011 9.70038 30.985C9.70038 31.8471 9.79546 32.5749 9.98261 33.1484C10.163 33.6993 10.4204 33.9789 10.7476 33.9789C11.0883 33.9789 11.3525 33.7034 11.5325 33.1599C11.7203 32.5924 11.8153 31.8535 11.8153 30.9625C11.8153 30.0407 11.734 29.3247 11.5735 28.833C11.3974 28.2898 11.127 28.0255 10.7476 28.0255ZM33.3826 16.5096C33.2181 16.2662 32.9456 16.1479 32.5502 16.1479H31.9949L31.9577 17.6398H33.6695C33.6088 17.1034 33.5148 16.7117 33.3827 16.5097L33.3826 16.5096ZM13.3312 15.9573C12.9608 15.9573 12.6855 16.2117 12.4898 16.735C12.2848 17.2823 12.1806 18.0053 12.1806 18.884C12.1806 19.7403 12.2865 20.4636 12.4954 21.0335C12.6955 21.5792 12.969 21.8443 13.3312 21.8443C13.7095 21.8443 13.9902 21.5827 14.1902 21.0447C14.3994 20.4814 14.5052 19.7468 14.5052 18.8612C14.5052 17.9445 14.4147 17.2327 14.236 16.7451C14.0431 16.2149 13.7471 15.9573 13.3312 15.9573ZM5.05696 28.1313H5.00037V30.5631C5.00037 30.9422 5.05445 31.2359 5.16136 31.4366C5.26248 31.6258 5.37919 31.7173 5.51805 31.7173C5.66105 31.7173 5.78947 31.6108 5.89939 31.399C6.01712 31.1723 6.07673 30.843 6.07673 30.4203C6.07673 29.6239 5.9824 29.033 5.79676 28.6639C5.6159 28.3052 5.37391 28.1313 5.05696 28.1313Z" fill="#585960"/>
<path d="M-0.00012207 5.21094V44.7766H39.7062V5.21094H-0.00012207ZM3.64742 14.7665H8.61697V23.0779H7.08254V16.148H5.18173V23.0779H3.6473V14.7664L3.64742 14.7665ZM6.98984 32.408C6.69805 32.8789 6.32035 33.1179 5.86707 33.1179C5.55188 33.1179 5.26436 32.9803 5.00049 32.7494V35.146H3.63799V26.9003H5.06011C5.99397 26.9003 6.67629 27.3358 7.08757 28.1935C7.34893 28.7354 7.48149 29.3695 7.48149 30.0775C7.48149 31.095 7.31597 31.879 6.98972 32.408H6.98984ZM12.567 34.0661C12.1336 34.8951 11.5219 35.3154 10.7493 35.3154C9.98878 35.3154 9.4028 34.9138 9.00749 34.1221C8.61923 33.3451 8.4224 32.2856 8.4224 30.9739C8.4224 29.7074 8.62804 28.6692 9.03365 27.8877C9.44619 27.0922 10.0235 26.6891 10.7492 26.6891C11.5147 26.6891 12.119 27.09 12.546 27.8804H12.5461C12.9653 28.6583 13.1778 29.6954 13.1778 30.9625C13.1778 32.245 12.9721 33.2892 12.567 34.0661ZM11.3664 22.0395C10.9307 21.2573 10.7096 20.1918 10.7096 18.8728C10.7096 17.5979 10.9405 16.553 11.3957 15.7676C11.8605 14.963 12.5107 14.5551 13.3283 14.5551C14.1898 14.5551 14.8707 14.9605 15.3515 15.76C15.8223 16.5435 16.0611 17.5869 16.0611 18.8612C16.0611 20.1506 15.8302 21.2012 15.375 21.9843C14.887 22.8222 14.1984 23.2471 13.3283 23.2471C12.4725 23.2471 11.8124 22.8407 11.3664 22.0395ZM18.3766 35.3998H18.3102C17.0289 35.3998 16.0083 34.9789 15.2765 34.1502C14.5809 33.3617 14.2281 32.3186 14.2281 31.0501C14.2281 29.7369 14.5531 28.6907 15.1939 27.94C15.8989 27.1103 16.9405 26.6892 18.2898 26.6892H18.3561V28.1315H18.2898C17.4245 28.1315 16.7557 28.4135 16.3023 28.97C15.8862 29.4782 15.6752 30.1744 15.6752 31.0389C15.6752 31.8818 15.8966 32.5778 16.333 33.108C16.7998 33.6719 17.465 33.9577 18.3102 33.9577H18.3766V35.3998ZM17.7496 17.1402V14.7667H19.2843V16.9829C19.2843 17.1744 19.3411 17.32 19.4586 17.4292C19.6209 17.5833 19.8777 17.6614 20.2222 17.6614H21.0576V14.7664H22.5922V23.0779H21.0576V19.0634H19.9363C19.3359 19.0634 18.8172 18.879 18.3944 18.5157C17.9666 18.149 17.7496 17.6862 17.7496 17.14V17.1402ZM23.5169 35.3998H23.4506C22.1693 35.3998 21.1487 34.9789 20.417 34.1502C19.7215 33.3617 19.3686 32.3186 19.3686 31.0501C19.3686 29.7369 19.6937 28.6907 20.3347 27.94C21.0393 27.1103 22.0807 26.6892 23.4303 26.6892H23.4966V28.1315H23.4303C22.5651 28.1315 21.8966 28.4135 21.4431 28.97C21.0267 29.4782 20.8157 30.1744 20.8157 31.0389C20.8157 31.8809 21.0371 32.5772 21.4735 33.108C21.9402 33.6719 22.6057 33.9577 23.4506 33.9577H23.5169V35.3998ZM24.4278 14.7667H28.528V16.1481H27.2345V23.0779H25.7001V16.148H24.4278V14.7665V14.7667ZM28.3069 35.1519L28.1126 29.7055L26.1681 31.7572V35.1518H24.8271V26.8878H26.1682V29.7948C26.3801 29.574 29.2347 26.604 29.2347 26.604L29.3429 26.4916L29.6733 35.1516H28.3069V35.1519ZM30.5299 14.7667H32.8035C33.4627 14.7667 33.9933 14.9216 34.381 15.2265C34.8677 15.6046 35.1147 16.2059 35.1141 17.0023L35.8223 23.0779L34.2766 23.0787L33.846 19.0225C33.6901 19.0225 32.0973 19.0215 31.9305 19.0213L31.7821 23.078H30.2477L30.5299 14.7667ZM34.7043 35.1519L34.51 29.7055L32.5658 31.7572V35.1518H31.2247V26.8878H32.5658V29.7948C32.7777 29.574 35.6321 26.604 35.6321 26.604L35.7403 26.4916L36.0708 35.1516H34.7043V35.1519ZM54.2847 18.0043C54.579 18.6522 55.0622 19.3159 56.3763 20.211C56.6702 20.4118 56.9949 20.8288 56.7473 21.4151C56.4995 22.0019 56.0349 22.835 56.3134 23.1587C56.5924 23.4837 57.5833 23.6529 58.3886 23.3292C58.3886 23.3292 58.5592 23.8382 58.854 24.1621C58.854 24.1621 58.7144 24.4403 58.2499 24.3016C58.2499 24.3016 58.4205 24.7179 58.188 25.1654C58.188 25.1654 57.6462 25.0732 57.4133 24.5783C57.4133 24.5783 57.1963 24.9652 56.7633 25.1031C56.7633 25.1031 56.4063 24.9185 56.4842 24.2087C56.4842 24.2087 56.2209 24.8416 55.4151 24.9491C55.4151 24.9491 54.9509 24.363 55.555 23.5753C55.555 23.5753 55.1207 23.9621 54.3312 23.7766C54.3312 23.7766 54.2067 23.3755 54.9197 22.8189C54.9197 22.8189 54.1135 22.7889 53.8041 22.1095C53.8041 22.1095 54.1449 21.6928 54.9811 21.7858C54.9811 21.7858 54.2068 21.6155 54.037 20.6897C54.037 20.6897 54.5944 20.3348 55.4778 20.9053C55.4778 20.9053 55.3228 20.6124 54.9509 20.3194C54.579 20.026 54.1296 19.2075 54.2847 18.0043ZM57.526 27.3132C57.418 27.1714 57.3275 27.0171 57.2563 26.8538C57.3944 27.9768 57.445 28.7342 58.0532 29.4614C58.0532 29.4614 58.4205 28.974 58.1834 27.7918C58.0669 27.7583 57.9564 27.7071 57.8557 27.6398C57.8557 27.6398 57.9947 28.1196 57.9081 28.6037C57.9081 28.6037 57.688 28.4444 57.5261 27.3132H57.526ZM56.4732 27.1968C56.4009 27.1054 56.2612 26.9126 56.1875 26.7745C56.1364 27.4266 55.964 29.1431 56.5409 29.68C56.5409 29.68 56.9365 29.3917 57.0762 26.8889C56.9924 27.0289 56.846 27.1774 56.7741 27.2586C56.7741 27.2586 56.8702 28.0531 56.5842 28.613C56.5842 28.613 56.2975 28.3967 56.4731 27.1968H56.4732ZM55.0985 28.5089C55.584 27.9301 55.7289 26.1967 55.7289 26.1967C55.7981 26.1504 55.8653 26.1012 55.9303 26.0492C55.9586 26.0267 55.9854 26.0037 56.0108 25.9795C56.0102 26.0427 56.0128 26.1077 56.019 26.1732C55.949 27.2164 55.8664 28.2919 55.5395 28.8271C55.2192 29.3515 54.6313 29.624 54.6313 29.624C54.0788 28.6453 54.746 27.3314 55.3046 26.4188C55.3731 26.3925 55.4427 26.3609 55.5133 26.3248C55.3174 27.0276 54.946 27.863 55.0985 28.5089ZM53.7295 25.499C53.7267 25.5838 53.7376 25.6686 53.7617 25.7499C53.7679 25.7685 53.7752 25.7939 53.788 25.8199C53.3254 26.2732 52.983 26.7045 52.2976 27.654C51.6109 28.6037 50.5251 28.6414 50.5251 28.6414C50.6297 27.8731 50.8395 27.265 51.4199 26.6099C52.0014 25.9547 52.7444 25.357 53.2918 24.9596C53.4321 25.0248 53.6156 25.0654 53.8477 25.038C53.8651 25.036 53.8826 25.0337 53.9014 25.0311C53.8359 25.1138 53.7874 25.2087 53.7589 25.3103C53.3448 25.5465 52.145 26.1537 51.6585 27.1319C51.6585 27.1319 52.4182 26.8944 53.7295 25.4989V25.499ZM52.868 24.5419L52.9137 24.461C52.9285 24.4347 52.9447 24.4102 52.9623 24.3864C52.5163 24.5596 50.9251 25.1578 50.4107 25.4228C49.8966 25.6892 49.1516 26.2938 48.7475 27.5194C48.7475 27.5194 49.8204 27.6159 50.7063 26.8854C51.5919 26.1537 52.6238 25.1343 53.0648 24.8096C53.0275 24.7749 52.9933 24.7372 52.9623 24.6968C52.9623 24.6968 51.7638 25.7553 50.4963 26.2115C50.4963 26.2115 50.7674 25.7217 51.2684 25.3658C51.8778 24.9333 52.3344 24.7881 52.868 24.5419ZM51.9591 23.8202C51.9759 23.7776 51.994 23.7375 52.0122 23.6983C51.4872 23.8054 50.1752 23.9612 49.5886 24.1403C49.0032 24.3192 47.9429 24.747 47.3141 25.9418C47.3141 25.9418 48.2378 26.2263 49.98 25.4087C51.7213 24.5917 52.2674 24.4233 52.6003 24.3363C52.3344 24.3166 52.147 24.2272 52.0493 24.1677C51.3548 24.475 50.4251 24.841 49.5032 24.864C49.5032 24.864 49.9591 24.5432 50.4359 24.3435C50.9548 24.1266 51.5256 23.9302 51.959 23.8202H51.9591ZM52.0026 22.9591C52.1733 23.0392 52.3042 23.079 52.5266 23.1027C52.3959 23.1857 52.2808 23.2908 52.1865 23.4134C51.5733 23.5896 50.5264 23.7823 48.8003 23.9068C47.0735 24.0309 46.1532 23.714 46.1532 23.714C46.7553 23.3481 47.714 22.9755 48.3633 22.8512C49.0113 22.7264 50.7143 22.7394 51.4611 22.6388C51.4699 22.6463 51.5612 22.7207 51.7066 22.809C51.079 22.8652 49.7411 22.9278 49.0501 23.2759C49.0501 23.2759 50.3251 23.4459 52.0026 22.9591ZM51.8739 21.9708C51.9606 21.9193 52.0659 21.869 52.1939 21.8209C51.3207 21.557 50.1197 21.1366 48.3156 21.0182C46.9903 20.9315 46.0342 21.007 45.54 21.1348C45.54 21.1348 46.7452 21.9818 48.1243 22.2808C49.5032 22.5799 50.623 22.3899 51.4416 22.3965C51.4958 22.3163 51.5563 22.2266 51.6522 22.136C50.6957 22.142 49.1027 21.8948 48.5326 21.7061C48.5326 21.7061 49.9215 21.4171 51.8739 21.9708ZM51.8692 20.9465C51.8739 20.9706 51.9754 21.4616 52.5465 21.7339C51.3207 21.1982 48.9022 20.8897 47.6032 20.3517C45.8463 19.625 45.5267 18.7169 45.5267 18.7169C47.0461 18.677 48.2754 19.0472 49.222 19.336C50.3312 19.6752 52.0195 20.3023 52.611 20.5653C52.3895 20.5743 52.147 20.6375 51.9424 20.7737C51.1166 20.4583 50.7326 20.3254 49.9831 20.1161C49.3923 19.9514 48.954 19.9187 48.5854 19.8833C48.5854 19.8833 49.1051 20.226 49.9625 20.5001C50.8117 20.7703 51.1797 20.8154 51.8692 20.9465ZM51.7759 19.6109C51.8254 19.6979 51.9704 19.9052 52.0277 19.9879C50.0867 19.6638 47.953 18.2014 47.2937 17.2956C46.6339 16.3888 46.8218 15.0352 46.8218 15.0352C47.461 15.1646 48.8521 16.3594 49.2117 16.718C49.5716 17.0765 50.6606 18.1316 51.4125 18.7213L51.6491 19.4011C51.0039 18.8844 50.237 18.3066 49.7605 17.9489C49.3932 17.6725 48.8432 17.2829 48.2975 17.0962C48.2975 17.0962 48.801 17.7501 49.2066 18.0676C49.6751 18.4369 50.153 18.7577 50.5444 18.9724C50.8929 19.1626 51.071 19.2712 51.7757 19.6109H51.7759Z" fill="#585960"/>
<path d="M57.249 25.0228C57.3081 24.9726 57.3589 24.9215 57.4013 24.8743C57.4915 24.9871 57.7899 25.3608 57.9371 25.7319C58.0496 26.0496 58.168 26.4809 58.2276 26.7288C58.2869 26.9756 58.4636 27.4883 58.5704 27.6654C58.5704 27.6654 58.0974 27.7243 57.7479 27.3177C57.4041 26.9173 57.2871 26.5161 57.2335 26.1027C57.1911 25.7794 57.2048 25.3322 57.249 25.0226V25.0228ZM56.5038 25.0847C56.5917 25.2017 56.6761 25.2496 56.6843 25.2539L56.7474 25.2866L56.8147 25.2653C56.8708 25.2472 56.9255 25.225 56.9783 25.199C57.0456 25.3895 57.0744 25.482 57.0918 25.6438C57.1147 25.8587 57.1569 26.1977 57.0757 26.4747C56.9771 26.812 56.7742 27.0177 56.6621 27.1484C56.6621 27.1484 56.3533 26.8091 56.2647 26.529C56.1721 26.2363 56.1392 25.8957 56.2531 25.547C56.3151 25.3586 56.4154 25.1841 56.5038 25.0846V25.0847ZM55.4384 25.117C55.7538 25.0747 55.9943 24.9606 56.1741 24.8288C56.2144 24.9398 56.276 25.0892 56.2303 25.3009C56.1837 25.5128 56.037 25.7475 55.825 25.917C55.5066 26.1701 55.079 26.4095 54.6077 26.3359C54.6077 26.3359 54.4997 25.984 55.4384 25.117ZM55.0812 24.5285C55.1193 24.8421 55.2698 25.0387 55.2819 25.0539C55.1716 25.1853 54.7738 25.8667 53.9433 25.7514C53.9433 25.7514 53.7188 25.2883 54.2716 24.9195C54.6469 24.6699 54.824 24.619 55.0812 24.5285ZM55.1536 23.9467C54.9325 24.0023 54.6446 24.0241 54.2921 23.9411L54.1968 23.919L54.1688 23.8266C53.7424 24.1736 53.2361 24.2307 53.0621 24.5428C53.0621 24.5428 53.2744 24.9358 53.8276 24.8699C54.3801 24.8043 54.7958 24.5468 55.0917 24.1772C55.103 24.1203 55.1269 24.0177 55.1536 23.9466V23.9467ZM54.1963 23.4594C54.2755 23.3437 54.3297 23.1636 54.4951 22.9817C54.1298 22.9192 53.7994 22.9142 53.3705 22.9953C52.8608 23.0915 52.3407 23.2112 52.0801 23.9838C52.0801 23.9838 52.4077 24.2618 53.002 24.141C53.5061 24.0382 53.9458 23.8217 54.1963 23.4594ZM53.9806 22.6208C53.8392 22.4998 53.7263 22.3491 53.6499 22.1797L53.6061 22.0837C53.1651 21.9037 52.7038 21.8117 52.254 21.9789C51.8035 22.1472 51.6838 22.3411 51.5698 22.5085C51.5698 22.5085 52.0691 22.9248 52.6441 22.9409C53.2193 22.9572 53.7497 22.7926 53.9806 22.6208ZM54.1136 21.717C54.1976 21.685 54.284 21.6599 54.3722 21.6422C54.1762 21.4705 53.9834 21.2097 53.89 20.818C53.6853 20.866 53.2027 20.866 52.9909 20.7848C52.7796 20.7042 52.3618 20.6988 52.0366 20.9145C52.0366 20.9145 52.1451 21.4819 52.8824 21.6765C53.5752 21.8592 53.833 21.812 54.1136 21.717ZM53.8485 20.6082L53.9458 20.5467C53.9585 20.5379 54.1239 20.4377 54.4056 20.4159C54.168 20.2393 53.6041 19.7679 53.2027 19.5418C52.7669 19.2977 52.0419 18.9746 51.6733 18.926C51.6733 18.926 52.0188 19.8313 52.4217 20.1955C52.8394 20.574 53.1322 20.7145 53.8485 20.6082ZM54.5935 20.1928C54.4172 19.9637 54.2781 19.6491 54.1755 19.2773C54.0914 18.9746 53.902 18.2239 53.7881 18.0293C53.6746 17.8343 53.2675 17.1533 52.4709 16.9429C52.4709 16.9429 52.2594 17.8289 52.66 18.5314C53.0054 19.1358 53.7134 19.7741 54.5935 20.1928ZM59.0106 24.3167C59.1105 24.4147 59.1853 24.4702 59.3631 24.5589C59.3631 24.5589 59.6175 25.0422 59.31 25.6255C59.0019 26.2092 58.7422 26.8053 58.6178 27.1351C58.6178 27.1351 58.452 27.1117 58.2687 26.1977C58.1445 25.5783 57.9875 25.4239 57.8235 25.2124C58.0015 25.3027 58.1471 25.3307 58.1587 25.3322L58.2822 25.353L58.3388 25.2433C58.4325 25.0638 58.4812 24.8642 58.4807 24.6618C58.4807 24.6063 58.4769 24.5546 58.4714 24.5079C58.7571 24.5147 58.9094 24.3708 58.9677 24.297C58.9723 24.29 58.9777 24.2842 58.9811 24.2782L59.0106 24.3167Z" fill="#585960"/>
<path d="M52.247 17.3147C52.2437 17.4077 52.2433 17.5007 52.2458 17.5937L52.2621 17.811C51.7926 17.2136 51.2295 16.4922 50.6923 15.8289C50.3238 15.3733 50.014 15.0981 49.6677 14.876C49.9591 15.7195 50.4802 16.3922 50.8499 16.7277C51.2187 17.0628 51.7525 17.6304 52.2733 17.9759L52.3239 18.1469C52.3657 18.3107 52.429 18.4683 52.5123 18.6156C52.6339 18.8286 52.7936 19.0389 52.9829 19.2409C52.8182 19.1605 52.6515 19.0844 52.4828 19.0125L52.3217 18.9459C50.8888 18.189 49.4669 16.6209 48.8916 15.5277C48.3164 14.4361 48.5553 13.1697 48.7084 12.4902C49.3584 13.0399 50.2956 14.1222 50.7035 14.7114C51.206 15.4336 51.8483 16.4574 52.247 17.2896V17.3147ZM72.3454 21.9708C72.2433 21.9115 72.1361 21.8614 72.0251 21.8209C72.8986 21.5569 74.0996 21.1366 75.9044 21.0182C77.2287 20.9314 78.1843 21.007 78.679 21.1347C78.679 21.1347 77.4738 21.9818 76.094 22.2808C74.7159 22.5798 73.5961 22.3898 72.7775 22.3965C72.7232 22.3163 72.663 22.2265 72.5669 22.1359C73.5235 22.1419 75.1166 21.8948 75.6861 21.7061C75.6861 21.7061 74.2976 21.4171 72.3454 21.9708ZM72.3493 20.9465C72.3454 20.9705 72.2437 21.4616 71.6727 21.7339C72.8986 21.1981 75.3168 20.8897 76.6161 20.3517C78.373 19.6249 78.6926 18.7168 78.6926 18.7168C77.1739 18.677 75.9429 19.0472 74.9972 19.3359C73.888 19.6752 72.1988 20.3023 71.6079 20.5652C71.8295 20.5743 72.072 20.6374 72.2761 20.7737C73.1032 20.4582 73.4867 20.3254 74.2359 20.1161C74.8267 19.9514 75.265 19.9187 75.6336 19.8832C75.6336 19.8832 75.1134 20.226 74.2566 20.5001C73.4066 20.7703 73.0396 20.8154 72.3493 20.9465ZM72.4427 19.6109C72.3928 19.6979 72.2478 19.9052 72.1914 19.9879C74.1325 19.6638 76.266 18.2014 76.9261 17.2955C77.5854 16.3888 77.3975 15.0352 77.3975 15.0352C76.7576 15.1645 75.3671 16.3594 75.0073 16.7179C74.6473 17.0765 73.5584 18.1316 72.8065 18.7212L72.5701 19.4011C73.2155 18.8844 73.9819 18.3065 74.4587 17.9489C74.8257 17.6725 75.3751 17.2829 75.9223 17.0961C75.9223 17.0961 75.4182 17.7501 75.0124 18.0675C74.5433 18.4369 74.0671 18.7577 73.6746 18.9724C73.3267 19.1626 73.1475 19.2711 72.4427 19.6109ZM71.972 17.3147C71.974 17.3989 71.9764 17.4937 71.9735 17.5937L71.9568 17.811C72.4264 17.2136 72.9898 16.4922 73.5269 15.8289C73.8955 15.3733 74.205 15.0981 74.5506 14.876C74.2601 15.7195 73.739 16.3922 73.3692 16.7277C73.0006 17.0628 72.4668 17.6304 71.946 17.9759L71.8954 18.1469C71.8535 18.3107 71.7902 18.4682 71.707 18.6156C71.5844 18.8286 71.4246 19.0389 71.2362 19.2409C71.4009 19.1604 71.5677 19.0843 71.7364 19.0125L71.8974 18.9459C73.3302 18.189 74.7522 16.6209 75.3276 15.5277C75.9022 14.4361 75.6647 13.1697 75.5109 12.4902C74.8601 13.0399 73.9235 14.1222 73.5147 14.7114C73.0125 15.4336 72.3707 16.4574 71.972 17.2896V17.3147ZM54.0788 25.9359C53.4878 26.5245 52.2425 27.8446 52.36 29.2778C52.36 29.2778 53.5168 28.9172 53.9929 28.072C54.4687 27.2268 54.7635 26.6974 54.9641 26.5065C54.8347 26.524 54.7065 26.5235 54.5817 26.504L54.4767 26.4869C54.1834 27.0188 53.602 27.8916 53.0782 28.1956C53.0782 28.1956 52.9447 27.4893 54.4834 26.0573C54.5055 25.9991 54.5365 25.9325 54.5795 25.8586C54.4248 25.9129 54.2614 25.9385 54.0975 25.9339L54.0788 25.9359ZM69.9344 18.0042C69.6398 18.6522 69.1563 19.3159 67.8431 20.211C67.5488 20.4117 67.2241 20.8288 67.472 21.4151C67.7195 22.0018 68.1841 22.835 67.9048 23.1587C67.6259 23.4837 66.6344 23.6529 65.8295 23.3291C65.8295 23.3291 65.6597 23.8382 65.365 24.162C65.365 24.162 65.5048 24.4403 65.9692 24.3015C65.9692 24.3015 65.7988 24.7179 66.0309 25.1654C66.0309 25.1654 66.5729 25.0732 66.8052 24.5783C66.8052 24.5783 67.022 24.9651 67.4557 25.1031C67.4557 25.1031 67.8122 24.9185 67.735 24.2087C67.735 24.2087 67.9983 24.8416 68.8032 24.9491C68.8032 24.9491 69.2684 24.3629 68.6643 23.5753C68.6643 23.5753 69.0978 23.962 69.8879 23.7766C69.8879 23.7766 70.0115 23.3755 69.2993 22.8188C69.2993 22.8188 70.104 22.7889 70.4143 22.1095C70.4143 22.1095 70.0735 21.6928 69.2374 21.7858C69.2374 21.7858 70.0115 21.6155 70.182 20.6897C70.182 20.6897 69.6248 20.3348 68.7419 20.9052C68.7419 20.9052 68.8965 20.6124 69.2679 20.3194C69.6398 20.026 70.0888 19.2075 69.9344 18.0042ZM66.6924 27.3132C66.8005 27.1713 66.891 27.0171 66.9622 26.8538C66.8246 27.9768 66.7736 28.7341 66.1653 29.4614C66.1653 29.4614 65.7981 28.974 66.0358 27.7918C66.1522 27.7583 66.2626 27.707 66.3633 27.6398C66.3633 27.6398 66.2243 28.1195 66.3105 28.6037C66.3105 28.6037 66.5311 28.4444 66.6924 27.3132ZM67.7449 27.1968C67.8181 27.1054 67.9578 26.9125 68.0317 26.7744C68.0821 27.4266 68.254 29.1431 67.678 29.6799C67.678 29.6799 67.2815 29.3917 67.1429 26.8889C67.2266 27.0288 67.373 27.1773 67.4442 27.2586C67.4442 27.2586 67.3483 28.0531 67.6343 28.6129C67.6343 28.6129 67.9211 28.3966 67.7449 27.1968ZM69.1207 28.5089C68.6351 27.93 68.4897 26.1967 68.4897 26.1967C68.4204 26.1505 68.3532 26.1012 68.2882 26.0492C68.2606 26.0266 68.2332 26.0037 68.2077 25.9795C68.2085 26.0441 68.2058 26.1088 68.1996 26.1731C68.27 27.2163 68.3526 28.2919 68.6798 28.8271C68.9999 29.3515 69.588 29.6239 69.588 29.6239C70.1405 28.6453 69.473 27.3314 68.9153 26.4188C68.8437 26.3915 68.7738 26.3601 68.7058 26.3248C68.9019 27.0276 69.273 27.863 69.1209 28.5089H69.1207ZM70.489 25.499C70.492 25.5838 70.4811 25.6686 70.4566 25.7499C70.4504 25.7685 70.444 25.7939 70.4314 25.8198C70.8924 26.2731 71.2364 26.7045 71.9217 27.654C72.6078 28.6037 73.694 28.6414 73.694 28.6414C73.5887 27.873 73.3792 27.2649 72.7986 26.6099C72.2171 25.9547 71.4736 25.357 70.9272 24.9596C70.7863 25.0248 70.6035 25.0654 70.3718 25.0379C70.3537 25.0359 70.3357 25.0336 70.3177 25.031C70.3828 25.1141 70.4312 25.2089 70.4601 25.3103C70.8738 25.5465 72.0746 26.1537 72.5609 27.1319C72.5609 27.1319 71.8008 26.8944 70.489 25.4989V25.499ZM71.3506 24.5419L71.3053 24.4609C71.2907 24.4351 71.2745 24.4102 71.2569 24.3864C71.7021 24.5596 73.2941 25.1577 73.8083 25.4228C74.3225 25.6891 75.0669 26.2938 75.4718 27.5194C75.4718 27.5194 74.3989 27.6159 73.5127 26.8853C72.6264 26.1537 71.5947 25.1343 71.1535 24.8096C71.1911 24.775 71.2257 24.7373 71.2569 24.6968C71.2569 24.6968 72.4555 25.7553 73.7223 26.2115C73.7223 26.2115 73.4511 25.7217 72.9501 25.3658C72.3405 24.9333 71.8848 24.788 71.3506 24.5419ZM72.2603 23.8202C72.2431 23.7792 72.2251 23.7385 72.2062 23.6982C72.7313 23.8054 74.0437 23.9612 74.6297 24.1402C75.2153 24.3192 76.2756 24.7469 76.9044 25.9418C76.9044 25.9418 75.9815 26.2263 74.2384 25.4086C72.497 24.5917 71.9526 24.4232 71.619 24.3362C71.8841 24.3166 72.072 24.2272 72.17 24.1677C72.865 24.475 73.7935 24.8409 74.7159 24.864C74.7159 24.864 74.2599 24.5432 73.7826 24.3435C73.2645 24.1266 72.6937 23.9302 72.2602 23.8202H72.2603ZM72.2164 22.9591C72.0457 23.0391 71.9143 23.079 71.6919 23.1027C71.8227 23.1857 71.9379 23.2908 72.0324 23.4134C72.6461 23.5896 73.6921 23.7823 75.4182 23.9068C77.1449 24.0308 78.0653 23.714 78.0653 23.714C77.4643 23.3481 76.5045 22.9755 75.8568 22.8512C75.2073 22.7263 73.5039 22.7394 72.7573 22.6387C72.7488 22.6463 72.6581 22.7207 72.512 22.8089C73.1401 22.8652 74.4782 22.9277 75.1684 23.2759C75.1684 23.2759 73.8947 23.4458 72.2165 22.9591H72.2164Z" fill="#585960"/>
<path d="M66.9701 25.0228C66.9105 24.9726 66.8603 24.9215 66.8174 24.8743C66.7272 24.9871 66.4293 25.3608 66.2824 25.7319C66.1696 26.0496 66.0507 26.4809 65.9915 26.7288C65.9323 26.9756 65.7551 27.4883 65.6484 27.6654C65.6484 27.6654 66.1219 27.7243 66.4709 27.3177C66.8146 26.9173 66.9324 26.5161 66.9852 26.1027C67.0267 25.7794 67.0146 25.3322 66.9701 25.0226V25.0228ZM67.7142 25.0847C67.627 25.2017 67.5425 25.2496 67.5343 25.2539L67.4721 25.2866L67.4041 25.2653C67.3482 25.2473 67.2936 25.2251 67.2409 25.199C67.1736 25.3895 67.1451 25.482 67.1277 25.6438C67.1046 25.8587 67.0615 26.1977 67.143 26.4747C67.2421 26.812 67.4443 27.0177 67.5558 27.1484C67.5558 27.1484 67.8652 26.8091 67.954 26.529C68.0466 26.2363 68.08 25.8957 67.9653 25.547C67.9041 25.3586 67.8033 25.1841 67.7142 25.0846V25.0847ZM68.7811 25.117C68.4649 25.0747 68.2244 24.9606 68.0443 24.8288C68.0041 24.9398 67.9427 25.0892 67.9894 25.3009C68.035 25.5128 68.1822 25.7475 68.3944 25.917C68.7121 26.1701 69.1402 26.4095 69.611 26.3359C69.611 26.3359 69.7198 25.984 68.7811 25.117ZM69.138 24.5285C69.1007 24.8421 68.9489 25.0387 68.9376 25.0539C69.0476 25.1853 69.4451 25.8667 70.2754 25.7514C70.2754 25.7514 70.4997 25.2883 69.9472 24.9195C69.5718 24.6699 69.3955 24.619 69.138 24.5285ZM69.0651 23.9467C69.2866 24.0023 69.5747 24.0241 69.927 23.9411L70.0216 23.919L70.0505 23.8266C70.4763 24.1736 70.9824 24.2307 71.1563 24.5428C71.1563 24.5428 70.9443 24.9358 70.3919 24.8699C69.8391 24.8043 69.4227 24.5468 69.1275 24.1772C69.1162 24.1203 69.0919 24.0177 69.0651 23.9466V23.9467ZM70.0231 23.4594C69.943 23.3437 69.8894 23.1636 69.7236 22.9817C70.0894 22.9192 70.4206 22.9142 70.8482 22.9953C71.3585 23.0915 71.8788 23.2112 72.1386 23.9838C72.1386 23.9838 71.811 24.2618 71.2167 24.141C70.7126 24.0382 70.2734 23.8217 70.0231 23.4594ZM70.2386 22.6208C70.3798 22.4996 70.4925 22.349 70.569 22.1797L70.6126 22.0837C71.0551 21.9037 71.5154 21.8117 71.9647 21.9789C72.4159 22.1472 72.5347 22.3411 72.6489 22.5085C72.6489 22.5085 72.1499 22.9248 71.5747 22.9409C70.9999 22.9572 70.469 22.7926 70.2386 22.6208ZM70.1041 21.717C70.0207 21.6849 69.9348 21.6598 69.8472 21.6422C70.0434 21.4705 70.235 21.2097 70.3285 20.818C70.534 20.866 71.0165 20.866 71.2283 20.7848C71.4398 20.7042 71.8574 20.6988 72.1821 20.9145C72.1821 20.9145 72.0747 21.4819 71.3361 21.6765C70.6431 21.8592 70.3865 21.812 70.1041 21.717ZM70.3702 20.6082L70.2734 20.5467C70.2602 20.5379 70.0948 20.4377 69.8128 20.4159C70.0512 20.2393 70.6146 19.7679 71.0165 19.5418C71.4523 19.2977 72.177 18.9746 72.5459 18.926C72.5459 18.926 72.2003 19.8313 71.7975 20.1955C71.3801 20.574 71.0873 20.7145 70.3702 20.6082ZM69.6249 20.1928C69.8013 19.9637 69.9414 19.6491 70.0437 19.2773C70.1273 18.9746 70.3179 18.2239 70.4314 18.0293C70.5448 17.8343 70.9517 17.1533 71.7482 16.9429C71.7482 16.9429 71.9598 17.8289 71.5592 18.5314C71.2126 19.1358 70.5058 19.7741 69.6248 20.1928H69.6249ZM65.2089 24.3167C65.1074 24.4147 65.0334 24.4702 64.8564 24.5589C64.8564 24.5589 64.6018 25.0422 64.9094 25.6255C65.2167 26.2092 65.4773 26.8053 65.6014 27.1351C65.6014 27.1351 65.7667 27.1117 65.95 26.1977C66.0747 25.5783 66.2317 25.4239 66.3956 25.2124C66.2177 25.3027 66.0721 25.3307 66.06 25.3322L65.937 25.353L65.88 25.2433C65.7864 25.0637 65.7379 24.8642 65.7385 24.6618C65.7385 24.6063 65.7423 24.5546 65.7478 24.5079C65.4616 24.5147 65.3098 24.3708 65.2509 24.297C65.2463 24.2909 65.2419 24.2846 65.2376 24.2782L65.2089 24.3167Z" fill="#585960"/>
<path d="M70.1406 25.9357C70.7308 26.5244 71.976 27.8444 71.8586 29.2776C71.8586 29.2776 70.7018 28.9171 70.2261 28.0719C69.7499 27.2267 69.4556 26.6972 69.2549 26.5063C69.3839 26.5239 69.5115 26.5234 69.6376 26.5038L69.7425 26.4868C70.0358 27.0187 70.6171 27.8914 71.1409 28.1954C71.1409 28.1954 71.2737 27.4891 69.7357 26.0572C69.709 25.9885 69.6769 25.9221 69.6399 25.8584C69.7799 25.908 69.9404 25.9382 70.1211 25.9337" fill="#585960"/>
<path d="M62.1092 14.7018C62.6082 14.7018 63.0127 14.6161 63.0127 14.5103C63.0127 14.4046 62.6082 14.3188 62.1092 14.3188C61.6103 14.3188 61.2058 14.4046 61.2058 14.5103C61.2058 14.6161 61.6103 14.7018 62.1092 14.7018Z" fill="#585960"/>
<path d="M58.1398 15.5465C58.1398 15.4884 58.4004 15.4419 58.7226 15.4419C59.0435 15.4419 59.3038 15.4883 59.3038 15.5465C59.3038 15.6044 59.0435 15.6513 58.7227 15.6513C58.4004 15.6513 58.1396 15.6044 58.1396 15.5465H58.1398Z" fill="#585960"/>
<path d="M62.1092 15.1098C62.2075 15.1098 62.2871 15.0305 62.2871 14.9328C62.2871 14.8351 62.2075 14.7559 62.1092 14.7559C62.011 14.7559 61.9314 14.8351 61.9314 14.9328C61.9314 15.0305 62.011 15.1098 62.1092 15.1098Z" fill="#585960"/>
<path d="M61.1407 14.3242C60.8401 13.6093 60.6393 13.0832 60.6473 12.9063C60.6527 12.7985 60.7802 12.7199 60.8999 12.6836C61.0193 12.6463 61.1261 12.6397 61.2059 12.6999C61.3622 12.8193 61.5081 13.7833 61.5617 14.1841C61.4089 14.2138 61.3179 14.2326 61.1408 14.3242H61.1407ZM61.6898 14.1687C61.7676 14.1608 61.8456 14.1557 61.9238 14.1532C61.8759 13.771 61.7432 13.1327 61.6646 12.8808C61.5865 12.6297 61.4865 12.4487 61.3213 12.4028C61.3213 12.4028 61.4496 12.7531 61.5197 13.1158C61.5898 13.4782 61.6444 13.8248 61.6898 14.1685V14.1687ZM61.2349 15.4146C60.7736 15.6836 60.2551 15.6413 60.2551 15.6413C60.3548 15.4597 60.4493 15.2912 60.7387 15.0848C61.028 14.8787 61.4992 14.8269 61.6847 14.8527C61.6429 14.9908 61.4535 15.2868 61.2349 15.4146ZM60.7387 15.4473C61.0695 15.3688 61.4089 15.0156 61.4089 15.0156C60.8748 15.0929 60.7387 15.4473 60.7387 15.4473ZM58.0022 15.6861C58.0022 15.6861 58.5762 15.9004 59.1512 15.8718C59.7256 15.8427 60.7841 15.8307 61.1266 15.6658C61.1266 15.6658 61.0695 15.8801 60.7965 16.0039C60.7965 16.0039 60.9416 16.0039 61.082 16.1273C61.082 16.1273 60.999 16.3043 60.7553 16.399C60.7553 16.399 61.193 16.8522 61.6607 16.8194C61.6607 16.8194 61.445 17.0871 60.9656 16.9836C60.4869 16.8813 60.3334 16.6133 60.2506 16.5105C60.2506 16.5105 60.313 16.7656 60.2834 16.8689C60.2834 16.8689 60.0728 16.8562 59.9076 16.6502C59.9076 16.6502 60.0277 16.8562 60.0519 17.0295C60.0519 17.0295 59.9205 17.0458 59.6839 16.906C59.6839 16.906 59.7334 17.0336 59.7424 17.1817C59.7424 17.1817 59.1878 17.0044 58.9192 16.7536C58.9192 16.7536 58.9153 16.9258 58.928 17.0255C58.928 17.0255 58.068 16.9388 58.0022 15.6862V15.6861ZM59.5107 16.1725V16.135C59.0554 16.193 58.5185 16.1682 58.5185 16.1682C58.5473 16.3371 58.6178 16.4652 58.7373 16.5435C58.7669 16.1766 59.5107 16.1726 59.5107 16.1726V16.1725ZM57.87 15.7732C57.8899 16.0448 57.9605 16.3127 58.0559 16.5021C58.0559 16.5021 57.7169 16.2472 57.6342 16.0331C57.5509 15.818 57.531 15.6705 57.87 15.7732ZM58.019 16.6385C58.2458 16.7413 58.4479 16.9841 58.4479 16.9841C58.1048 17.0626 57.9517 17.1613 57.9517 17.1613C57.7801 17.0289 57.5689 16.9574 57.3519 16.9582C57.1348 16.959 56.9242 17.032 56.7535 17.1657C56.3983 16.9638 56.3278 16.4736 56.5057 16.2141C56.6834 15.9544 57.0843 16.0003 57.2742 16.0449C57.3944 16.4244 57.8157 16.5469 58.0192 16.6384L58.019 16.6385ZM57.1911 16.8027C57.269 16.8027 57.3319 16.7406 57.3319 16.6632C57.3319 16.5857 57.269 16.5229 57.1911 16.5229C57.1538 16.523 57.1181 16.5378 57.0918 16.5642C57.0655 16.5905 57.0507 16.6261 57.0507 16.6632C57.0507 16.7406 57.1138 16.8027 57.1911 16.8027ZM58.5224 17.0707C58.5224 17.0707 58.7626 17.388 58.9362 17.5278C58.9362 17.5278 58.0512 17.5199 57.8282 18.2823C57.8282 18.2823 57.5221 17.8161 57.7457 17.5115C57.987 17.1824 58.2082 17.1412 58.5224 17.0707Z" fill="#585960"/>
<path d="M59.494 17.2605C59.494 17.2605 59.7795 17.3432 59.8741 17.3677C59.8741 17.3677 59.8787 17.2031 59.8706 17.1248C59.9578 17.1452 60.0639 17.1744 60.1558 17.1819C60.1558 17.1819 60.4407 17.8166 60.6639 18.0717C60.6639 18.0717 60.6763 18.212 60.5525 18.426C60.5525 18.426 60.3909 18.0513 60.1017 17.751C59.9378 17.5807 59.833 17.4951 59.494 17.2606V17.2605ZM58.7416 17.1248C58.8334 17.1496 59.2891 17.292 59.5107 17.4504C59.7875 17.6476 59.978 17.874 59.9484 18.2651C59.9484 18.2651 59.7257 17.9568 59.4778 17.8164C59.2818 17.7058 58.9281 17.3965 58.7416 17.1248ZM58.7479 14.256C58.8327 14.256 58.9958 14.2958 58.9958 14.4302C58.9958 14.566 58.7843 14.8921 58.7273 15.038H58.7226C58.6654 14.8921 58.4535 14.566 58.4535 14.4302C58.4535 14.2958 58.6177 14.256 58.7017 14.256H58.7479ZM58.5635 15.3097C58.5233 15.1192 58.4481 14.6252 58.3298 14.5159C58.2177 14.4119 58.0533 14.4019 57.9713 14.4071C57.8886 14.4118 57.8012 14.4971 57.8358 14.6082C57.87 14.7196 58.2363 15.2671 58.2842 15.3357C58.3695 15.3216 58.3525 15.3264 58.5634 15.3097H58.5635ZM58.8869 15.3097C58.928 15.1192 59.0032 14.6252 59.1208 14.5159C59.2321 14.4119 59.3979 14.4019 59.479 14.4071C59.5623 14.4118 59.6497 14.4971 59.6146 14.6082C59.5806 14.7196 59.214 15.2671 59.1664 15.3357C59.0806 15.3216 59.0978 15.3264 58.887 15.3097H58.8869ZM59.1228 13.5919H58.8373V13.2773H58.6064V13.5919H58.3203V13.7903H58.6064V14.161H58.8373V13.7903H59.1228V13.5919ZM55.6616 15.6209C55.6623 15.5607 55.6666 15.5002 55.6744 15.4401C55.6968 15.2872 55.6979 15.1561 55.6813 15.048C55.4767 15.126 55.3368 15.1761 55.0541 15.631C55.0541 15.631 55.5054 15.3538 55.6616 15.621V15.6209ZM56.0566 16.3431C56.062 16.2298 56.1365 15.8732 56.2302 15.6209C56.3459 15.3128 56.2801 14.8639 56.1411 14.5925C56.0069 14.3299 55.9331 14.0829 55.9571 13.8107C55.9571 13.8107 55.6894 13.8999 55.5355 13.9944C55.5108 14.3103 55.6953 14.6252 55.7839 14.8053C55.8881 15.0176 55.8664 15.2934 55.8431 15.4627C55.8041 15.7494 55.8631 16.0563 56.0566 16.3431ZM56.0868 13.9299C56.0767 13.8951 56.0767 13.7953 56.0961 13.7556C56.0961 13.7556 56.5164 13.3471 56.8709 13.2773C57.0945 13.2328 57.2331 13.3313 57.2979 13.3864C57.2979 13.3864 57.1731 13.3713 56.9852 13.5243C56.7965 13.6776 56.5622 13.862 56.384 13.9083C56.2089 13.9542 56.1713 13.9402 56.0868 13.9299ZM57.3321 13.4171C57.4914 13.5752 57.6241 13.7417 57.6216 13.886C57.6187 14.0363 57.4443 14.4115 57.353 14.5553C57.2611 14.6994 57.1272 14.8859 57.1429 15.1142C57.151 15.2283 57.2301 15.3454 57.3242 15.4413C57.3242 15.4413 56.8092 15.3196 56.7461 15.0025C56.6904 14.7189 56.8118 14.5199 56.8945 14.3626C56.9716 14.2155 57.2092 13.871 57.2692 13.7272C57.3234 13.5973 57.3525 13.4886 57.3321 13.4171ZM60.344 16.9904C60.4474 17.3526 60.6219 17.6935 60.7945 17.9621C60.9494 18.2048 61.0482 18.603 61.0335 18.7377C61.0335 18.7377 61.2664 18.2256 61.1467 17.8637C61.0548 17.584 60.8043 17.1668 60.344 16.9904ZM60.9239 17.1097C60.9239 17.1097 61.2764 17.1144 61.4422 17.2232C61.6553 17.3634 61.8573 17.6681 61.9342 18.0344C61.9342 18.0344 61.577 17.9727 61.4007 17.7971C61.2249 17.6212 61.0072 17.358 60.924 17.1097H60.9239ZM59.0938 17.7454C59.026 17.751 58.8448 17.7923 58.7561 17.8183C58.7561 17.8183 59.0577 17.9059 59.2079 18.0296C59.3355 18.1346 59.4463 18.2978 59.4979 18.5723C59.5711 18.9545 59.7974 19.3681 59.8651 19.4919L59.8927 19.4864C59.8504 19.223 60.0162 18.6758 60.058 18.598C60.058 18.598 59.8203 18.4481 59.7107 18.2928C59.6301 18.1788 59.4878 17.9886 59.0938 17.7454ZM60.6602 18.5671C60.7478 18.7684 60.9811 19.1248 60.8721 19.4967C60.7628 19.869 60.5199 20.0289 60.3687 20.3439C60.3687 20.3439 60.2491 19.7756 60.2762 19.3365C60.3017 18.8976 60.4628 18.7274 60.6602 18.5671ZM61.3388 18.5826C61.3388 18.5826 61.6899 19.2613 61.7538 19.5283C61.8156 19.7911 61.7587 19.9669 61.6391 20.1268C61.5196 20.2871 61.318 20.4584 61.1316 20.7938C61.1316 20.7938 60.9146 20.5095 60.8871 20.3597C60.8615 20.2098 60.903 19.8533 60.9502 19.7035C60.9964 19.5539 61.1829 19.0732 61.3388 18.5826ZM61.5197 20.7504C61.4415 20.8333 61.0313 21.3246 60.9757 21.4685C60.9208 21.6123 60.8259 21.8833 60.9535 22.071C61.0819 22.2586 61.3732 22.5603 61.6295 22.6877C61.6295 22.6877 61.3523 22.2559 61.3806 21.902C61.3986 21.6759 61.5736 21.4742 61.6076 21.3357C61.6409 21.1983 61.6189 20.9657 61.5196 20.7504H61.5197ZM60.7151 20.4782C60.7783 20.5654 60.8886 20.7767 60.903 20.9835C60.9177 21.1859 60.8852 21.3498 60.7735 21.6481C60.6334 22.0235 60.4152 22.4419 60.3144 22.6294C60.3144 22.6294 60.1208 22.3549 60.0151 22.1097C60.0151 22.1097 60.3169 21.699 60.4447 21.4074C60.5938 21.0652 60.6569 20.7478 60.7151 20.4782ZM60.5748 20.3197C60.5748 20.3197 60.4452 21.2858 59.8745 22.004C59.4886 22.49 59.1744 22.6586 58.9669 22.6586C58.6533 22.6586 58.3388 22.3983 58.2324 22.1007C58.1265 21.8026 58.1599 21.3404 58.3628 21.1765C58.3628 21.1765 58.5514 21.7564 58.952 21.7776C59.4061 21.8026 59.9909 21.2966 60.5749 20.3195L60.5748 20.3197Z" fill="#585960"/>
<path d="M60.1072 19.915C60.1553 20.088 60.1696 20.3532 60.1072 20.6034C60.0587 20.7927 59.943 21.0418 59.7203 21.1807C59.5277 21.3005 59.0729 21.3299 58.899 20.9013C58.899 20.9013 59.7296 20.964 60.1072 19.915ZM61.4664 23.8127C61.5801 24.1031 61.9868 24.4707 61.9846 24.6975C61.9773 25.299 61.7142 25.6673 61.6513 25.8656C61.6513 25.8656 61.1679 25.4833 61.0819 25.0441C61.0386 24.8203 61.0893 24.1455 61.4664 23.8127ZM60.926 24.2373C60.9829 24.0818 61.1603 23.6568 61.3656 23.5083C61.3656 23.5083 61.6295 22.7363 60.7837 22.2627C60.7837 22.2627 60.4358 22.7227 60.344 23.1544C60.2507 23.5863 60.7125 23.848 60.926 24.2372V24.2373ZM59.8682 22.2912C59.7324 22.4535 59.5404 22.6802 59.3914 22.7507C59.3914 22.7507 59.3415 23.0956 59.3698 23.3241C59.4128 23.6639 59.6324 24.0111 59.7257 24.266C59.7257 24.266 60.0948 23.7848 60.1379 23.5013C60.1801 23.2181 60.1728 22.9847 60.1875 22.8501C60.1875 22.8501 59.9814 22.517 59.8681 22.2912H59.8682ZM58.8937 23.9423C58.7891 23.784 58.4492 23.1997 58.4447 22.7756C58.4447 22.7756 58.8623 22.9961 59.2113 22.8347C59.2113 22.8347 59.2578 23.3861 59.1899 23.5729C59.1356 23.7245 59.0629 23.8151 58.8937 23.9423ZM58.9901 24.0604C59.0577 24.0019 59.224 23.8488 59.2922 23.7684C59.2922 23.7684 59.5685 24.2734 59.6156 24.4216C59.6156 24.4216 59.4773 24.4567 59.3255 24.3466C59.1737 24.2362 59.1388 24.2084 58.9899 24.0604H58.9901ZM60.2716 23.764C60.2373 23.8918 59.7901 24.5105 59.7129 24.5869C59.7129 24.5869 59.7478 24.8116 59.9136 25.1339C60.0794 25.4564 60.3095 25.6816 60.4324 25.7961C60.4324 25.7961 60.7082 25.3161 60.7906 25.1046C60.8837 24.8627 60.8731 24.6246 60.8326 24.5364C60.7392 24.3283 60.4152 24.0272 60.2716 23.764ZM60.9433 25.3847C61.0414 25.5841 61.3404 25.9107 61.3865 26.1686C61.4184 26.3398 61.4007 26.5165 61.3355 26.678C61.2799 26.8178 61.1013 27.0897 60.9817 27.2975C60.9817 27.2975 60.5737 26.9143 60.4836 26.6396C60.4152 26.4325 60.4412 26.139 60.5393 25.9569C60.6368 25.7746 60.8502 25.5748 60.9434 25.3847H60.9433ZM59.7858 25.329C59.8927 25.5584 60.1445 25.7885 60.203 25.9908C60.2708 26.2284 60.2922 26.3805 60.1782 26.657C60.0755 26.9014 59.9512 27.0427 59.909 27.1911C59.909 27.1911 59.5765 26.7634 59.5223 26.585C59.4665 26.4066 59.4491 26.1138 59.5173 25.9276C59.586 25.7405 59.7047 25.4982 59.7858 25.329ZM61.4202 26.958C61.4202 26.958 60.8495 27.6454 60.8628 28.0095C60.8798 28.4639 61.1819 28.7649 61.2249 29.0451C61.2249 29.0451 61.5236 28.7077 61.6376 28.4812C61.7654 28.2262 61.8633 28.01 61.8296 27.7217C61.795 27.4335 61.7182 27.2471 61.4202 26.958ZM60.3688 26.8902C60.4587 27.0218 60.7139 27.4711 60.6414 27.7386C60.5695 28.006 60.2883 28.3828 60.195 28.5445C60.195 28.5445 59.9686 28.082 59.9175 27.87C59.8674 27.6582 59.9137 27.3147 60.3688 26.8902Z" fill="#585960"/>
<path d="M65.4965 15.6512C65.8175 15.6512 66.0778 15.6043 66.0778 15.5465C66.0778 15.4887 65.8175 15.4419 65.4965 15.4419C65.1754 15.4419 64.9152 15.4887 64.9152 15.5465C64.9152 15.6043 65.1754 15.6512 65.4965 15.6512Z" fill="#585960"/>
<path d="M62.1148 13.7672C62.1524 13.5077 62.4545 12.9551 62.4545 12.7129C62.4558 12.667 62.4478 12.6212 62.431 12.5784C62.4142 12.5355 62.3889 12.4965 62.3568 12.4635C62.3246 12.4306 62.2861 12.4044 62.2435 12.3865C62.201 12.3686 62.1553 12.3594 62.1092 12.3594C62.063 12.3594 62.0173 12.3686 61.9748 12.3865C61.9323 12.4044 61.8938 12.4306 61.8616 12.4635C61.8294 12.4965 61.8042 12.5355 61.7874 12.5784C61.7706 12.6212 61.7626 12.667 61.7638 12.7129C61.7638 12.9551 62.0662 13.5076 62.103 13.7672H62.1148ZM63.0778 14.3245C63.3792 13.6096 63.5792 13.0835 63.5713 12.9066C63.5656 12.7988 63.4388 12.7202 63.3187 12.6839C63.1984 12.6466 63.0918 12.64 63.0131 12.7001C62.8561 12.8196 62.711 13.7836 62.6568 14.1844C62.8097 14.2141 62.9019 14.2329 63.0778 14.3245ZM62.5293 14.1689C62.4517 14.1612 62.3739 14.156 62.2961 14.1535C62.3432 13.7713 62.4754 13.133 62.554 12.8811C62.6326 12.63 62.7319 12.449 62.897 12.4031C62.897 12.4031 62.769 12.7534 62.6985 13.1161C62.6319 13.4653 62.5754 13.8163 62.5293 14.1688V14.1689ZM62.5339 14.853C62.7192 14.8271 63.1911 14.879 63.4806 15.0851C63.77 15.2915 63.8643 15.46 63.9638 15.6415C63.9638 15.6415 63.445 15.6839 62.9837 15.4149C62.7656 15.2871 62.5762 14.9911 62.5339 14.853ZM62.8106 15.0159C62.8106 15.0159 63.1489 15.369 63.4806 15.4476C63.4806 15.4476 63.3434 15.0932 62.8105 15.0159H62.8106ZM65.2906 17.0258C65.3038 16.9261 65.2994 16.7539 65.2994 16.7539C65.0308 17.0047 64.4762 17.1819 64.4762 17.1819C64.4826 17.0877 64.5022 16.995 64.5345 16.9063C64.2989 17.0461 64.1659 17.0298 64.1659 17.0298C64.1908 16.8565 64.311 16.6505 64.311 16.6505C64.1458 16.8565 63.9351 16.8693 63.9351 16.8693C63.9062 16.7659 63.968 16.5107 63.968 16.5107C63.8855 16.6136 63.7321 16.8816 63.253 16.984C62.7726 17.0874 62.5579 16.8198 62.5579 16.8198C63.0259 16.8525 63.4637 16.3993 63.4637 16.3993C63.22 16.3046 63.1367 16.1276 63.1367 16.1276C63.2777 16.0042 63.4222 16.0042 63.4222 16.0042C63.1491 15.8802 63.0918 15.6661 63.0918 15.6661C63.4349 15.831 64.4932 15.843 65.0677 15.8721C65.6424 15.9005 66.2169 15.6865 66.2169 15.6865C66.1506 16.9391 65.2906 17.0258 65.2906 17.0258ZM65.4813 16.5438C65.6014 16.4655 65.6712 16.3374 65.6994 16.1685C65.6994 16.1685 65.1628 16.1933 64.7084 16.1353V16.1729C64.7084 16.1729 65.4522 16.1769 65.4813 16.5438ZM66.3491 15.7735C66.3285 16.045 66.2582 16.313 66.1631 16.5024C66.1631 16.5024 66.5017 16.2474 66.5842 16.0334C66.6674 15.8183 66.6881 15.6708 66.3491 15.7735ZM66.944 16.045C67.1347 16.0006 67.5356 15.9548 67.7127 16.2144C67.8908 16.4739 67.821 16.964 67.4658 17.1659C67.4658 17.1659 66.9231 16.7002 66.2668 17.1616C66.2668 17.1616 66.113 17.0629 65.77 16.9844C65.77 16.9844 65.9725 16.7415 66.2002 16.6387C66.4029 16.5472 66.8236 16.4247 66.944 16.045ZM67.1679 16.6635C67.1679 16.5859 67.1045 16.5232 67.0266 16.5232C66.9502 16.5232 66.8863 16.5859 66.8863 16.6635C66.8863 16.7408 66.9502 16.803 67.0266 16.803C67.1045 16.803 67.1679 16.7408 67.1679 16.6635ZM65.6962 17.0709C65.6962 17.0709 65.4564 17.3883 65.2829 17.5281C65.2829 17.5281 66.1674 17.5202 66.391 18.2826C66.391 18.2826 66.6965 17.8164 66.4729 17.5118C66.2324 17.1827 66.01 17.1415 65.6962 17.0709Z" fill="#585960"/>
<path d="M64.7247 17.2602C64.7247 17.2602 64.4392 17.3429 64.3446 17.3673C64.3446 17.3673 64.3399 17.2028 64.3486 17.1245C64.2616 17.1449 64.154 17.1741 64.0633 17.1816C64.0633 17.1816 63.7782 17.8162 63.5552 18.0714C63.5552 18.0714 63.5424 18.2116 63.6667 18.4257C63.6667 18.4257 63.8276 18.051 64.1172 17.7507C64.2807 17.5804 64.3857 17.4948 64.7247 17.2603V17.2602ZM65.4774 17.1245C65.386 17.1493 64.9293 17.2916 64.7084 17.4501C64.4311 17.6473 64.2406 17.8736 64.2695 18.2648C64.2695 18.2648 64.4937 17.9565 64.7406 17.8161C64.9373 17.7055 65.2906 17.3962 65.4773 17.1245H65.4774ZM65.4711 14.2557C65.3865 14.2557 65.2226 14.2955 65.2226 14.4299C65.2226 14.5657 65.4352 14.8918 65.4914 15.0377H65.4964C65.553 14.8918 65.7652 14.5657 65.7652 14.4299C65.7652 14.2955 65.6014 14.2557 65.5161 14.2557H65.4712H65.4711ZM65.6556 15.3094C65.6955 15.1189 65.7706 14.6249 65.8893 14.5156C66.0008 14.4116 66.1654 14.4015 66.2479 14.4068C66.3305 14.4114 66.4179 14.4968 66.3835 14.6078C66.3491 14.7192 65.9819 15.2668 65.9345 15.3353C65.8492 15.3213 65.8662 15.3261 65.6556 15.3094ZM65.3309 15.3094C65.2914 15.1189 65.2162 14.6249 65.0978 14.5156C64.9859 14.4116 64.8211 14.4015 64.7386 14.4068C64.6569 14.4114 64.5688 14.4968 64.6038 14.6078C64.638 14.7192 65.004 15.2668 65.0523 15.3353C65.1381 15.3213 65.1208 15.3261 65.3309 15.3094ZM65.0961 13.5916H65.3811V13.277H65.6115V13.5916H65.8981V13.79H65.6114V14.1607H65.3811V13.79H65.0961V13.5916ZM61.6665 11.7296H61.9512V11.4141H62.1822V11.7296H62.4689V11.928H62.1822V12.298H61.9512V11.928H61.6666L61.6665 11.7296ZM68.5568 15.6206C68.5568 15.5604 68.5522 15.4999 68.544 15.4397C68.5226 15.2868 68.5205 15.1557 68.5373 15.0477C68.7427 15.1257 68.8818 15.1758 69.1643 15.6307C69.1643 15.6307 68.7138 15.3535 68.5568 15.6207V15.6206ZM68.162 16.3428C68.1566 16.2295 68.0822 15.8728 67.9889 15.6206C67.8734 15.3125 67.9385 14.8636 68.0775 14.5922C68.2117 14.3296 68.2863 14.0826 68.2615 13.8104C68.2615 13.8104 68.5293 13.8996 68.6829 13.9941C68.708 14.3099 68.5231 14.6249 68.4352 14.805C68.3306 15.0173 68.3522 15.2931 68.3755 15.4624C68.4151 15.749 68.3554 16.0559 68.162 16.3428ZM68.1324 13.9296C68.1427 13.8947 68.1419 13.795 68.1225 13.7552C68.1225 13.7552 67.7022 13.3468 67.3484 13.277C67.1245 13.2325 66.9858 13.331 66.9213 13.386C66.9213 13.386 67.0455 13.371 67.2335 13.524C67.4226 13.6773 67.6558 13.8616 67.8344 13.908C68.0097 13.9539 68.0486 13.9398 68.1324 13.9296ZM66.8857 13.4167C66.7272 13.5749 66.5943 13.7413 66.597 13.8857C66.6004 14.036 66.7736 14.4112 66.8662 14.5549C66.9584 14.6991 67.092 14.8855 67.0757 15.1139C67.0669 15.2279 66.9886 15.3451 66.895 15.441C66.895 15.441 67.4102 15.3193 67.4732 15.0022C67.5288 14.7186 67.4074 14.5196 67.3248 14.3623C67.247 14.2152 67.01 13.8707 66.9502 13.7269C66.896 13.597 66.867 13.4883 66.8857 13.4167ZM63.8759 16.9901C63.7726 17.3523 63.5967 17.6932 63.4249 17.9617C63.269 18.2045 63.1702 18.6027 63.1863 18.7374C63.1863 18.7374 62.953 18.2253 63.0721 17.8634C63.1643 17.5836 63.4134 17.1664 63.8759 16.9901ZM63.2945 17.1094C63.2945 17.1094 62.942 17.1141 62.7762 17.2228C62.5641 17.3631 62.3615 17.6677 62.2842 18.0341C62.2842 18.0341 62.642 17.9724 62.8179 17.7968C62.9938 17.6209 63.2122 17.3577 63.2945 17.1094ZM65.1252 17.7451C65.1927 17.7507 65.3737 17.7919 65.4616 17.818C65.4616 17.818 65.161 17.9056 65.0113 18.0293C64.883 18.1343 64.7728 18.2975 64.7215 18.572C64.6481 18.9542 64.4213 19.3678 64.3535 19.4916L64.3265 19.4861C64.3682 19.2226 64.2022 18.6755 64.1607 18.5976C64.1607 18.5976 64.3997 18.4478 64.5085 18.2925C64.5883 18.1784 64.7313 17.9883 65.1254 17.7451H65.1252ZM63.5594 18.5668C63.4711 18.7681 63.2383 19.1245 63.3463 19.4963C63.4551 19.8687 63.6994 20.0286 63.8497 20.3435C63.8497 20.3435 63.9693 19.7753 63.943 19.3362C63.9169 18.8973 63.7563 18.7271 63.5594 18.5668ZM62.1144 19.6081C62.1291 19.3913 62.6359 18.8662 62.6105 18.5822C62.5843 18.298 62.205 18.0965 62.1117 18.0554H62.1069C62.0136 18.0965 61.6344 18.298 61.6084 18.5822C61.5826 18.8662 62.0888 19.3913 62.1043 19.6081H62.1144ZM62.8798 18.5822C62.8798 18.5822 62.5285 19.261 62.4649 19.5279C62.4038 19.7907 62.46 19.9666 62.5796 20.1265C62.6986 20.2868 62.9004 20.4581 63.0878 20.7934C63.0878 20.7934 63.3053 20.5092 63.3316 20.3593C63.3568 20.2094 63.3161 19.853 63.269 19.7031C63.222 19.5536 63.0355 19.0729 62.8798 18.5822ZM62.113 21.2089C62.2743 21.0704 62.4165 20.866 62.4614 20.7443C62.5056 20.623 62.5185 20.4443 62.4116 20.3088C62.2842 20.1459 62.1237 19.9651 62.1129 19.8168H62.1051C62.0935 19.9651 61.9343 20.1459 61.8068 20.3088C61.7002 20.4443 61.713 20.623 61.7578 20.7443C61.8022 20.866 61.9466 21.0704 62.1069 21.2089H62.1129H62.113ZM62.6997 20.7501C62.7772 20.8329 63.1871 21.3243 63.2429 21.4682C63.2979 21.6119 63.3926 21.883 63.2643 22.0706C63.1375 22.2582 62.8455 22.56 62.5897 22.6873C62.5897 22.6873 62.8664 22.2556 62.8387 21.9017C62.8206 21.6756 62.6448 21.4738 62.611 21.3353C62.5777 21.198 62.6005 20.9654 62.6997 20.7501ZM63.5035 20.4779C63.4404 20.5651 63.3301 20.7764 63.3154 20.9832C63.3007 21.1856 63.334 21.3495 63.4462 21.6478C63.586 22.0231 63.803 22.4416 63.9049 22.6291C63.9049 22.6291 64.0978 22.3546 64.2036 22.1094C64.2036 22.1094 63.9015 21.6987 63.7739 21.407C63.6241 21.0649 63.5618 20.7475 63.5035 20.4779ZM63.6438 20.3193C63.6438 20.3193 63.7733 21.2855 64.3439 22.0037C64.7306 22.4897 65.044 22.6583 65.2518 22.6583C65.5657 22.6583 65.88 22.398 65.986 22.1003C66.0922 21.8023 66.0585 21.3401 65.8559 21.1762C65.8559 21.1762 65.6672 21.7561 65.2664 21.7772C64.8118 21.8023 64.2277 21.2962 63.6439 20.3192L63.6438 20.3193Z" fill="#585960"/>
<path d="M64.1122 19.915C64.064 20.088 64.0493 20.3532 64.1122 20.6034C64.1599 20.7927 64.2761 21.0418 64.4983 21.1807C64.6914 21.3005 65.1454 21.3299 65.3193 20.9013C65.3193 20.9013 64.489 20.964 64.1122 19.915ZM62.1094 22.785C62.2271 22.7292 62.3266 22.687 62.462 22.4819C62.568 22.3203 62.6682 22.022 62.611 21.8099C62.5408 21.5474 62.3976 21.4415 62.3123 21.2781C62.2413 21.3426 62.1988 21.3931 62.1128 21.4432H62.1081C62.0225 21.3931 61.9773 21.3426 61.906 21.2781C61.821 21.4416 61.6778 21.5474 61.6076 21.8099C61.5517 22.022 61.6512 22.3204 61.7572 22.4819C61.8919 22.687 61.9914 22.7291 62.1089 22.785H62.1094ZM62.1094 24.4146C62.1666 24.1593 62.7037 23.6639 62.6535 23.395C62.5795 22.9916 62.3189 23.077 62.1128 22.9064H62.109C61.9021 23.0768 61.639 22.9916 61.5651 23.395C61.5161 23.6639 62.0493 24.1593 62.1069 24.4146H62.1094ZM62.7535 23.8127C62.6393 24.1031 62.2318 24.4707 62.2344 24.6975C62.2413 25.299 62.5045 25.6673 62.568 25.8656C62.568 25.8656 63.0507 25.4833 63.1362 25.0441C63.1795 24.8204 63.1293 24.1455 62.7535 23.8127ZM63.2924 24.2373C63.2355 24.0818 63.0581 23.6568 62.8527 23.5083C62.8527 23.5083 62.5896 22.7363 63.4351 22.2627C63.4351 22.2627 63.7828 22.7227 63.8759 23.1544C63.968 23.5863 63.5069 23.848 63.2924 24.2372V24.2373ZM64.3512 22.2912C64.4863 22.4535 64.6782 22.6802 64.8272 22.7507C64.8272 22.7507 64.8769 23.0956 64.8486 23.3241C64.8056 23.6639 64.5863 24.0111 64.4937 24.266C64.4937 24.266 64.1238 23.7848 64.0808 23.5013C64.0383 23.2181 64.0458 22.9847 64.0311 22.8501C64.0311 22.8501 64.2372 22.517 64.3512 22.2912ZM65.3254 23.9423C65.4293 23.784 65.77 23.1997 65.7741 22.7756C65.7741 22.7756 65.3565 22.9961 65.0073 22.8347C65.0073 22.8347 64.9608 23.3861 65.0295 23.5729C65.0836 23.7245 65.1558 23.8151 65.3254 23.9423ZM65.2295 24.0604C65.1609 24.0019 64.9943 23.8488 64.9265 23.7684C64.9265 23.7684 64.6501 24.2734 64.603 24.4216C64.603 24.4216 64.7416 24.4567 64.8931 24.3466C65.0447 24.2362 65.0795 24.2084 65.2295 24.0604ZM63.948 23.764C63.9818 23.8918 64.4293 24.5105 64.505 24.5869C64.505 24.5869 64.4713 24.8116 64.305 25.1339C64.139 25.4564 63.9095 25.6816 63.786 25.7961C63.786 25.7961 63.5101 25.3161 63.428 25.1046C63.3349 24.8627 63.3463 24.6246 63.3858 24.5364C63.4792 24.3283 63.8029 24.0272 63.948 23.764ZM62.1129 27.4285C62.1558 27.2587 62.4138 27.0579 62.5218 26.7634C62.5855 26.5887 62.5831 26.3845 62.513 26.245C62.4325 26.084 62.1431 25.686 62.1094 25.5708H62.1081C62.0733 25.686 61.7867 26.084 61.7053 26.245C61.6355 26.3845 61.6329 26.5887 61.6972 26.7634C61.8048 27.0579 62.0625 27.2587 62.105 27.4285H62.1128H62.1129ZM63.2753 25.3847C63.177 25.5841 62.8788 25.9107 62.8326 26.1686C62.7957 26.372 62.8287 26.5378 62.8829 26.678C62.938 26.8178 63.1179 27.0897 63.237 27.2975C63.237 27.2975 63.645 26.9143 63.7344 26.6396C63.8029 26.4325 63.7782 26.139 63.6798 25.9569C63.5811 25.7746 63.3692 25.5748 63.2753 25.3847ZM64.4333 25.329C64.3264 25.5584 64.0734 25.7885 64.0158 25.9908C63.9478 26.2284 63.9262 26.3805 64.0412 26.657C64.1432 26.9014 64.2667 27.0427 64.3094 27.1911C64.3094 27.1911 64.6413 26.7634 64.6966 26.585C64.7529 26.4066 64.7695 26.1138 64.7017 25.9276C64.6327 25.7405 64.5138 25.4982 64.4333 25.329ZM62.1094 30.7121C62.1305 30.5028 62.5648 29.8554 62.5855 29.1678C62.5963 28.8245 62.2875 28.2859 62.1128 28.082H62.1043C61.9288 28.2859 61.623 28.8245 61.6328 29.1678C61.6542 29.8554 62.0869 30.5028 62.1083 30.7121H62.1094ZM62.7983 26.958C62.7983 26.958 63.3697 27.6454 63.3563 28.0095C63.3396 28.4639 63.037 28.7649 62.9937 29.0452C62.9937 29.0452 62.695 28.7077 62.5808 28.4812C62.4533 28.2262 62.3553 28.01 62.3901 27.7217C62.4238 27.4335 62.5002 27.2471 62.7983 26.958ZM63.8496 26.8902C63.7597 27.0218 63.5055 27.4711 63.5772 27.7387C63.6496 28.006 63.9309 28.3828 64.0243 28.5445C64.0243 28.5445 64.2501 28.082 64.301 27.87C64.3519 27.6582 64.305 27.3147 63.8496 26.8902Z" fill="#585960"/>
<path d="M62.5004 31.8148C62.5347 31.2807 62.8387 30.9608 62.8915 30.6827C62.9513 30.3774 62.9307 30.0849 62.6924 29.7328C62.5003 30.39 62.2876 30.8697 62.1218 31.2002C62.1175 31.2082 62.1136 31.2176 62.1095 31.2274C62.1051 31.2176 62.1016 31.2082 62.0977 31.2002C61.9311 30.8697 61.7182 30.39 61.5263 29.7326C61.2888 30.0849 61.2677 30.3774 61.3266 30.6826C61.3811 30.9608 61.6848 31.2807 61.7182 31.8148C61.7525 32.3497 61.1482 32.5541 61.1482 32.5541C61.3523 32.6263 61.584 32.6588 61.9525 32.3112C62.0204 32.2475 62.0714 32.1783 62.1095 32.1054C62.15 32.1823 62.2032 32.2518 62.2667 32.3112C62.6347 32.6588 62.8664 32.6263 63.0704 32.5541C63.0704 32.5541 62.4662 32.3497 62.5003 31.8148H62.5004ZM60.5985 28.2617C60.6621 28.4614 60.8502 28.8301 60.8744 28.9434C60.9198 29.1552 60.8589 29.4116 60.471 29.6843C60.471 29.6843 60.2198 29.5101 60.1205 29.2792C60.0278 29.0635 60.0822 28.9123 60.1789 28.8006C60.275 28.6886 60.5025 28.4294 60.5985 28.2617ZM61.4141 29.0523C61.4141 29.1598 61.3336 29.7646 61.161 30.0646C60.9198 30.4862 60.5629 30.8 60.2518 30.8C59.9628 30.8 59.9023 30.6288 59.7587 30.5587C59.7587 30.5587 59.8319 30.1927 60.1559 30.096C60.5548 29.9782 61.1662 29.5012 61.4141 29.0523Z" fill="#585960"/>
<path d="M60.3741 29.8232C60.307 29.7719 60.2486 29.7367 60.1679 29.644C60.1679 29.644 59.8604 29.7578 59.6074 29.9275C59.3542 30.0968 59.1058 30.3854 58.9722 30.5365C58.9722 30.5365 59.3517 30.6343 59.5919 30.5256C59.5919 30.5256 59.6799 30.1647 59.9496 30.0035C60.0096 29.9683 60.1982 29.9134 60.3741 29.8231V29.8232ZM60.0579 29.5135C59.9995 29.4229 59.8793 29.2554 59.9054 28.9927C59.9054 28.9927 59.373 29.3277 59.2127 29.4568C59.0522 29.5862 58.7204 29.9281 58.646 30.0408C58.646 30.0408 59.0488 29.9537 59.3583 29.8505C59.6981 29.7375 59.9329 29.5861 60.0579 29.5134V29.5135ZM59.1555 30.0888C58.8687 30.1903 58.2225 30.2948 57.9531 30.3744C57.6818 30.454 57.4865 30.5929 57.228 30.8744C57.228 30.8744 57.6248 30.9841 57.8362 31.0516C57.8362 31.0516 58.1738 30.8218 58.5432 30.681C58.783 30.5896 58.9004 30.3377 59.1555 30.0888ZM58.5553 31.9862C58.6172 31.9191 58.6951 31.84 58.6351 31.6803C58.5921 31.5632 58.3588 31.435 58.2171 31.3672C57.9859 31.2575 57.3434 31.0862 57.1342 31.0244C57.1342 31.0244 57.03 31.1464 56.9743 31.2753C56.9495 31.3251 56.9824 31.3765 57.073 31.3921C57.2514 31.4227 57.6818 31.3429 57.7867 31.4103C57.9001 31.4839 57.8606 31.5826 57.8606 31.6803C57.8606 31.6803 58.0566 31.5616 58.18 31.5881C58.3523 31.6252 58.4567 31.7049 58.5553 31.9862ZM57.9834 31.0965C58.0295 31.1119 58.2802 31.1882 58.5243 31.3425C58.5243 31.3425 58.6326 31.3004 58.6857 31.2013C58.7373 31.1063 58.9574 30.7829 59.1586 30.7393C59.1586 30.7393 58.9869 30.723 58.8891 30.6921C58.8891 30.6921 58.68 30.746 58.5318 30.8054C58.3836 30.8655 58.1988 30.9565 57.9834 31.0965ZM59.6403 30.6884C59.6008 30.7065 59.5362 30.7369 59.3863 30.743C59.3863 30.743 58.8207 31.134 58.7549 31.5225C58.6983 31.856 58.8744 32.0154 58.9586 32.0576C59.0449 32.1002 59.439 32.2616 59.6954 31.735C59.6954 31.735 59.2581 31.8783 59.1395 31.6682C59.0205 31.4587 59.2127 31.1538 59.3321 31.0659C59.4878 30.9496 59.7691 30.8708 59.939 30.9016C59.939 30.9016 59.8022 30.7709 59.6403 30.6884Z" fill="#585960"/>
<path d="M55.9397 35.1553C56.0089 34.8696 56.085 34.5679 56.2164 34.2909C56.4716 33.7528 57.0981 32.3185 58.4031 32.0648C58.5267 32.0414 58.2626 31.739 58.1452 31.754C58.0285 31.7684 57.7953 31.9182 57.6922 31.986C57.6922 31.986 57.6922 31.6801 57.6892 31.6257C57.6854 31.5706 57.6376 31.5505 57.5866 31.5525C57.537 31.5535 57.2203 31.5506 57.1208 31.6649C56.8234 32.0076 56.3209 32.9316 56.037 33.619C55.7518 34.3058 55.557 34.5153 55.2571 34.41C54.9569 34.3058 54.7779 33.9626 54.2531 34.0674C54.0728 34.1024 53.8713 34.2246 53.7135 34.4036C53.7571 34.4874 53.8121 34.5897 54.0577 34.5897C54.3022 34.5897 54.7687 34.6923 55.0296 34.8734C55.2897 35.0543 55.5636 35.1147 55.9397 35.1553ZM61.1525 30.71C61.1812 30.9308 61.2888 31.1396 61.4082 31.3554C61.4082 31.3554 61.0107 33.183 59.5731 33.3242C59.5731 33.3242 59.6021 32.9456 60.0278 32.6567C60.4542 32.3681 61.0906 31.9207 61.0441 31.2415C61.0441 31.2415 60.9306 31.2646 60.7267 31.5193C60.5217 31.7736 60.0735 32.5094 59.3806 32.5153C59.3806 32.5153 59.4825 32.1701 59.7894 31.9711C60.0969 31.7736 60.4881 31.5193 60.6651 31.213C60.8402 30.9076 61.0281 30.7666 61.1525 30.7101V30.71ZM60.4742 37.3654L61.3484 38.5857L62.011 37.41L61.7762 36.991C61.6035 37.3009 61.418 37.6345 61.3121 37.8161C61.2316 37.7028 61.0107 37.3946 60.7218 36.991L60.4742 37.3654Z" fill="#585960"/>
<path d="M60.2501 36.3333C59.3984 35.1445 58.3451 33.6717 58.2385 33.523L58.5693 33.2858L57.5256 32.8888L57.5455 34.0197L57.8983 33.7673L60.0035 36.708L60.25 36.3333H60.2501ZM53.0589 29.6534C53.3166 29.3739 53.7532 29.6148 54.1934 30.0191C54.6345 30.4222 54.9123 30.8357 54.6547 31.1152C54.417 31.373 53.9605 31.1536 53.5195 30.7502C53.0791 30.3463 52.801 29.9325 53.0589 29.6534Z" fill="#585960"/>
<path d="M53.7698 34.6199C53.7556 34.6089 53.7424 34.5966 53.7288 34.5847C53.4947 34.38 53.361 34.0659 53.361 33.7223C53.361 33.0614 53.9002 32.5242 54.5633 32.5242C55.2261 32.5242 55.7644 33.0614 55.7644 33.7223C55.7644 33.8119 55.747 33.9576 55.747 33.9576C55.8021 33.8549 55.9993 33.3985 56.0398 33.3155C55.8605 32.6702 55.2663 32.1959 54.5633 32.1959C53.9584 32.1959 53.4342 32.5467 53.1859 33.0551C53.2805 32.4511 53.5819 31.9075 53.7961 31.7061C54.0519 31.4658 54.4869 31.3889 54.4869 31.3889C54.2022 31.4344 53.8256 31.2595 53.4048 30.8743C53.0053 30.5084 52.7991 30.1895 52.787 29.9225C52.8133 30.2997 52.8002 30.5109 52.6944 30.8166C52.548 31.2349 52.1511 32.0043 52.2922 32.873C52.3714 33.3505 52.7177 34.0608 53.2986 34.641C53.4215 34.7719 53.4692 34.9641 53.4831 35.0649C53.4831 35.0649 54.3404 35.0649 54.5434 35.0825C54.5434 35.0825 54.7468 35.0649 54.7434 34.9379C54.7399 34.8115 54.6272 34.7792 54.5252 34.7792C54.4238 34.7792 53.998 34.7891 53.7698 34.6199ZM58.5058 34.9099C57.9552 35.1089 57.406 35.2134 56.8842 35.2933C56.5573 35.3443 56.226 35.3624 55.8955 35.3472C55.9009 35.3996 55.9001 35.4695 55.8691 35.5206C55.8691 35.5206 55.9331 35.5946 55.9331 35.6773C56.2566 35.6903 56.5924 35.671 56.9352 35.6181C57.5047 35.5311 58.104 35.4155 58.7064 35.189L58.5058 34.9099ZM59.4088 34.8681C60.139 34.4699 60.8529 33.8567 61.4954 32.8769L61.6107 32.6845C61.4356 32.7619 61.2094 32.7087 61.2094 32.7087C61.1993 32.7254 61.1704 32.7685 61.1563 32.7927C60.5559 33.6758 59.8927 34.2319 59.2131 34.5955L59.4087 34.8681H59.4088ZM54.5911 35.1807C54.4901 35.1643 54.17 35.1723 53.9772 35.2022C53.7671 35.2353 53.5267 35.2784 53.502 35.3939C53.478 35.5038 53.5543 35.6207 53.6605 35.7869C53.7269 35.8897 53.8826 35.8313 53.9699 35.7987C54.0573 35.7661 54.5507 35.5026 54.6306 35.4155C54.7104 35.3285 54.7434 35.2059 54.5911 35.1807ZM55.095 35.5057C55.0421 35.4719 54.9133 35.4227 54.779 35.4735C54.6453 35.5239 54.1584 35.8097 54.1257 35.9438C54.0934 36.0773 54.1594 36.1459 54.2351 36.1754C54.3106 36.205 54.4029 36.2335 54.4694 36.2399C54.5911 36.2496 54.7104 36.1788 54.7721 36.103C54.8347 36.0265 55.0622 35.7517 55.095 35.6903C55.1272 35.6291 55.1462 35.5383 55.095 35.5057ZM55.1543 35.8069C55.0845 35.8857 54.887 36.1238 54.8635 36.1628C54.8406 36.2016 54.8749 36.263 54.9374 36.2568C54.9983 36.2504 55.3329 36.2158 55.5262 36.0843C55.7181 35.9535 55.8473 35.7016 55.7149 35.6093C55.5824 35.5166 55.3777 35.5581 55.1543 35.8069ZM55.2617 35.0793C55.1985 35.0639 54.946 34.9995 54.8903 35.0831C54.822 35.1871 54.8708 35.2987 55.0676 35.3932C55.2636 35.4872 55.6349 35.5621 55.7076 35.4607C55.7808 35.3583 55.6793 35.1865 55.2617 35.0793ZM63.6189 28.2617C63.555 28.4614 63.3679 28.8301 63.3431 28.9434C63.2978 29.1552 63.3591 29.4116 63.7465 29.6843C63.7465 29.6843 63.9975 29.5101 64.0978 29.2792C64.1903 29.0635 64.135 28.9123 64.0393 28.8006C63.9422 28.6886 63.7155 28.4294 63.6189 28.2617ZM62.8032 29.0523C62.8032 29.1598 62.8837 29.7646 63.0569 30.0646C63.2978 30.4862 63.6538 30.8 63.9661 30.8C64.2552 30.8 64.3157 30.6288 64.4586 30.5587C64.4586 30.5587 64.3857 30.1927 64.0607 30.096C63.6632 29.9782 63.0514 29.5012 62.8032 29.0523Z" fill="#585960"/>
<path d="M63.8438 29.8232C63.911 29.7719 63.9685 29.7367 64.0494 29.644C64.0494 29.644 64.3574 29.7578 64.6097 29.9275C64.863 30.0968 65.1113 30.3854 65.2449 30.5365C65.2449 30.5365 64.8662 30.6343 64.6254 30.5256C64.6254 30.5256 64.5373 30.1647 64.2675 30.0035C64.2084 29.9683 64.0192 29.9134 63.8438 29.8231V29.8232ZM64.1599 29.5135C64.2184 29.4229 64.3388 29.2554 64.3125 28.9927C64.3125 28.9927 64.8455 29.3277 65.0051 29.4568C65.1656 29.5862 65.4979 29.9281 65.5726 30.0408C65.5726 30.0408 65.169 29.9537 64.8595 29.8505C64.5193 29.7375 64.2857 29.5861 64.1599 29.5134V29.5135ZM65.0622 30.0888C65.3489 30.1903 65.9942 30.2948 66.2646 30.3744C66.5351 30.454 66.7313 30.5929 66.9899 30.8744C66.9899 30.8744 66.593 30.9841 66.3816 31.0516C66.3816 31.0516 66.0438 30.8218 65.6746 30.681C65.4342 30.5896 65.3182 30.3377 65.0621 30.0888H65.0622ZM65.6618 31.9862C65.6009 31.9191 65.5231 31.84 65.5826 31.6803C65.6255 31.5632 65.8593 31.435 66.0008 31.3672C66.2324 31.2575 66.8749 31.0862 67.0832 31.0244C67.0832 31.0244 67.1881 31.1464 67.243 31.2753C67.2679 31.3251 67.2355 31.3765 67.1451 31.3921C66.9662 31.4227 66.5351 31.3429 66.4312 31.4103C66.318 31.4839 66.3575 31.5826 66.3575 31.6803C66.3575 31.6803 66.1615 31.5616 66.0372 31.5881C65.8652 31.6252 65.7605 31.7049 65.6618 31.9862ZM66.2345 31.0965C66.1883 31.1119 65.9379 31.1882 65.6927 31.3425C65.6927 31.3425 65.5852 31.3004 65.5321 31.2013C65.4806 31.1063 65.2605 30.7829 65.0597 30.7393C65.0597 30.7393 65.23 30.723 65.3283 30.6921C65.3283 30.6921 65.5375 30.746 65.686 30.8054C65.8345 30.8655 66.019 30.9565 66.2343 31.0965H66.2345ZM64.5778 30.6884C64.6166 30.7065 64.6809 30.7369 64.8306 30.743C64.8306 30.743 65.3968 31.134 65.4631 31.5225C65.5203 31.856 65.3445 32.0154 65.259 32.0576C65.1725 32.1002 64.779 32.2616 64.5226 31.735C64.5226 31.735 64.9587 31.8783 65.0785 31.6682C65.1978 31.4587 65.0051 31.1538 64.8858 31.0659C64.7301 30.9496 64.4494 30.8708 64.2773 30.9016C64.2773 30.9016 64.4151 30.7709 64.5778 30.6884Z" fill="#585960"/>
<path d="M68.2775 35.1553C68.2083 34.8696 68.1323 34.5679 68.0006 34.2908C67.7463 33.7528 67.1202 32.3185 65.8151 32.0648C65.6913 32.0414 65.956 31.739 66.072 31.754C66.1903 31.7684 66.4226 31.9182 66.5257 31.986C66.5257 31.986 66.5257 31.6801 66.5287 31.6257C66.5319 31.5706 66.5803 31.5505 66.6313 31.5525C66.681 31.5535 66.9979 31.5506 67.0971 31.6649C67.3945 32.0076 67.8968 32.9316 68.181 33.619C68.4661 34.3058 68.6609 34.5153 68.9604 34.41C69.261 34.3058 69.4409 33.9626 69.9646 34.0674C70.1454 34.1024 70.3458 34.2246 70.5045 34.4036C70.4608 34.4874 70.4052 34.5897 70.1607 34.5897C69.915 34.5897 69.4489 34.6923 69.1878 34.8734C68.9272 35.0543 68.654 35.1147 68.2775 35.1553ZM63.0651 30.71C63.0374 30.9308 62.9287 31.1396 62.8097 31.3554C62.8097 31.3554 63.2072 33.183 64.644 33.3242C64.644 33.3242 64.6158 32.9456 64.1904 32.6567C63.764 32.3681 63.1282 31.9207 63.1731 31.2415C63.1731 31.2415 63.2865 31.2646 63.4913 31.5193C63.6961 31.7736 64.1439 32.5094 64.8367 32.5153C64.8367 32.5153 64.7347 32.1701 64.4283 31.9711C64.1218 31.7736 63.7295 31.5193 63.5536 31.213C63.377 30.9076 63.1898 30.7666 63.0651 30.7101V30.71ZM62.1117 32.4813C62.195 32.7253 62.7393 33.4893 62.977 33.707C63.2154 33.9254 63.7953 34.5028 64.1041 34.7921C64.1041 34.7921 63.222 34.5738 62.7265 34.1249C62.7265 34.1249 62.3728 34.3302 62.1156 34.3302H62.1015C61.8444 34.3302 61.4914 34.1249 61.4914 34.1249C60.9952 34.5738 60.1129 34.7921 60.1129 34.7921C60.4226 34.5028 61.0018 33.9254 61.2403 33.7071C61.4786 33.4891 62.0229 32.7253 62.1069 32.4812H62.1117V32.4813Z" fill="#585960"/>
<path d="M62.1143 34.5099C62.3091 34.5099 62.495 34.4322 62.5975 34.3877C62.495 34.6061 62.2969 34.9459 62.1104 35.087H62.1062C61.919 34.9459 61.723 34.6061 61.6195 34.3877C61.723 34.4323 61.906 34.5099 62.1015 34.5099H62.1143Z" fill="#585960"/>
<path d="M62.8687 38.5859L66.3203 33.7672L66.6724 34.0196L66.6926 32.8887L65.6483 33.2857L65.9787 33.5229C64.9543 34.9543 63.9296 36.3854 62.9045 37.8163L61.3416 34.995L61.1489 35.2875L59.7578 37.3817L59.4107 37.1502L59.4053 38.2647L60.4601 37.8471L60.1071 37.6136C60.2983 37.325 61.0529 36.1895 61.3053 35.8096L62.8687 38.5859Z" fill="#585960"/>
<path d="M63.4993 36.6928C63.2664 36.3428 63.0321 35.9908 62.9127 35.8097C62.8252 35.9715 62.6471 36.2884 62.4501 36.6395L62.2035 36.1998L62.8756 34.9951L63.0689 35.2876L63.7604 36.3287L63.4993 36.6928ZM64.2102 37.0064L64.4592 37.3816L64.8071 37.1503L64.8133 38.2648L63.757 37.8472L64.1095 37.6137C64.0566 37.5323 64.0032 37.4512 63.9491 37.3706L64.2102 37.0064ZM71.1598 29.6534C70.9009 29.3739 70.465 29.6148 70.0236 30.0191C69.5826 30.4222 69.3053 30.8357 69.5625 31.1152C69.8007 31.373 70.2574 31.1536 70.6983 30.7502C71.139 30.3463 71.4165 29.9325 71.1597 29.6534H71.1598Z" fill="#585960"/>
<path d="M70.448 34.6198C70.4628 34.6087 70.4754 34.5965 70.4884 34.5846C70.7227 34.3799 70.8569 34.0657 70.8569 33.7222C70.8569 33.0612 70.3179 32.5241 69.6545 32.5241C68.9919 32.5241 68.4534 33.0612 68.4534 33.7222C68.4534 33.8118 68.471 33.9574 68.471 33.9574C68.4173 33.8548 68.2185 33.3984 68.1788 33.3154C68.3574 32.6701 68.951 32.1957 69.6544 32.1957C70.2602 32.1957 70.7838 32.5465 71.0322 33.055C70.9374 32.4509 70.6353 31.9074 70.4221 31.706C70.1668 31.4656 69.7303 31.3888 69.7303 31.3888C70.0162 31.4343 70.3923 31.2593 70.8132 30.8742C71.2126 30.5083 71.419 30.1893 71.4309 29.9224C71.4054 30.2996 71.4175 30.5108 71.5242 30.8164C71.67 31.2348 72.0667 32.0041 71.9252 32.8729C71.8471 33.3504 71.5 34.0607 70.92 34.6408C70.7956 34.7718 70.749 34.9639 70.7348 35.0648C70.7348 35.0648 69.8782 35.0648 69.6747 35.0823C69.6747 35.0823 69.4714 35.0648 69.4746 34.9377C69.4788 34.8114 69.5916 34.7791 69.6922 34.7791C69.7941 34.7791 70.2196 34.789 70.4481 34.6198H70.448ZM64.8072 34.8669C64.0777 34.4682 63.3652 33.8555 62.7219 32.8768L62.6072 32.6844C62.7816 32.7617 63.0088 32.7086 63.0088 32.7086C63.0193 32.7252 63.0469 32.7684 63.0616 32.7925C63.6605 33.6744 64.3244 34.231 65.0033 34.5947L64.8072 34.867V34.8669ZM65.7095 34.9089C66.2615 35.1088 66.8113 35.2134 67.333 35.2931C67.6721 35.345 68.0041 35.3627 68.3224 35.347C68.317 35.3994 68.3183 35.4693 68.3488 35.5205C68.3488 35.5205 68.285 35.5944 68.285 35.6771C67.9497 35.6897 67.614 35.6699 67.2825 35.618C66.714 35.531 66.1131 35.4153 65.5115 35.1886L65.7095 34.9089ZM69.6271 35.1806C69.7283 35.1642 70.0487 35.1722 70.2408 35.202C70.4505 35.2351 70.6912 35.2782 70.7161 35.3938C70.7409 35.5037 70.6643 35.6206 70.5569 35.7868C70.4903 35.8896 70.3345 35.8311 70.2471 35.7986C70.1607 35.766 69.6672 35.5024 69.5866 35.4153C69.5075 35.3283 69.4746 35.2058 69.6271 35.1806ZM69.1221 35.5056C69.1759 35.4717 69.3046 35.4226 69.439 35.4734C69.5719 35.5237 70.0592 35.8096 70.0917 35.9437C70.1239 36.0772 70.058 36.1457 69.9829 36.1753C69.9074 36.2049 69.8143 36.2333 69.7484 36.2397C69.6277 36.2495 69.5075 36.1787 69.4456 36.1029C69.384 36.0264 69.1557 35.7516 69.1221 35.6902C69.0899 35.629 69.0724 35.5381 69.1221 35.5056ZM69.0636 35.8067C69.1337 35.8855 69.3309 36.1237 69.3545 36.1626C69.3772 36.2015 69.3432 36.2629 69.2812 36.2566C69.2192 36.2504 68.8845 36.2156 68.6925 36.0842C68.4996 35.9533 68.3709 35.7014 68.5038 35.6092C68.6352 35.5165 68.8409 35.5579 69.0636 35.8067ZM68.9556 35.0792C69.019 35.0638 69.2719 34.9994 69.3277 35.083C69.3967 35.187 69.3476 35.2985 69.151 35.393C68.9543 35.487 68.5838 35.562 68.51 35.4606C68.4374 35.3582 68.5394 35.1864 68.9556 35.0792Z" fill="#585960"/>
</g>
<defs>
<clipPath id="clip0">
<rect width="82" height="50" fill="white"/>
</clipPath>
</defs>
</svg>
