<svg width="74" height="27" viewBox="0 0 74 27" fill="none" xmlns="http://www.w3.org/2000/svg">
<g clip-path="url(#clip0)">
<path d="M49.1783 5.69392V18.3194C49.1783 18.4102 49.1422 18.4973 49.0779 18.5615C49.0136 18.6257 48.9264 18.6617 48.8354 18.6617H46.2525C46.2074 18.6617 46.1629 18.6529 46.1213 18.6357C46.0797 18.6185 46.0419 18.5932 46.01 18.5615C45.9782 18.5297 45.9529 18.4919 45.9357 18.4504C45.9185 18.4089 45.9096 18.3644 45.9096 18.3194V5.69392C45.9096 5.64897 45.9185 5.60446 45.9357 5.56293C45.9529 5.5214 45.9782 5.48366 46.01 5.45187C46.0419 5.42009 46.0797 5.39487 46.1213 5.37767C46.1629 5.36047 46.2074 5.35161 46.2525 5.35161H48.8354C48.9264 5.35161 49.0136 5.38768 49.0779 5.45187C49.1422 5.51607 49.1783 5.60314 49.1783 5.69392ZM69.309 5.35161H66.4181C66.3437 5.35211 66.2715 5.37675 66.2123 5.42182C66.1532 5.46689 66.1104 5.52995 66.0903 5.60147L63.8026 13.0623L61.2998 5.59398C61.2767 5.52612 61.2329 5.4672 61.1745 5.42551C61.1162 5.38382 61.0462 5.36147 60.9744 5.36161H58.9571C58.8853 5.36147 58.8153 5.38382 58.7569 5.42551C58.6985 5.4672 58.6547 5.52612 58.6317 5.59398L56.1288 13.0623L53.8112 5.59398C53.7911 5.52245 53.7482 5.4594 53.6891 5.41433C53.6299 5.36925 53.5577 5.34461 53.4833 5.34412H50.6C50.5457 5.3444 50.4923 5.35745 50.444 5.38219C50.3957 5.40693 50.354 5.44268 50.3222 5.48654C50.2901 5.5302 50.2691 5.58091 50.2608 5.6344C50.2525 5.6879 50.2572 5.74259 50.2746 5.79387L54.5295 18.4243C54.5525 18.4922 54.5963 18.5511 54.6547 18.5928C54.7131 18.6345 54.7831 18.6569 54.8549 18.6567H57.15C57.2218 18.6569 57.2918 18.6345 57.3501 18.5928C57.4085 18.5511 57.4523 18.4922 57.4754 18.4243L59.9657 11.0459L62.4561 18.4243C62.4791 18.4922 62.5229 18.5511 62.5813 18.5928C62.6397 18.6345 62.7097 18.6569 62.7815 18.6567H65.0741C65.1459 18.6569 65.2159 18.6345 65.2742 18.5928C65.3326 18.5511 65.3764 18.4922 65.3995 18.4243L69.6544 5.79387C69.6663 5.74191 69.6657 5.68787 69.6526 5.63619C69.6396 5.58451 69.6144 5.53665 69.5793 5.49653C69.5484 5.45322 69.508 5.4176 69.4611 5.39246C69.4142 5.36732 69.3622 5.35334 69.309 5.35161ZM73.6564 5.35161H71.081C70.9901 5.35161 70.9028 5.38768 70.8385 5.45187C70.7742 5.51607 70.7381 5.60314 70.7381 5.69392V18.3194C70.7381 18.4102 70.7742 18.4973 70.8385 18.5615C70.9028 18.6257 70.9901 18.6617 71.081 18.6617H73.664C73.7549 18.6617 73.8421 18.6257 73.9064 18.5615C73.9707 18.4973 74.0069 18.4102 74.0069 18.3194V5.69392C74.0069 5.64833 73.9977 5.6032 73.98 5.56117C73.9623 5.51914 73.9364 5.48107 73.9038 5.44918C73.8711 5.4173 73.8324 5.39224 73.79 5.37549C73.7475 5.35873 73.7021 5.35061 73.6564 5.35161ZM44.4129 18.2395C44.4532 18.275 44.481 18.3226 44.4921 18.3751C44.5032 18.4276 44.4971 18.4823 44.4746 18.5311C44.4521 18.5799 44.4145 18.6202 44.3673 18.6459C44.3202 18.6717 44.2659 18.6816 44.2126 18.6742H41.0465C40.983 18.6743 40.9203 18.6605 40.8628 18.6337C40.8053 18.607 40.7543 18.5679 40.7136 18.5193L40.178 17.8747C38.7254 18.8126 36.9766 19.1811 35.2682 18.9091C33.5598 18.6371 32.0125 17.7439 30.9242 16.4014C29.8359 15.0588 29.2835 13.3619 29.3733 11.6372C29.4631 9.91248 30.1887 8.28186 31.4105 7.0592C32.6323 5.83653 34.264 5.10823 35.9914 5.01447C37.7189 4.92072 39.42 5.46813 40.7674 6.55135C42.1148 7.63458 43.0133 9.17705 43.2898 10.8819C43.5664 12.5867 43.2015 14.3334 42.2654 15.7858L44.4129 18.2395ZM38.1382 15.416L36.7541 13.742C36.7211 13.703 36.7 13.6554 36.6933 13.6048C36.6865 13.5543 36.6944 13.5029 36.716 13.4566C36.7376 13.4104 36.7719 13.3713 36.8151 13.3439C36.8582 13.3166 36.9082 13.3021 36.9593 13.3022H39.8601C40.0022 12.882 40.0749 12.4415 40.0754 11.9979C40.0754 9.91158 38.5211 8.11508 36.3861 8.11508C34.2512 8.11508 32.6969 9.91408 32.6969 11.9979C32.6969 14.0818 34.2512 15.8558 36.3861 15.8558C36.9982 15.8612 37.6014 15.7098 38.1382 15.416ZM21.4665 18.1645C21.5441 18.6917 21.3789 18.9141 21.2162 18.9141C21.0535 18.9141 20.8057 18.7017 20.5354 18.2794C20.2651 17.8572 20.17 17.3874 20.3027 17.1476C20.3515 17.0638 20.4309 17.0022 20.5242 16.9757C20.6175 16.9491 20.7175 16.9597 20.8032 17.0051C21.2463 17.17 21.4215 17.8522 21.4665 18.1645ZM18.9987 19.3114C19.5343 19.7636 19.697 20.3108 19.4141 20.6781C19.3282 20.7844 19.2184 20.8689 19.0936 20.9249C18.9688 20.9809 18.8325 21.0068 18.6958 21.0004C18.3968 21.0011 18.1071 20.8967 17.8774 20.7056C17.3918 20.2808 17.2492 19.5937 17.5645 19.2064C17.6352 19.1267 17.723 19.064 17.8214 19.0229C17.9198 18.9818 18.0262 18.9634 18.1327 18.969C18.4526 18.9784 18.7591 19.0995 18.9987 19.3114ZM18.1026 23.6714C20.4078 23.6714 22.9082 24.461 25.6763 26.9196C25.9542 27.1695 26.3221 26.8597 26.0818 26.5548C23.3612 23.1167 20.8458 22.4646 18.3354 21.9124C15.2669 21.2378 13.6876 19.5112 12.5863 17.6198C12.3686 17.2425 12.2684 17.31 12.2484 17.7947C12.2262 18.5134 12.2765 19.2324 12.3986 19.941C12.2759 19.941 12.1483 19.941 12.0257 19.941C10.4529 19.941 8.91541 19.4754 7.60771 18.603C6.30002 17.7307 5.28084 16.4908 4.67907 15.0401C4.07731 13.5895 3.91998 11.9933 4.227 10.4534C4.53402 8.91345 5.29159 7.49902 6.40389 6.38896C7.5162 5.27889 8.93328 4.52306 10.4759 4.21705C12.0185 3.91104 13.6174 4.0686 15.0704 4.6698C16.5233 5.27099 17.765 6.28883 18.6384 7.59457C19.5119 8.90031 19.9778 10.4353 19.9773 12.0054C19.9783 12.3134 19.9616 12.6213 19.9272 12.9274C19.0895 12.8223 18.2429 12.8064 17.4018 12.8799C17.1015 12.9049 17.1516 13.0473 17.3718 13.0873C19.9998 13.5621 21.8069 15.1886 22.2174 18.137C22.2194 18.1516 22.2258 18.1653 22.2358 18.1762C22.2457 18.1871 22.2588 18.1947 22.2733 18.198C22.2877 18.2012 22.3028 18.2 22.3165 18.1945C22.3302 18.1889 22.3419 18.1793 22.35 18.167C23.7127 15.8913 24.2827 13.2295 23.9711 10.5965C23.6595 7.96354 22.4839 5.50755 20.6274 3.61157C18.771 1.7156 16.3383 0.486239 13.7086 0.115238C11.079 -0.255762 8.40025 0.252453 6.09025 1.56062C3.78025 2.86879 1.96886 4.90335 0.938589 7.347C-0.0916793 9.79064 -0.282897 12.506 0.394759 15.0695C1.07241 17.633 2.58084 19.9005 4.68478 21.5185C6.78872 23.1364 9.36987 24.0138 12.0257 24.0137C13.7902 24.0137 15.5372 23.6714 18.1026 23.6714Z" fill="#585960"/>
</g>
<defs>
<clipPath id="clip0">
<rect width="74" height="27" fill="white"/>
</clipPath>
</defs>
</svg>
