<svg width="101" height="46" viewBox="0 0 101 46" fill="none" xmlns="http://www.w3.org/2000/svg">
<g clip-path="url(#clip0)">
<path fill-rule="evenodd" clip-rule="evenodd" d="M47.5145 8.42245V9.46804H53.4797V8.42245C54.1369 8.30205 54.7336 7.95999 55.1714 7.45273C55.6092 6.94547 55.8618 6.30333 55.8876 5.6323C55.918 5.0615 55.7263 4.50118 55.3531 4.06993C54.9798 3.63867 54.4543 3.3703 53.8877 3.32161L54.0199 2.88836H52.1522L52.0142 3.46603H51.3131C51.3996 3.35232 51.4615 3.22171 51.4949 3.08256C51.5283 2.94341 51.5324 2.79879 51.5069 2.65796C51.4815 2.51712 51.4271 2.38317 51.3472 2.26469C51.2673 2.1462 51.1637 2.04578 51.043 1.96986V1.64636H51.5832V0.543011H51.043V0H49.9454V0.543011H49.4224V1.64636H49.9626V1.94675C49.8375 2.02149 49.7298 2.1222 49.6465 2.24214C49.5632 2.36209 49.5063 2.49852 49.4797 2.64231C49.453 2.78611 49.4572 2.93397 49.4919 3.07601C49.5266 3.21806 49.5911 3.35103 49.681 3.46603H48.9742L48.8477 2.88836H46.9915L47.1122 3.29851C46.5451 3.34578 46.0187 3.61374 45.6451 4.04533C45.2716 4.47692 45.0804 5.03803 45.1123 5.60919C45.1348 6.28281 45.385 6.92861 45.8217 7.44005C46.2584 7.9515 46.8555 8.29802 47.5145 8.42245Z" fill="#2B2A29"/>
<path fill-rule="evenodd" clip-rule="evenodd" d="M99.3449 27.6067C93.4315 27.4392 87.495 26.0528 82.547 22.6618C81.3057 20.7959 78.9668 19.7388 76.9669 18.9647C76.2773 17.0873 74.3291 16.1341 72.5878 15.4525C72.3876 14.9588 72.062 14.5266 71.6434 14.1991C71.2249 13.8717 70.7282 13.6605 70.2029 13.5866C69.8466 13.4826 68.7202 13.3382 68.1628 13.1764C66.7606 12.7663 65.2434 12.1655 63.7665 13.0205C60.7839 14.5166 64.7205 17.4685 60.3184 18.2715C60.5633 17.5222 60.859 16.7907 61.2034 16.0821C60.0023 15.9262 58.1691 15.6547 57.5829 15.2849C57.5939 14.7948 57.6732 14.3087 57.8185 13.8408C57.8185 13.8408 58.0427 14.4184 58.0542 14.3665C58.1417 13.8766 58.3558 13.4184 58.6748 13.0378C59.3185 13.1938 61.7091 13.9332 62.008 12.3042C61.4998 12.371 60.984 12.2653 60.5425 12.0038C61.1172 11.7323 62.3011 11.611 62.7091 12.2291C62.7895 12.3273 62.824 12.3446 62.8757 12.2868C63.7033 10.6 61.7264 9.90683 60.9103 9.8895C60.8049 9.65955 60.6272 9.4708 60.4046 9.35226V8.66483C60.7583 8.60539 61.0773 8.41565 61.2993 8.13263C61.5214 7.8496 61.6306 7.49359 61.6057 7.134C61.6265 6.96731 61.6127 6.79809 61.565 6.63706C61.5174 6.47603 61.437 6.32671 61.3289 6.19854C61.2209 6.07038 61.0875 5.96617 60.9373 5.89252C60.7871 5.81887 60.6233 5.77739 60.4563 5.7707L60.4966 5.58006H59.5196L59.4506 5.83424H59.1116C59.167 5.75028 59.1969 5.65194 59.1978 5.55118C59.1977 5.45843 59.1732 5.36736 59.1267 5.28721C59.0803 5.20706 59.0136 5.14068 58.9334 5.09482V4.8753H59.2438V4.3554H58.9334V4.04346H58.4162V4.3554H58.1059V4.8753H58.4162V5.08327C58.3543 5.11826 58.3003 5.16568 58.2574 5.22259C58.2146 5.27949 58.1838 5.34465 58.1671 5.41402C58.1504 5.48338 58.1481 5.55547 58.1603 5.62577C58.1725 5.69608 58.199 5.76311 58.2381 5.82269H57.899L57.83 5.56851H56.8933V5.77647C56.7252 5.783 56.5603 5.82478 56.4092 5.89913C56.2581 5.97349 56.1242 6.07877 56.016 6.20823C55.9077 6.33769 55.8276 6.48847 55.7808 6.65088C55.7339 6.81329 55.7214 6.98376 55.7439 7.15133C55.7242 7.51145 55.8386 7.86605 56.065 8.14591C56.2913 8.42576 56.6133 8.61078 56.968 8.66483V9.35804C56.2603 9.4414 55.5445 9.4239 54.8417 9.30605C54.9003 9.60485 55.0379 9.88223 55.2402 10.109C55.4425 10.3357 55.7019 10.5033 55.9911 10.5943C55.5318 10.8705 55.0419 11.0915 54.5314 11.2528C54.4911 11.2528 55.1061 11.3799 55.0371 11.3972C54.5546 11.7452 54.0161 12.007 53.4452 12.1713C53.405 12.1713 54.0486 12.2464 54.0199 12.2811C53.836 12.3677 52.8706 12.9743 52.8706 12.9743H48.1122C48.1122 12.9743 47.164 12.3677 46.9628 12.2811C46.9341 12.2522 47.5778 12.1944 47.5375 12.1713C46.9767 12.004 46.4481 11.7423 45.9744 11.3972C45.9342 11.3972 46.5491 11.2701 46.4801 11.2528C45.9696 11.0914 45.4797 10.8704 45.0204 10.5943C45.3096 10.5033 45.569 10.3357 45.7713 10.109C45.9735 9.88223 46.1112 9.60485 46.1698 9.30605C45.467 9.4239 44.7511 9.4414 44.0435 9.35804V8.66483C44.3935 8.60693 44.7099 8.42088 44.9317 8.14251C45.1534 7.86414 45.2649 7.51314 45.2446 7.15711C45.2671 6.98924 45.2545 6.81849 45.2077 6.65576C45.1609 6.49303 45.0809 6.3419 44.9728 6.21199C44.8646 6.08208 44.7307 5.97626 44.5796 5.90128C44.4285 5.82629 44.2635 5.78378 44.0952 5.77647L44.1354 5.58584H43.1585L43.0895 5.84002H42.7504C42.7909 5.77698 42.8173 5.7059 42.8278 5.63164C42.8384 5.55739 42.8328 5.48171 42.8115 5.40982C42.7902 5.33793 42.7537 5.27152 42.7045 5.21515C42.6553 5.15878 42.5945 5.11379 42.5263 5.08327V4.8753H42.8366V4.3554H42.5263V4.04346H42.0091V4.3554H41.6988V4.8753H42.0091V5.08327C41.9289 5.12913 41.8622 5.19551 41.8158 5.27566C41.7694 5.35581 41.7448 5.44688 41.7447 5.53963C41.7456 5.64038 41.7755 5.73872 41.831 5.82269H41.4919L41.4229 5.56851H40.446L40.4862 5.75914C40.3192 5.76583 40.1554 5.80732 40.0052 5.88097C39.855 5.95461 39.7216 6.05882 39.6136 6.18699C39.5055 6.31515 39.4251 6.46448 39.3775 6.62551C39.3299 6.78654 39.316 6.95576 39.3368 7.12245C39.3094 7.4865 39.4197 7.84754 39.6455 8.13347C39.8714 8.41939 40.1962 8.60914 40.5552 8.66483V9.35804C40.3378 9.47707 40.1644 9.66347 40.0609 9.8895C39.2162 9.8895 37.2737 10.6 38.0955 12.2868C38.1415 12.3446 38.1817 12.3273 38.2622 12.2291C38.676 11.611 39.8598 11.738 40.4287 12.0038C39.9872 12.2653 39.4714 12.371 38.9633 12.3042C39.2621 13.9332 41.6528 13.1938 42.2964 13.0378C42.6153 13.4186 42.8293 13.8767 42.9171 14.3665C42.9171 14.3665 43.1412 13.7888 43.1527 13.8408C43.2979 14.3087 43.3772 14.7949 43.3883 15.2849C42.8137 15.6489 40.9747 15.9262 39.7678 16.0821C40.1123 16.7907 40.408 17.5222 40.6529 18.2715C36.2738 17.4685 40.2104 14.5224 37.2048 13.0205C35.7221 12.1597 34.2049 12.7663 32.8085 13.1764C32.2338 13.3382 31.1189 13.4826 30.7684 13.5866C30.2431 13.6605 29.7464 13.8717 29.3278 14.1991C28.9093 14.5266 28.5836 14.9588 28.3834 15.4525C26.6594 16.1341 24.6997 17.0873 24.0044 18.9647C22.0045 19.7388 19.6655 20.7959 18.4185 22.6618C13.4992 26.0528 7.56279 27.4392 1.65508 27.6067C0.798805 27.6067 0.235619 27.676 0 28.6176C0 30.2755 1.82748 30.6164 3.03431 30.6164C3.06364 30.7655 3.10398 30.9123 3.15499 31.0554C3.91357 32.4418 5.86748 32.4418 6.97087 32.3378C8.18344 34.0708 10.6603 33.8571 12.2177 33.3487C13.2176 34.5445 16.2117 34.7987 17.8151 34.4463C20.0046 35.1338 21.062 34.8738 21.7516 34.7236C21.6252 35.7576 20.3264 36.5259 19.4816 36.4566V43.8624C19.7726 43.8442 20.0641 43.8862 20.3382 43.9857C20.6123 44.0853 20.8632 44.2403 21.0754 44.4411C21.2876 44.642 21.4566 44.8844 21.5719 45.1535C21.6872 45.4226 21.7464 45.7126 21.7459 46.0055H79.2139C79.2133 45.7126 79.2725 45.4226 79.3878 45.1535C79.5032 44.8844 79.6721 44.642 79.8843 44.4411C80.0965 44.2403 80.3474 44.0853 80.6216 43.9857C80.8957 43.8862 81.1872 43.8442 81.4781 43.8624V36.4566C80.6391 36.5202 79.3403 35.7519 79.2139 34.7236C79.9035 34.8796 80.9379 35.1338 83.1504 34.4463C84.7768 34.8045 87.7766 34.5445 88.7651 33.3545C90.3224 33.8687 92.7878 34.0997 94.0119 32.3436C95.1153 32.4476 97.0692 32.4476 97.8278 31.0612C97.8784 30.9179 97.9187 30.7712 97.9484 30.6221C99.161 30.5933 100.983 30.2813 100.983 28.6176C100.747 27.676 100.19 27.6298 99.3277 27.6067H99.3449ZM22.6711 34.2788C25.8434 33.4123 28.3202 31.5695 30.6132 29.8769C30.9039 30.1331 31.2824 30.2655 31.6686 30.2461C32.0547 30.2267 32.4182 30.057 32.682 29.773C32.9177 30.4142 33.2567 31.1709 34.3371 30.8532C34.521 31.2229 35.1647 32.1934 36.2278 32.0085C37.0956 32.8866 37.5381 32.6382 37.9519 32.5111C38.1706 32.7029 38.4422 32.8234 38.7306 32.8564C39.0191 32.8894 39.3107 32.8335 39.5667 32.696C39.7496 32.8992 39.9945 33.0356 40.2628 33.0837C40.5312 33.1318 40.8079 33.0889 41.0494 32.9617C41.1506 33.0709 41.2843 33.1441 41.4305 33.1701C41.5767 33.1962 41.7273 33.1737 41.8597 33.1061C42.3539 33.4123 43.4803 34.0304 44.0435 34.3077H22.6999L22.6711 34.2788ZM57.1519 34.2788C57.7266 34.0015 58.8415 33.3776 59.3357 33.0772C59.4712 33.1499 59.6271 33.1746 59.7782 33.1473C59.9294 33.1201 60.067 33.0425 60.169 32.927C60.4105 33.0542 60.6871 33.0971 60.9555 33.049C61.2239 33.0009 61.4688 32.8645 61.6517 32.6613C61.9075 32.7996 62.1993 32.856 62.4879 32.823C62.7765 32.7899 63.0482 32.669 63.2665 32.4765C63.663 32.6035 64.1055 32.8577 64.9905 31.9739C66.0537 32.1818 66.7146 31.2114 66.8812 30.8185C67.9444 31.1363 68.3007 30.3795 68.5363 29.7383C68.8002 30.0223 69.1637 30.192 69.5498 30.2114C69.9359 30.2308 70.3144 30.0984 70.6052 29.8423C72.9039 31.5349 75.375 33.3776 78.5472 34.2441L57.1519 34.2788Z" fill="#2B2A29"/>
<path fill-rule="evenodd" clip-rule="evenodd" d="M80.8287 37.0113V43.3253C80.3082 43.3866 79.8205 43.6128 79.4362 43.971C79.0519 44.3293 78.7909 44.8011 78.6909 45.3182H22.2401C22.1407 44.8028 21.8814 44.3322 21.4993 43.9742C21.1173 43.6161 20.6322 43.3889 20.1138 43.3253V36.9709C20.644 36.8422 21.1301 36.5727 21.5213 36.1906C21.9126 35.8086 22.1945 35.3279 22.3378 34.7988H45.1526C46.8967 35.587 48.7013 36.2322 50.5488 36.7283C52.3773 36.2312 54.1628 35.5859 55.8876 34.7988H78.6219C78.7574 35.3332 79.034 35.8209 79.4225 36.2103C79.8109 36.5997 80.2967 36.8765 80.8287 37.0113Z" fill="#FEFEFE"/>
<path fill-rule="evenodd" clip-rule="evenodd" d="M59.192 28.4964V19.8313C59.2131 18.7707 59.4871 17.7307 59.9908 16.7985C57.6608 16.469 55.4765 15.4654 53.7038 13.9102H47.3823C45.6112 15.4644 43.429 16.4679 41.1011 16.7985C41.605 17.7306 41.879 18.7707 41.8999 19.8313V28.4964C41.8999 29.9117 41.6815 30.1889 40.8827 31.3847L40.9114 31.4136C43.7848 33.6665 47.049 34.8276 50.5603 35.5382C54.053 34.9461 57.3572 33.5329 60.2034 31.4136L60.2322 31.3847C59.4334 30.2294 59.2207 29.9174 59.215 28.4964H59.192ZM50.5373 34.5908C47.5516 33.9733 44.7002 32.8229 42.1183 31.1941C42.7504 30.4431 42.8079 29.3513 42.7964 28.4733V19.9237C42.7695 19.0584 42.6006 18.2035 42.2964 17.3935C43.7848 17.3126 46.7732 15.6605 47.5777 14.8113H53.4969C54.3015 15.6605 57.2898 17.3126 58.7782 17.3935C58.4742 18.2035 58.3053 19.0584 58.2782 19.9237V28.479C58.2782 29.3513 58.3242 30.4489 58.9564 31.1999C56.3716 32.8217 53.5211 33.9698 50.5373 34.5908Z" fill="#FEFEFE"/>
<path fill-rule="evenodd" clip-rule="evenodd" d="M78.0358 35.8154H52.5545C51.4052 36.162 50.4627 36.3931 50.4627 36.3931C50.4627 36.3931 49.6352 36.1909 48.3651 35.8154H22.9068C22.7475 36.2259 22.504 36.598 22.1921 36.9076C21.8802 37.2171 21.5069 37.4571 21.0966 37.612V42.6666C21.5206 42.7756 21.9097 42.9922 22.2267 43.2956C22.5437 43.5991 22.7778 43.9792 22.9068 44.3996H78.0416C78.1706 43.9792 78.4047 43.5991 78.7217 43.2956C79.0386 42.9922 79.4278 42.7756 79.8518 42.6666V37.5889C79.4361 37.4493 79.057 37.2174 78.7426 36.9103C78.4282 36.6033 78.1867 36.2291 78.0358 35.8154ZM77.8577 36.2718C77.9775 36.6388 78.1783 36.9738 78.445 37.2519C78.7117 37.5299 79.0374 37.7439 79.3978 37.8777V42.3893C79.0357 42.4907 78.705 42.6827 78.4366 42.9473C78.1683 43.212 77.9711 43.5408 77.8634 43.9028H23.1079C23.0031 43.5358 22.8066 43.2019 22.537 42.9329C22.2673 42.6639 21.9337 42.4688 21.5678 42.3662V37.8546C21.9223 37.7106 22.2426 37.4931 22.5079 37.2164C22.7733 36.9398 22.9777 36.61 23.1079 36.2487L48.4973 36.214C49.5662 36.5433 50.5317 36.7917 50.5317 36.7917C50.5317 36.7917 51.2615 36.5837 52.2557 36.2718H77.8577Z" fill="#2B2A29"/>
<path fill-rule="evenodd" clip-rule="evenodd" d="M60.5311 30.3222C61.054 28.6816 60.9333 27.0526 60.8989 25.3022C60.4334 25.5333 60.5426 25.516 60.0598 25.3716V28.5083C59.9919 29.1505 60.1595 29.7954 60.5311 30.3222Z" fill="#FEFEFE"/>
<path fill-rule="evenodd" clip-rule="evenodd" d="M63.9561 24.2158C63.3616 23.7966 62.8328 23.2904 62.3873 22.7139C62.1553 22.9278 61.8568 23.0544 61.5425 23.072C61.6689 23.2395 63.0654 25.273 63.9561 24.2158Z" fill="#FEFEFE"/>
<path fill-rule="evenodd" clip-rule="evenodd" d="M62.7551 24.8398L62.5425 24.9727C62.8643 26.3707 63.8183 27.4914 64.6113 27.2314C64.1587 26.5076 63.794 25.7318 63.5252 24.9207C63.2723 25.1807 62.939 24.9149 62.7551 24.8398Z" fill="#FEFEFE"/>
<path fill-rule="evenodd" clip-rule="evenodd" d="M67.4674 20.623C67.4674 20.9985 67.3007 21.0621 66.9846 21.2007C67.2432 21.5127 69.3695 23.4305 70.0477 22.3561C69.1564 21.8267 68.2949 21.2482 67.4674 20.623Z" fill="#FEFEFE"/>
<path fill-rule="evenodd" clip-rule="evenodd" d="M71.835 21.7262C71.4845 21.4373 69.5765 20.5304 68.6743 19.9585C68.5249 20.3224 68.4387 20.3455 68.0996 20.5362C69.2777 21.316 70.8753 22.8006 71.835 21.7262Z" fill="#FEFEFE"/>
<path fill-rule="evenodd" clip-rule="evenodd" d="M68.4788 22.7777C67.6888 22.4243 66.9877 21.8972 66.4272 21.2354C66.3123 21.4318 66.0882 21.8419 65.7089 21.813C66.433 22.5293 67.8812 23.8291 68.4788 22.7777Z" fill="#FEFEFE"/>
<path fill-rule="evenodd" clip-rule="evenodd" d="M65.1916 21.9053C65.0537 22.223 64.3986 22.3616 64.3986 22.3616C64.6284 22.5927 66.4272 24.5972 67.0536 23.517C66.3965 23.0238 65.7743 22.4853 65.1916 21.9053Z" fill="#FEFEFE"/>
<path fill-rule="evenodd" clip-rule="evenodd" d="M63.8469 22.4023C63.755 22.824 63.2722 22.8414 63.0481 22.8529C63.278 23.1938 65.2261 25.1232 65.7261 24.118C65.0486 23.6054 64.4195 23.0311 63.8469 22.4023Z" fill="#FEFEFE"/>
<path fill-rule="evenodd" clip-rule="evenodd" d="M60.8299 23.0146C60.7035 23.2861 60.0771 23.315 60.0598 23.2803C60.2035 23.6211 61.439 25.435 62.2781 24.5108C62.1287 24.4357 60.8414 22.9857 60.8299 23.0146Z" fill="#FEFEFE"/>
<path fill-rule="evenodd" clip-rule="evenodd" d="M60.4449 22.7025L60.0541 22.1826C60.0541 22.4483 60.0541 22.5754 60.0541 22.8527C60.1985 22.8538 60.338 22.8002 60.4449 22.7025Z" fill="#FEFEFE"/>
<path fill-rule="evenodd" clip-rule="evenodd" d="M61.8643 22.529C61.6924 22.2179 61.4598 21.9448 61.1805 21.7261C60.9506 22.1131 60.7379 22.0438 60.4219 22.0034C60.9161 22.685 61.3069 22.8352 61.8643 22.529Z" fill="#FEFEFE"/>
<path fill-rule="evenodd" clip-rule="evenodd" d="M63.3527 22.2979C63.324 22.0553 62.7148 21.7202 62.4275 21.3447C62.4275 21.6856 62.1172 21.6971 61.7551 21.7202C61.9907 21.9513 62.6804 22.8351 63.3527 22.2979Z" fill="#FEFEFE"/>
<path fill-rule="evenodd" clip-rule="evenodd" d="M64.5423 21.7897C64.3699 21.4489 63.9217 21.212 63.6573 20.9463C63.6113 21.3276 63.3585 21.3449 62.9447 21.3795C63.255 21.6395 64.1113 22.3789 64.5423 21.7897Z" fill="#FEFEFE"/>
<path fill-rule="evenodd" clip-rule="evenodd" d="M65.7262 21.1427C65.3452 20.9407 64.9918 20.6903 64.6745 20.3975C64.6509 20.5167 64.5882 20.6245 64.4964 20.7036C64.3304 20.7774 64.1484 20.8072 63.9677 20.7903C64.186 20.9405 65.117 22.0843 65.7262 21.1427Z" fill="#FEFEFE"/>
<path fill-rule="evenodd" clip-rule="evenodd" d="M66.956 20.5996C66.956 20.201 66.3238 19.9179 66.094 19.7446C66.0078 20.2183 65.6112 20.2703 65.163 20.2414C65.5135 20.5823 66.6629 21.1946 66.956 20.5996Z" fill="#FEFEFE"/>
<path fill-rule="evenodd" clip-rule="evenodd" d="M68.2375 19.7043C67.8869 19.4386 67.5421 19.1267 67.2088 18.8667C66.9732 19.3519 66.433 19.1324 66.2664 19.3635C66.5077 19.5079 67.8122 20.7961 68.2375 19.7043Z" fill="#FEFEFE"/>
<path fill-rule="evenodd" clip-rule="evenodd" d="M71.927 20.9002C71.9733 20.8073 72.0402 20.7263 72.1224 20.6633C72.1971 20.5767 72.3638 20.4554 72.3983 20.4034C71.6224 20.259 69.9099 18.913 69.4042 18.4277C69.1168 18.6299 68.6916 18.7917 67.7146 18.5259C68.9904 19.5138 70.4214 20.5247 71.927 20.9002Z" fill="#FEFEFE"/>
<path fill-rule="evenodd" clip-rule="evenodd" d="M74.5877 20.0626C74.7601 19.4387 73.7372 19.5369 72.2258 18.3642C71.6051 17.8443 70.927 17.2089 70.0592 17.6941C69.9156 17.7923 69.9213 18.0407 69.9213 18.2371C70.9787 19.3174 73.0303 20.7384 74.5877 20.0626Z" fill="#FEFEFE"/>
<path fill-rule="evenodd" clip-rule="evenodd" d="M73.1395 20.698C74.967 22.3964 77.3519 24.3143 80.0012 24.3143C80.3 24.1698 80.2023 23.9157 80.1564 23.6673C78.1674 22.9216 76.3119 21.8564 74.6624 20.5132C74.1593 20.6077 73.6506 20.6694 73.1395 20.698Z" fill="#FEFEFE"/>
<path fill-rule="evenodd" clip-rule="evenodd" d="M72.6626 20.8481L72.2661 21.2121L72.2258 21.241C72.2258 21.241 72.2258 21.2698 72.2661 21.2814C72.4235 21.4979 72.4952 21.7656 72.4672 22.0324C74.0246 23.3668 75.4728 24.447 77.6393 24.8687C77.7223 24.8445 77.7974 24.7986 77.857 24.7357C77.9165 24.6728 77.9584 24.5951 77.9784 24.5106C75.9555 23.7063 74.1386 22.4545 72.6626 20.8481Z" fill="#FEFEFE"/>
<path fill-rule="evenodd" clip-rule="evenodd" d="M77.2715 25.2619C76.7504 25.2213 76.2481 25.0483 75.8118 24.7593C76.4324 26.7927 78.122 27.9076 77.2715 25.2619Z" fill="#FEFEFE"/>
<path fill-rule="evenodd" clip-rule="evenodd" d="M75.036 24.4298C74.3882 24.133 73.7785 23.7586 73.22 23.3149C73.6912 24.2854 75.3463 27.9363 76.4324 26.781C75.8853 26.0492 75.4172 25.2611 75.036 24.4298Z" fill="#FEFEFE"/>
<path fill-rule="evenodd" clip-rule="evenodd" d="M72.1338 22.3384C71.8465 22.6445 71.5591 22.581 71.1683 22.6157C71.743 23.7075 72.8924 26.9309 74.5475 26.5092C74.4153 26.5727 72.4096 22.9507 72.1338 22.3384Z" fill="#FEFEFE"/>
<path fill-rule="evenodd" clip-rule="evenodd" d="M70.6568 22.6099C70.358 22.8294 70.0247 23.1875 69.6282 23.1124C70.1684 23.9212 71.651 27.5085 73.0418 26.538C71.9581 25.4295 71.1421 24.0855 70.6568 22.6099Z" fill="#FEFEFE"/>
<path fill-rule="evenodd" clip-rule="evenodd" d="M69.0248 23.1069C68.9585 23.238 68.8585 23.3488 68.7352 23.428C68.612 23.5072 68.4699 23.5519 68.3237 23.5575C69.1283 25.7989 72.2373 29.8657 74.3866 30.091C74.5245 30.091 75.0647 30.0217 74.9268 29.8946C72.4696 28.1149 70.4506 25.7929 69.0248 23.1069Z" fill="#FEFEFE"/>
<path fill-rule="evenodd" clip-rule="evenodd" d="M67.8123 23.6092L67.5766 23.563C67.4387 23.846 67.3295 24.1002 67.002 24.21C68.8294 28.5945 71.3753 30.1369 71.9844 29.3108C70.0833 27.8471 68.6361 25.8694 67.8123 23.6092Z" fill="#FEFEFE"/>
<path fill-rule="evenodd" clip-rule="evenodd" d="M66.4675 24.2622C66.367 24.2531 66.2683 24.2298 66.1744 24.1929C66.0858 24.4267 65.9108 24.6171 65.6859 24.7243C66.0077 25.6948 68.6053 30.7668 70.0477 29.519C68.4316 28.099 67.1998 26.2904 66.4675 24.2622Z" fill="#FEFEFE"/>
<path fill-rule="evenodd" clip-rule="evenodd" d="M67.3007 28.5371C67.2088 29.005 67.0364 29.6925 66.9674 30.2355C67.5996 30.3279 67.8697 29.8427 67.9789 29.3054L67.3007 28.5371Z" fill="#FEFEFE"/>
<path fill-rule="evenodd" clip-rule="evenodd" d="M66.9043 28.0806C66.1601 27.1089 65.5779 26.0223 65.1802 24.863C64.8076 24.8993 64.4328 24.8207 64.1056 24.6377C64.4504 26.1396 65.3871 28.4157 66.9043 28.0806Z" fill="#FEFEFE"/>
<path fill-rule="evenodd" clip-rule="evenodd" d="M65.8239 28.3984C65.6897 29.3974 65.4568 30.3805 65.1285 31.333C66.5595 31.333 66.4905 29.6 66.7721 28.566C66.4463 28.6286 66.109 28.569 65.8239 28.3984Z" fill="#FEFEFE"/>
<path fill-rule="evenodd" clip-rule="evenodd" d="M65.3584 28.1905C65.3584 28.1443 65.1457 28.0288 64.9906 27.8613C64.9267 27.7865 64.8709 27.7052 64.8239 27.6187C64.7262 27.6995 64.3412 27.6533 64.2492 27.6649C64.4101 28.0346 63.7952 31.8126 63.4677 32.0552C64.8009 32.7195 65.071 29.5654 65.3584 28.1905Z" fill="#FEFEFE"/>
<path fill-rule="evenodd" clip-rule="evenodd" d="M63.8699 27.6588C63.4369 27.4389 63.0474 27.1413 62.7206 26.7808C62.7206 28.5138 62.6803 30.6569 61.916 32.2167C63.4964 33.2969 63.7895 28.4907 63.8699 27.6588Z" fill="#FEFEFE"/>
<path fill-rule="evenodd" clip-rule="evenodd" d="M62.1345 25.0596C62.0368 25.1809 61.4334 25.3715 61.3127 25.256C61.4046 27.041 61.4966 29.1264 60.9506 30.8363C61.1649 31.0002 61.3917 31.1469 61.6287 31.2753C61.2647 31.6318 60.881 31.9674 60.4794 32.2805C60.4407 32.3196 60.4113 32.367 60.3932 32.4191C62.5195 33.147 62.5023 26.1398 62.1345 25.0596Z" fill="#FEFEFE"/>
<path fill-rule="evenodd" clip-rule="evenodd" d="M60.8241 24.9382C60.5351 24.6051 60.2809 24.2432 60.0656 23.8579V24.84C60.169 25.019 60.4104 25.0133 60.8241 24.9382Z" fill="#FEFEFE"/>
<path fill-rule="evenodd" clip-rule="evenodd" d="M69.0477 14.1181C67.8122 13.7773 66.6628 13.2863 65.3295 13.344C64.5078 13.4076 63.2952 14.0834 63.2377 15.077C63.4331 17.5784 63.2377 18.5431 60.1862 19.0399C60.0652 19.8638 60.0229 20.6976 60.0597 21.5296C60.2164 21.5939 60.389 21.6081 60.554 21.5701C60.9965 21.4488 60.4448 21.0733 60.2839 20.5072C60.3988 20.4552 60.531 20.3801 60.6229 20.4609C60.8132 20.6763 60.9916 20.9019 61.1574 21.1368C61.4217 21.4545 62.209 21.339 61.8872 20.9808C61.6688 20.7324 61.2608 20.2703 61.3125 20.1317C61.5309 19.9237 61.732 20.0219 61.8872 20.2183C62.1573 20.5534 62.6918 21.2235 63.2032 20.8826C63.4791 20.7613 62.6285 19.8544 62.5653 19.7273C62.5021 19.6002 62.732 19.4673 62.7895 19.5193C63.2492 19.9237 63.6917 20.6747 64.3181 20.2819C64.502 19.9815 64.2894 19.7042 63.594 19.1265L63.9273 18.8608C64.2032 19.0745 65.1744 20.1374 65.6514 19.6522C66.1283 19.167 64.5652 18.6008 64.4043 18.312C64.4925 18.2066 64.5885 18.1081 64.6916 18.0174C64.8583 18.1214 66.5134 19.3749 66.9904 18.2716C66.459 18.0323 65.9478 17.7503 65.4617 17.4282C65.3123 17.3357 65.4617 17.1047 65.5881 17.0065C68.7949 18.9417 69.5707 17.8903 69.3983 17.5841C68.2451 17.3444 67.131 16.9438 66.0881 16.3941C66.0747 16.2114 66.1147 16.0287 66.2031 15.8684C66.4846 16.0186 71.1108 18.1791 71.0074 16.4461C69.5366 16.2919 68.1199 15.804 66.8639 15.0193C66.7203 14.8749 66.9042 14.5398 67.0478 14.4936C68.3466 15.2792 70.1741 16.0822 71.7142 15.5796C71.4556 14.4069 70.0362 14.3896 69.0477 14.1181Z" fill="#FEFEFE"/>
<path fill-rule="evenodd" clip-rule="evenodd" d="M72.7373 16.2209C72.289 16.0245 71.9614 16.2844 71.5304 16.2844C71.6741 16.4808 71.5304 16.8621 71.4327 17.0296C73.4958 18.5835 73.4384 18.5547 74.5877 19.0514C75.0467 19.2165 75.5516 19.1958 75.9957 18.9937C75.5762 17.2838 74.1337 16.9314 72.7373 16.2209Z" fill="#FEFEFE"/>
<path fill-rule="evenodd" clip-rule="evenodd" d="M81.7769 22.9739C80.5241 21.2409 78.7081 20.4149 76.806 19.583C76.2816 19.7627 75.7259 19.8315 75.1739 19.7852C75.2023 19.8726 75.2078 19.9659 75.1896 20.056C75.1715 20.1461 75.1304 20.2299 75.0704 20.2993C75.3348 20.4842 82.2712 25.0593 81.7769 22.9739Z" fill="#FEFEFE"/>
<path fill-rule="evenodd" clip-rule="evenodd" d="M98.3335 29.9236C99.6438 30.0334 100.448 29.0109 100.058 28.6585C99.8909 28.2657 99.2702 28.2541 99.0289 28.2484C92.5177 27.948 86.4951 26.2381 82.3114 23.4248C81.9896 24.3837 81.2598 24.0776 80.6851 23.8292C80.7943 24.0834 80.6851 24.2855 80.5184 24.5975C85.0527 27.8382 92.2706 29.9178 98.3335 29.9236Z" fill="#FEFEFE"/>
<path fill-rule="evenodd" clip-rule="evenodd" d="M97.029 30.5357C90.4948 30.3393 85.3802 28.4272 79.8977 24.9092C79.6736 24.7994 79.1622 24.8514 78.5243 24.6377C78.5243 24.6377 78.1795 25.1576 77.9496 25.2154C77.9759 25.442 78.028 25.6649 78.1048 25.8797C81.231 29.184 96.437 33.9382 97.029 30.5357Z" fill="#FEFEFE"/>
<path fill-rule="evenodd" clip-rule="evenodd" d="M92.8396 32.2112C87.5295 31.5428 82.44 29.6702 77.9554 26.7349C77.9554 27.0237 77.8519 27.9711 76.7026 27.0468C76.6434 27.1754 76.5393 27.2776 76.41 27.3341C76.2807 27.3905 76.1353 27.3972 76.0015 27.353C76.8692 28.93 91.3397 35.3884 92.8396 32.2112Z" fill="#FEFEFE"/>
<path fill-rule="evenodd" clip-rule="evenodd" d="M87.5812 33.1812C82.7884 32.0259 78.6162 30.3507 74.6912 26.9308C74.0533 27.0464 73.4901 26.59 72.697 27.1908C75.0417 30.2582 84.2538 35.9194 87.5812 33.1812Z" fill="#FEFEFE"/>
<path fill-rule="evenodd" clip-rule="evenodd" d="M82.4091 33.9615C78.961 32.9506 77.8117 31.9396 75.3808 30.4203C74.2774 31.1193 73.1568 30.3799 72.3465 29.7676C72.2775 29.8196 71.7718 29.86 71.7316 29.9986C75.0015 32.5289 78.8461 34.7529 82.4091 33.9615Z" fill="#FEFEFE"/>
<path fill-rule="evenodd" clip-rule="evenodd" d="M58.7093 5.26855C58.7855 5.26855 58.8586 5.29899 58.9125 5.35315C58.9664 5.40732 58.9967 5.48079 58.9967 5.55739C58.9967 5.63399 58.9664 5.70746 58.9125 5.76163C58.8586 5.8158 58.7855 5.84623 58.7093 5.84623C58.6331 5.84623 58.56 5.8158 58.5062 5.76163C58.4523 5.70746 58.422 5.63399 58.422 5.55739C58.422 5.48079 58.4523 5.40732 58.5062 5.35315C58.56 5.29899 58.6331 5.26855 58.7093 5.26855Z" fill="#FEFEFE"/>
<path fill-rule="evenodd" clip-rule="evenodd" d="M42.3022 5.26855C42.3784 5.26855 42.4515 5.29899 42.5054 5.35315C42.5593 5.40732 42.5896 5.48079 42.5896 5.55739C42.5896 5.63399 42.5593 5.70746 42.5054 5.76163C42.4515 5.8158 42.3784 5.84623 42.3022 5.84623C42.226 5.84623 42.1529 5.8158 42.0991 5.76163C42.0452 5.70746 42.0149 5.63399 42.0149 5.55739C42.0149 5.48079 42.0452 5.40732 42.0991 5.35315C42.1529 5.29899 42.226 5.26855 42.3022 5.26855Z" fill="#FEFEFE"/>
<path fill-rule="evenodd" clip-rule="evenodd" d="M49.8478 1.28822V0.918515H50.319V0.444824H50.6926V0.918515H51.1638V1.28822H50.6926V1.76192H50.319V1.28822H49.8478Z" fill="#FEFEFE"/>
<path d="M50.5028 3.43137C50.8361 3.43137 51.1062 3.15981 51.1062 2.82482C51.1062 2.48983 50.8361 2.21826 50.5028 2.21826C50.1696 2.21826 49.8994 2.48983 49.8994 2.82482C49.8994 3.15981 50.1696 3.43137 50.5028 3.43137Z" fill="#FEFEFE"/>
<path fill-rule="evenodd" clip-rule="evenodd" d="M48.0547 8.96565V8.54395H52.951V8.96565H48.0547Z" fill="#FEFEFE"/>
<path fill-rule="evenodd" clip-rule="evenodd" d="M50.2098 8.02391L49.1064 3.91088H49.7214L50.5029 6.93211L51.2845 3.89355H51.8994L50.8018 8.02391H50.2098Z" fill="#FEFEFE"/>
<path fill-rule="evenodd" clip-rule="evenodd" d="M50.5028 5.1991L50.2557 3.92822H50.75L50.5028 5.1991Z" fill="#FEFEFE"/>
<path fill-rule="evenodd" clip-rule="evenodd" d="M52.6349 3.37939L51.3591 8.02388H51.9281L53.2843 3.37939H52.6349Z" fill="#FEFEFE"/>
<path fill-rule="evenodd" clip-rule="evenodd" d="M53.7384 3.80127C53.3246 5.21657 52.9051 6.62031 52.4971 8.0356C54.2211 8.0356 55.2613 6.78783 55.3015 5.64982C55.3166 5.2014 55.1648 4.76345 54.8757 4.42159C54.5866 4.07972 54.1811 3.85854 53.7384 3.80127Z" fill="#FEFEFE"/>
<path fill-rule="evenodd" clip-rule="evenodd" d="M48.3766 3.37939L49.6524 8.02388H49.0834L47.7214 3.37939H48.3766Z" fill="#FEFEFE"/>
<path fill-rule="evenodd" clip-rule="evenodd" d="M47.2732 3.80127C47.6985 5.19924 48.1065 6.62031 48.5145 8.0356C46.7905 8.0356 45.7503 6.78783 45.7101 5.64404C45.6964 5.1966 45.8489 4.76007 46.1379 4.41944C46.4268 4.07881 46.8315 3.85845 47.2732 3.80127Z" fill="#FEFEFE"/>
<path fill-rule="evenodd" clip-rule="evenodd" d="M58.7954 4.32666V4.5404H59.0081V4.7137H58.7954V4.92744H58.6173V4.7137H58.4047V4.5404H58.6173V4.32666H58.7954Z" fill="#FEFEFE"/>
<path fill-rule="evenodd" clip-rule="evenodd" d="M58.8299 6.17529L58.7093 6.83384L58.6173 6.17529H58.8299Z" fill="#FEFEFE"/>
<path fill-rule="evenodd" clip-rule="evenodd" d="M58.7094 7.76389C58.8243 7.23243 58.968 6.70675 59.0944 6.17529H59.4047L58.8818 8.33579H58.5427L58.0427 6.17529H58.3531C58.4507 6.70675 58.6174 7.23243 58.7094 7.76389Z" fill="#FEFEFE"/>
<path fill-rule="evenodd" clip-rule="evenodd" d="M59.9621 8.66504V9.00587H57.468V8.66504H59.9621Z" fill="#FEFEFE"/>
<path fill-rule="evenodd" clip-rule="evenodd" d="M57.6232 8.32984L57.0485 6.12891C56.9243 6.13017 56.8019 6.15803 56.6893 6.21062C56.5767 6.26322 56.4765 6.33934 56.3955 6.43391C56.3145 6.52848 56.2544 6.63933 56.2194 6.75906C56.1843 6.8788 56.1751 7.00467 56.1922 7.12828C56.1865 7.3088 56.2217 7.48825 56.2952 7.65305C56.3688 7.81785 56.4786 7.96367 56.6165 8.07946C56.7544 8.19525 56.9167 8.27796 57.0911 8.32134C57.2655 8.36472 57.4475 8.36763 57.6232 8.32984Z" fill="#FEFEFE"/>
<path fill-rule="evenodd" clip-rule="evenodd" d="M57.6232 5.90381H57.3071L57.9508 8.33581H58.2209L57.6232 5.90381Z" fill="#FEFEFE"/>
<path fill-rule="evenodd" clip-rule="evenodd" d="M59.7667 8.32984L60.3414 6.12891C60.4656 6.13017 60.588 6.15803 60.7006 6.21062C60.8132 6.26322 60.9134 6.33934 60.9944 6.43391C61.0754 6.52848 61.1355 6.63933 61.1705 6.75906C61.2056 6.8788 61.2148 7.00467 61.1977 7.12828C61.2034 7.3088 61.1682 7.48825 61.0947 7.65305C61.0211 7.81785 60.9113 7.96367 60.7734 8.07946C60.6355 8.19525 60.4732 8.27796 60.2988 8.32134C60.1244 8.36472 59.9424 8.36763 59.7667 8.32984Z" fill="#FEFEFE"/>
<path fill-rule="evenodd" clip-rule="evenodd" d="M59.8012 5.90381H60.1172L59.4679 8.33581H59.1978L59.8012 5.90381Z" fill="#FEFEFE"/>
<path fill-rule="evenodd" clip-rule="evenodd" d="M42.3827 4.32666V4.5404H42.5953V4.7137H42.3827V4.92744H42.2103V4.7137H41.9977V4.5404H42.2103V4.32666H42.3827Z" fill="#FEFEFE"/>
<path fill-rule="evenodd" clip-rule="evenodd" d="M42.4171 6.17529L42.2965 6.83384L42.1758 6.17529H42.4171Z" fill="#FEFEFE"/>
<path fill-rule="evenodd" clip-rule="evenodd" d="M42.2964 7.76389C42.4114 7.23243 42.555 6.70675 42.6815 6.17529H42.9918L42.4688 8.33579H42.1298L41.6068 6.17529H41.9171C42.0378 6.70675 42.1815 7.23243 42.2964 7.76389Z" fill="#FEFEFE"/>
<path fill-rule="evenodd" clip-rule="evenodd" d="M43.5492 8.67676V9.01758H41.0436V8.67676H43.5492Z" fill="#FEFEFE"/>
<path fill-rule="evenodd" clip-rule="evenodd" d="M41.216 8.32984L40.6413 6.12891C40.5146 6.13052 40.3898 6.15964 40.2753 6.21425C40.1609 6.26887 40.0595 6.34771 39.9782 6.44536C39.8969 6.54301 39.8375 6.65717 39.8042 6.78002C39.7709 6.90288 39.7643 7.03153 39.785 7.15716C39.7837 7.33527 39.8222 7.5114 39.8976 7.67257C39.973 7.83374 40.0834 7.97584 40.2208 8.08838C40.3581 8.20093 40.5188 8.28105 40.6911 8.32284C40.8633 8.36463 41.0427 8.36702 41.216 8.32984Z" fill="#FEFEFE"/>
<path fill-rule="evenodd" clip-rule="evenodd" d="M41.2102 5.90381H40.8942L41.5378 8.33581H41.8079L41.2102 5.90381Z" fill="#FEFEFE"/>
<path fill-rule="evenodd" clip-rule="evenodd" d="M43.3826 8.33033L43.9572 6.1294C44.0824 6.12902 44.2061 6.15567 44.3201 6.20754C44.4341 6.25941 44.5357 6.3353 44.618 6.43006C44.7003 6.52482 44.7613 6.63625 44.797 6.75679C44.8328 6.87734 44.8423 7.0042 44.825 7.12877C44.8312 7.3105 44.7958 7.49122 44.7216 7.65707C44.6475 7.82291 44.5365 7.96948 44.3972 8.0855C44.258 8.20152 44.0941 8.28391 43.9182 8.32635C43.7423 8.36879 43.5591 8.37015 43.3826 8.33033Z" fill="#FEFEFE"/>
<path fill-rule="evenodd" clip-rule="evenodd" d="M43.3883 5.90381H43.7044L43.055 8.33581H42.7849L43.3883 5.90381Z" fill="#FEFEFE"/>
<path fill-rule="evenodd" clip-rule="evenodd" d="M43.7044 14.9326L43.8825 15.0597L43.6757 15.1579L43.7044 14.9326Z" fill="#FEFEFE"/>
<path fill-rule="evenodd" clip-rule="evenodd" d="M47.526 12.9805H46.8364C46.7502 13.0903 46.6525 13.1942 46.5376 13.3156C46.4365 13.1843 46.391 13.0182 46.4112 12.8534C46.5868 12.7544 46.7889 12.7133 46.989 12.7361C47.1891 12.7589 47.377 12.8444 47.526 12.9805Z" fill="#FEFEFE"/>
<path fill-rule="evenodd" clip-rule="evenodd" d="M46.7444 12.3624C46.2272 12.7957 45.1468 12.1429 45.0204 11.854C45.4054 11.854 45.4916 11.7154 45.664 11.6865C45.885 11.7032 46.0987 11.7734 46.2868 11.8911C46.4749 12.0088 46.6319 12.1705 46.7444 12.3624Z" fill="#FEFEFE"/>
<path fill-rule="evenodd" clip-rule="evenodd" d="M45.1698 14.1357L45.3767 14.1935C45.302 14.229 45.2308 14.2716 45.1641 14.3206C45.1853 14.2611 45.1873 14.1964 45.1698 14.1357Z" fill="#FEFEFE"/>
<path fill-rule="evenodd" clip-rule="evenodd" d="M44.8251 13.4365C45.4745 13.5521 45.7101 13.1939 45.6066 12.7896C45.8135 12.9109 45.9457 13.0611 46.256 13.5579L45.8078 13.8871C45.4498 13.8159 45.1133 13.6616 44.8251 13.4365Z" fill="#FEFEFE"/>
<path fill-rule="evenodd" clip-rule="evenodd" d="M43.4573 13.7545C43.5983 13.7246 43.7258 13.6491 43.8202 13.5396C43.9146 13.4301 43.9708 13.2925 43.9802 13.1479C44.1272 13.2191 44.2575 13.321 44.3623 13.4467C44.4671 13.5724 44.5441 13.7191 44.5881 13.877C44.6321 14.0349 44.6422 14.2005 44.6177 14.3626C44.5931 14.5248 44.5345 14.6798 44.4457 14.8174C44.0262 15.06 43.509 14.1589 43.4573 13.7545Z" fill="#FEFEFE"/>
<path fill-rule="evenodd" clip-rule="evenodd" d="M42.8424 11.8769C43.2389 11.7844 43.3711 11.3627 43.4171 11.1548C43.6929 11.3281 44.1527 11.8191 43.9918 12.1715C43.6182 12.3621 43.1412 12.0791 42.8424 11.8769Z" fill="#FEFEFE"/>
<path fill-rule="evenodd" clip-rule="evenodd" d="M43.7964 12.5356C43.8862 12.5474 43.9776 12.535 44.0611 12.4996C44.1446 12.4642 44.2172 12.4072 44.2716 12.3343C44.326 12.2614 44.3601 12.1754 44.3705 12.0849C44.3809 11.9944 44.3672 11.9028 44.3308 11.8193C44.588 11.8803 44.8164 12.0285 44.9776 12.2389C45.1388 12.4494 45.2229 12.7092 45.2158 12.9747C44.9572 13.3271 43.9918 12.9285 43.7964 12.5356Z" fill="#FEFEFE"/>
<path fill-rule="evenodd" clip-rule="evenodd" d="M45.5549 11.3688C45.0606 11.7269 44.4055 11.6923 43.6067 10.82C43.9515 10.7501 44.3078 10.7634 44.6464 10.8588C44.9851 10.9542 45.2964 11.129 45.5549 11.3688Z" fill="#FEFEFE"/>
<path fill-rule="evenodd" clip-rule="evenodd" d="M45.3997 9.78016C45.2456 10.0306 45.0203 10.2289 44.7529 10.3494C44.4856 10.4699 44.1884 10.507 43.8998 10.456C42.9505 10.2888 41.9811 10.2713 41.0264 10.404L40.9172 10.1499C41.3253 9.01185 44.4285 10.0805 45.3997 9.78016Z" fill="#FEFEFE"/>
<path fill-rule="evenodd" clip-rule="evenodd" d="M39.9 12.5758C40.3794 12.5981 40.85 12.4417 41.2218 12.1367C41.2218 11.9461 40.8023 11.6284 40.6471 11.5591C39.9288 11.3569 39.1472 11.1894 38.4921 11.6688C38.2564 10.6695 39.7736 10.3979 40.6471 10.3979C40.9345 11.2702 41.7448 11.819 42.2735 12.5411C42.1585 12.57 40.2851 13.0552 39.9 12.5758Z" fill="#FEFEFE"/>
<path fill-rule="evenodd" clip-rule="evenodd" d="M42.3712 11.8131C41.9157 11.5323 41.5241 11.1584 41.2218 10.7156H41.4402C41.5861 10.9237 41.7845 11.0892 42.0149 11.195L42.4344 10.6982C42.624 10.6982 42.8194 10.6982 43.0091 10.7387C42.9918 11.4203 42.8079 11.5012 42.3712 11.8131Z" fill="#FEFEFE"/>
<path fill-rule="evenodd" clip-rule="evenodd" d="M42.5953 12.547C42.8482 12.4603 42.8597 12.5008 42.9344 12.2466L43.3079 12.5527C43.4292 12.6741 43.5124 12.8285 43.5472 12.9969C43.5819 13.1654 43.5667 13.3403 43.5033 13.5001C42.9344 13.4655 42.7448 12.986 42.5953 12.547Z" fill="#FEFEFE"/>
<path fill-rule="evenodd" clip-rule="evenodd" d="M40.4747 30.3624C39.9517 28.7218 40.0724 27.0697 40.1069 25.3193C40.5781 25.4811 40.4632 25.406 40.9459 25.3193V28.5081C40.9807 29.16 40.8163 29.8071 40.4747 30.3624Z" fill="#FEFEFE"/>
<path fill-rule="evenodd" clip-rule="evenodd" d="M37.0497 24.2334C37.6441 23.8141 38.1729 23.3078 38.6186 22.7314C38.8505 22.9454 39.149 23.0719 39.4633 23.0896C39.3369 23.2571 37.9289 25.2905 37.0497 24.2334Z" fill="#FEFEFE"/>
<path fill-rule="evenodd" clip-rule="evenodd" d="M38.2507 24.8398L38.4634 24.9727C38.1416 26.3707 37.1876 27.4914 36.3945 27.2314C36.8473 26.5076 37.2119 25.7319 37.4807 24.9207C37.7335 25.198 38.0726 24.9323 38.2507 24.8398Z" fill="#FEFEFE"/>
<path fill-rule="evenodd" clip-rule="evenodd" d="M33.5383 20.6401C33.5383 21.0156 33.705 21.0792 34.021 21.2178C33.7624 21.5297 31.6361 23.4476 30.958 22.3731C31.8496 21.8443 32.711 21.2657 33.5383 20.6401Z" fill="#FEFEFE"/>
<path fill-rule="evenodd" clip-rule="evenodd" d="M29.1708 21.7437C29.5213 21.4549 31.4293 20.5537 32.3315 19.9761C32.4809 20.34 32.5671 20.3689 32.9062 20.5537C31.7338 21.3336 30.1362 22.8182 29.1708 21.7437Z" fill="#FEFEFE"/>
<path fill-rule="evenodd" clip-rule="evenodd" d="M32.5269 22.7948C33.3169 22.4414 34.018 21.9143 34.5785 21.2524C34.6934 21.4488 34.9175 21.859 35.2968 21.8301C34.5727 22.5291 33.1303 23.852 32.5269 22.7948Z" fill="#FEFEFE"/>
<path fill-rule="evenodd" clip-rule="evenodd" d="M35.8141 21.9517C35.952 22.2694 36.6072 22.408 36.6072 22.408C36.3773 22.6391 34.5786 24.6436 33.9521 23.5634C34.6092 23.0702 35.2314 22.5316 35.8141 21.9517Z" fill="#FEFEFE"/>
<path fill-rule="evenodd" clip-rule="evenodd" d="M37.1587 22.4194C37.2507 22.8411 37.7334 22.8585 37.9576 22.87C37.7277 23.2108 35.7795 25.1403 35.2795 24.1351C35.9574 23.6228 36.5864 23.0485 37.1587 22.4194Z" fill="#FEFEFE"/>
<path fill-rule="evenodd" clip-rule="evenodd" d="M40.1816 23.0317C40.308 23.3032 40.9344 23.3263 40.9517 23.2974C40.808 23.6382 39.5724 25.4521 38.7334 24.5278C38.8771 24.4527 40.1644 23.0028 40.1816 23.0317Z" fill="#FEFEFE"/>
<path fill-rule="evenodd" clip-rule="evenodd" d="M40.5609 22.7196L40.9517 22.1997C40.9517 22.4654 40.9517 22.5925 40.9517 22.8698C40.8073 22.8709 40.6678 22.8173 40.5609 22.7196Z" fill="#FEFEFE"/>
<path fill-rule="evenodd" clip-rule="evenodd" d="M39.1472 22.529C39.3194 22.218 39.5519 21.945 39.8311 21.7261C40.061 22.1131 40.2736 22.0438 40.5897 22.0034C40.1184 22.7023 39.7047 22.8525 39.1472 22.529Z" fill="#FEFEFE"/>
<path fill-rule="evenodd" clip-rule="evenodd" d="M37.6531 22.3155C37.6818 22.0728 38.291 21.7378 38.5726 21.3623C38.5726 21.7031 38.8829 21.7147 39.2449 21.7378C39.0151 21.9515 38.3312 22.8585 37.6531 22.3155Z" fill="#FEFEFE"/>
<path fill-rule="evenodd" clip-rule="evenodd" d="M36.4692 21.8073C36.6416 21.4664 37.0899 21.2296 37.3542 20.9639C37.4002 21.3451 37.6531 21.3625 38.0668 21.3971C37.7565 21.6629 36.9002 22.3965 36.4692 21.8073Z" fill="#FEFEFE"/>
<path fill-rule="evenodd" clip-rule="evenodd" d="M35.2795 21.1603C35.6601 20.96 36.0135 20.7115 36.3312 20.4209C36.3532 20.5424 36.4161 20.6525 36.5094 20.7328C36.6751 20.8074 36.8573 20.8372 37.0381 20.8195C36.8254 20.9581 35.8887 22.1019 35.2795 21.1603Z" fill="#FEFEFE"/>
<path fill-rule="evenodd" clip-rule="evenodd" d="M34.0555 20.6172C34.0555 20.2186 34.6877 19.9355 34.9176 19.7622C35.0038 20.2359 35.4003 20.2879 35.8485 20.259C35.5037 20.5998 34.3486 21.2122 34.0555 20.6172Z" fill="#FEFEFE"/>
<path fill-rule="evenodd" clip-rule="evenodd" d="M32.7567 19.7277C33.1073 19.462 33.4521 19.15 33.7854 18.8843C34.021 19.3695 34.567 19.15 34.7279 19.3811C34.4808 19.5255 33.1935 20.7964 32.7567 19.7277Z" fill="#FEFEFE"/>
<path fill-rule="evenodd" clip-rule="evenodd" d="M29.0845 20.9173C29.0391 20.8222 28.9722 20.7391 28.8891 20.6746C28.8144 20.588 28.6478 20.4667 28.6133 20.4205C29.3891 20.276 31.1016 18.9301 31.6131 18.4448C31.9004 18.6412 32.3257 18.8088 33.3027 18.543C32.0154 19.5308 30.5902 20.5418 29.0845 20.9173Z" fill="#FEFEFE"/>
<path fill-rule="evenodd" clip-rule="evenodd" d="M26.4353 20.0797C26.2629 19.4558 27.2858 19.554 28.7972 18.3813C29.4179 17.8614 30.096 17.226 30.9638 17.7112C31.1075 17.8094 31.1017 18.0578 31.1017 18.2542C30.0271 19.3345 27.9754 20.7555 26.4353 20.0797Z" fill="#FEFEFE"/>
<path fill-rule="evenodd" clip-rule="evenodd" d="M27.872 20.7151C26.0445 22.4135 23.6596 24.3314 21.0103 24.3314C20.7115 24.1869 20.8034 23.9328 20.8552 23.6844C22.8442 22.9387 24.6996 21.8735 26.3491 20.5303C26.8522 20.6252 27.3609 20.687 27.872 20.7151Z" fill="#FEFEFE"/>
<path fill-rule="evenodd" clip-rule="evenodd" d="M28.3433 20.8711L28.7398 21.235L28.78 21.2639C28.78 21.2639 28.78 21.2928 28.7398 21.3043C28.5823 21.5209 28.5106 21.7886 28.5386 22.0553C26.9813 23.3897 25.5331 24.47 23.3665 24.8917C23.2835 24.8675 23.2084 24.8216 23.1489 24.7586C23.0893 24.6957 23.0474 24.618 23.0275 24.5335C25.0501 23.7287 26.8668 22.477 28.3433 20.8711Z" fill="#FEFEFE"/>
<path fill-rule="evenodd" clip-rule="evenodd" d="M23.74 25.2789C24.2611 25.2384 24.7633 25.0654 25.1997 24.7764C24.5618 26.8098 22.8838 27.9247 23.74 25.2789Z" fill="#FEFEFE"/>
<path fill-rule="evenodd" clip-rule="evenodd" d="M25.9698 24.4469C26.6176 24.1502 27.2274 23.7758 27.7858 23.332C27.3088 24.3025 25.6595 27.9534 24.5734 26.7981C25.1206 26.0664 25.5887 25.2783 25.9698 24.4469Z" fill="#FEFEFE"/>
<path fill-rule="evenodd" clip-rule="evenodd" d="M28.8719 22.356C29.1592 22.6621 29.4466 22.5986 29.8374 22.6332C29.2627 23.7308 28.1133 26.9485 26.4583 26.5267C26.5904 26.573 28.6076 22.9683 28.8719 22.356Z" fill="#FEFEFE"/>
<path fill-rule="evenodd" clip-rule="evenodd" d="M30.3545 22.6333C30.6534 22.8528 30.9867 23.211 31.3832 23.1359C30.843 23.9446 29.3603 27.532 27.9696 26.5615C29.0533 25.4529 29.8692 24.109 30.3545 22.6333Z" fill="#FEFEFE"/>
<path fill-rule="evenodd" clip-rule="evenodd" d="M31.9809 23.1357C32.0473 23.2668 32.1473 23.3776 32.2706 23.4568C32.3938 23.536 32.5359 23.5807 32.6821 23.5863C31.8775 25.8277 28.7685 29.8945 26.6192 30.1198C26.4813 30.1198 25.9411 30.0505 26.079 29.9234C28.5364 28.1438 30.5554 25.8218 31.9809 23.1357Z" fill="#FEFEFE"/>
<path fill-rule="evenodd" clip-rule="evenodd" d="M33.1935 23.6268L33.4292 23.5806C33.5671 23.8694 33.6763 24.1178 34.0038 24.2276C32.1764 28.6121 29.6305 30.1545 29.0214 29.3284C30.9211 27.8633 32.368 25.8861 33.1935 23.6268Z" fill="#FEFEFE"/>
<path fill-rule="evenodd" clip-rule="evenodd" d="M34.5383 24.2622C34.6387 24.2532 34.7374 24.2298 34.8314 24.1929C34.9199 24.4267 35.0949 24.6171 35.3198 24.7243C34.998 25.6948 32.4005 30.7668 30.9523 29.519C32.5707 28.0999 33.8046 26.2912 34.5383 24.2622Z" fill="#FEFEFE"/>
<path fill-rule="evenodd" clip-rule="evenodd" d="M33.7107 28.5542C33.8027 29.0221 33.9751 29.7095 34.044 30.2525C33.4119 30.345 33.1418 29.8597 33.0326 29.3167L33.7107 28.5542Z" fill="#FEFEFE"/>
<path fill-rule="evenodd" clip-rule="evenodd" d="M34.1016 28.0977C34.8456 27.126 35.4279 26.0393 35.8256 24.8801C36.1983 24.9167 36.5732 24.8381 36.9002 24.6548C36.5554 26.1567 35.6302 28.4328 34.1016 28.0977Z" fill="#FEFEFE"/>
<path fill-rule="evenodd" clip-rule="evenodd" d="M35.1876 28.4155C35.322 29.4145 35.5549 30.3975 35.883 31.3501C34.452 31.3501 34.521 29.6171 34.2394 28.5831C34.5652 28.6457 34.9025 28.5861 35.1876 28.4155Z" fill="#FEFEFE"/>
<path fill-rule="evenodd" clip-rule="evenodd" d="M35.6301 28.2076C35.6301 28.1614 35.8485 28.0459 35.9979 27.8784C36.0615 27.8034 36.1174 27.7221 36.1646 27.6357C36.2565 27.7166 36.6473 27.6704 36.7393 27.682C36.5784 28.0517 37.1933 31.8296 37.5208 32.0723C36.2048 32.7424 35.9405 29.5825 35.6301 28.2076Z" fill="#FEFEFE"/>
<path fill-rule="evenodd" clip-rule="evenodd" d="M37.1359 27.6764C37.5691 27.4567 37.9586 27.1591 38.2852 26.7983C38.2852 28.5314 38.3254 30.6745 39.0898 32.2342C37.5094 33.3145 37.2278 28.5083 37.1359 27.6764Z" fill="#FEFEFE"/>
<path fill-rule="evenodd" clip-rule="evenodd" d="M38.8713 25.0767C38.969 25.198 39.5724 25.3886 39.6874 25.2731C39.5954 27.0581 39.5035 29.1435 40.0494 30.8534C39.8351 31.0172 39.6084 31.164 39.3713 31.2924C39.7355 31.6487 40.1193 31.9842 40.5207 32.2976C40.5595 32.3366 40.589 32.384 40.6069 32.4362C38.5035 33.1641 38.5035 26.1569 38.8713 25.0767Z" fill="#FEFEFE"/>
<path fill-rule="evenodd" clip-rule="evenodd" d="M40.1816 24.9552C40.4704 24.6221 40.7246 24.2601 40.9402 23.875V24.8397C40.8368 25.0419 40.6012 25.0303 40.1816 24.9552Z" fill="#FEFEFE"/>
<path fill-rule="evenodd" clip-rule="evenodd" d="M31.9637 14.1356C33.205 13.7948 34.3716 13.2807 35.6819 13.3615C36.5037 13.4251 37.7105 14.101 37.768 15.0945C37.5669 17.5959 37.768 18.5606 40.8196 19.0574C40.9409 19.8813 40.9832 20.7151 40.946 21.5471C40.7894 21.6118 40.6167 21.626 40.4518 21.5876C40.0093 21.4663 40.5609 21.0908 40.7219 20.5247C40.6069 20.4727 40.4747 20.3976 40.3771 20.4784C40.1869 20.6939 40.0085 20.9195 39.8426 21.1543C39.5782 21.4778 38.7909 21.3565 39.1128 20.9984C39.3311 20.75 39.7392 20.2878 39.6874 20.1492C39.4691 19.9412 39.2679 20.0394 39.1128 20.2358C38.8427 20.5709 38.3082 21.241 37.7967 20.9001C37.5209 20.7788 38.3714 19.8719 38.4346 19.7448C38.4978 19.6177 38.268 19.4849 38.2105 19.5368C37.7508 19.9412 37.3083 20.6922 36.6819 20.2994C36.498 19.999 36.7106 19.7217 37.406 19.144L37.0726 18.8783C36.7968 19.092 35.8256 20.1492 35.3486 19.6697C34.8716 19.1902 36.4347 18.6183 36.5957 18.3295C36.5072 18.2262 36.4111 18.1296 36.3083 18.0407C36.1417 18.1389 34.4866 19.3924 34.0096 18.2948C34.5411 18.0559 35.0523 17.7738 35.5382 17.4514C35.6877 17.359 35.5382 17.128 35.4118 17.0297C32.2051 18.9649 31.4293 17.9136 31.6017 17.6074C32.7512 17.3648 33.8614 16.9623 34.9004 16.4116C34.9137 16.2289 34.8738 16.0462 34.7854 15.886C34.5038 16.0362 29.8776 18.1966 29.9811 16.4636C31.4436 16.3156 32.854 15.8377 34.1073 15.0657C34.251 14.9212 34.0671 14.5862 33.9234 14.54C32.6534 15.3198 30.8316 16.1228 29.3087 15.5971C29.5501 14.4418 30.9753 14.4071 31.9637 14.1356Z" fill="#FEFEFE"/>
<path fill-rule="evenodd" clip-rule="evenodd" d="M28.2685 16.2383C28.7168 16.0477 29.0444 16.3076 29.4754 16.3076C29.3317 16.504 29.4754 16.8853 29.5731 17.0528C27.51 18.6068 27.5847 18.5779 26.4353 19.0631C25.9746 19.2297 25.4674 19.209 25.0216 19.0054C25.4296 17.3301 26.8606 16.9488 28.2685 16.2383Z" fill="#FEFEFE"/>
<path fill-rule="evenodd" clip-rule="evenodd" d="M19.2288 22.991C20.4816 21.258 22.2975 20.4319 24.1997 19.6001C24.7238 19.7809 25.2797 19.8498 25.8318 19.8023C25.8034 19.8897 25.7979 19.983 25.816 20.0731C25.8342 20.1632 25.8753 20.247 25.9353 20.3164C25.6709 20.5013 18.7403 25.0764 19.2288 22.991Z" fill="#FEFEFE"/>
<path fill-rule="evenodd" clip-rule="evenodd" d="M2.67223 29.9406C1.36196 30.0504 0.557403 29.0279 0.948186 28.6755C1.11484 28.2827 1.7355 28.2711 1.97686 28.2596C8.48799 27.9592 14.5106 26.2493 18.6943 23.436C19.0161 24.395 19.746 24.0888 20.3206 23.8404C20.2115 24.0946 20.3206 24.2968 20.4873 24.6087C15.9473 27.8552 8.74085 29.9348 2.67223 29.9406Z" fill="#FEFEFE"/>
<path fill-rule="evenodd" clip-rule="evenodd" d="M3.97681 30.5528C10.5109 30.3564 15.6313 28.4443 21.108 24.9263C21.3321 24.8165 21.8494 24.8685 22.4815 24.6548C22.4815 24.6548 22.8263 25.1747 23.0562 25.2325C23.0301 25.4592 22.978 25.6821 22.901 25.8968C19.7748 29.2068 4.59746 33.9553 3.97681 30.5528Z" fill="#FEFEFE"/>
<path fill-rule="evenodd" clip-rule="evenodd" d="M8.16626 32.2283C13.4763 31.5599 18.5659 29.6873 23.0505 26.752C23.0505 27.0408 23.1539 27.9882 24.309 27.0639C24.3682 27.1925 24.4723 27.2947 24.6016 27.3511C24.7309 27.4076 24.8762 27.4143 25.0101 27.3701C24.1366 28.9529 9.66617 35.4055 8.16626 32.2283Z" fill="#FEFEFE"/>
<path fill-rule="evenodd" clip-rule="evenodd" d="M13.4303 33.1988C18.2231 32.0435 22.3896 30.3682 26.3204 26.9484C26.9583 27.064 27.5214 26.6076 28.3088 27.2084C25.9641 30.2758 16.7519 35.937 13.4303 33.1988Z" fill="#FEFEFE"/>
<path fill-rule="evenodd" clip-rule="evenodd" d="M18.5967 33.9786C22.0448 32.9676 23.1941 31.9567 25.6308 30.4374C26.7341 31.1364 27.8548 30.397 28.6651 29.7847C28.734 29.8367 29.2398 29.8771 29.28 30.0157C26.0043 32.5459 22.1654 34.77 18.5967 33.9786Z" fill="#FEFEFE"/>
<path fill-rule="evenodd" clip-rule="evenodd" d="M57.3128 14.9326L57.1346 15.0597L57.3415 15.1579L57.3128 14.9326Z" fill="#FEFEFE"/>
<path fill-rule="evenodd" clip-rule="evenodd" d="M53.4912 12.9805H54.1808C54.267 13.0903 54.3647 13.1942 54.4797 13.3156C54.5802 13.184 54.6256 13.0181 54.6061 12.8534C54.4305 12.7544 54.2283 12.7133 54.0282 12.7361C53.8282 12.7589 53.6403 12.8444 53.4912 12.9805Z" fill="#FEFEFE"/>
<path fill-rule="evenodd" clip-rule="evenodd" d="M54.2728 12.3624C54.79 12.7957 55.8704 12.1429 55.9969 11.854C55.6118 11.854 55.5256 11.7154 55.3532 11.6865C55.1323 11.7032 54.9186 11.7734 54.7305 11.8911C54.5423 12.0088 54.3853 12.1705 54.2728 12.3624Z" fill="#FEFEFE"/>
<path fill-rule="evenodd" clip-rule="evenodd" d="M55.8474 14.1357L55.6405 14.1935C55.6807 14.1935 55.8129 14.2975 55.8531 14.3206C55.8319 14.2611 55.8299 14.1964 55.8474 14.1357Z" fill="#FEFEFE"/>
<path fill-rule="evenodd" clip-rule="evenodd" d="M56.1864 13.4365C55.5371 13.5521 55.3014 13.1939 55.4049 12.7896C55.198 12.9109 55.0658 13.0611 54.7555 13.5579L55.2037 13.8871C55.5617 13.8159 55.8982 13.6616 56.1864 13.4365Z" fill="#FEFEFE"/>
<path fill-rule="evenodd" clip-rule="evenodd" d="M57.5657 13.7545C57.4246 13.7246 57.2972 13.6491 57.2028 13.5396C57.1084 13.4301 57.0522 13.2925 57.0427 13.1479C56.8957 13.2191 56.7655 13.321 56.6607 13.4467C56.5559 13.5724 56.4789 13.7191 56.4349 13.877C56.3908 14.0349 56.3807 14.2005 56.4053 14.3626C56.4298 14.5248 56.4885 14.6798 56.5772 14.8174C56.991 15.06 57.514 14.1589 57.5657 13.7545Z" fill="#FEFEFE"/>
<path fill-rule="evenodd" clip-rule="evenodd" d="M58.1806 11.8769C57.7841 11.7844 57.6519 11.3627 57.6059 11.1548C57.3301 11.3281 56.8761 11.8191 57.0313 12.1715C57.3991 12.3621 57.876 12.0791 58.1806 11.8769Z" fill="#FEFEFE"/>
<path fill-rule="evenodd" clip-rule="evenodd" d="M57.2209 12.5356C57.131 12.5474 57.0397 12.535 56.9562 12.4996C56.8727 12.4642 56.8 12.4072 56.7457 12.3343C56.6913 12.2614 56.6572 12.1754 56.6468 12.0849C56.6364 11.9944 56.6501 11.9028 56.6864 11.8193C56.4293 11.8803 56.2009 12.0285 56.0397 12.2389C55.8785 12.4494 55.7944 12.7092 55.8014 12.9747C56.06 13.3271 57.0255 12.9285 57.2209 12.5356Z" fill="#FEFEFE"/>
<path fill-rule="evenodd" clip-rule="evenodd" d="M55.4681 11.3688C55.9624 11.727 56.6175 11.6923 57.4106 10.82C57.0667 10.7511 56.7115 10.7649 56.3739 10.8602C56.0363 10.9556 55.7259 11.1299 55.4681 11.3688Z" fill="#FEFEFE"/>
<path fill-rule="evenodd" clip-rule="evenodd" d="M55.5945 9.78016C55.7492 10.0301 55.9746 10.2279 56.2418 10.3483C56.509 10.4687 56.8059 10.5062 57.0944 10.456C58.0437 10.2888 59.0131 10.2713 59.9678 10.404L60.077 10.1499C59.6977 9.01185 56.5887 10.0805 55.5945 9.78016Z" fill="#FEFEFE"/>
<path fill-rule="evenodd" clip-rule="evenodd" d="M61.1173 12.576C60.6274 12.604 60.1452 12.4451 59.7668 12.1312C59.7668 11.9406 60.1863 11.6229 60.3414 11.5535C61.0598 11.3514 61.8414 11.1838 62.4965 11.6633C62.7206 10.6697 61.2092 10.4155 60.33 10.4155C60.0426 11.2878 59.2323 11.8366 58.7036 12.5587C58.8645 12.5702 60.7322 13.0555 61.1173 12.576Z" fill="#FEFEFE"/>
<path fill-rule="evenodd" clip-rule="evenodd" d="M58.6461 11.8131C59.1015 11.5323 59.4931 11.1584 59.7954 10.7156H59.5771C59.4313 10.9239 59.2329 11.0894 59.0024 11.195L58.5829 10.6982C58.3932 10.6982 58.1978 10.6982 58.0082 10.7387C58.0427 11.4203 58.2093 11.5012 58.6461 11.8131Z" fill="#FEFEFE"/>
<path fill-rule="evenodd" clip-rule="evenodd" d="M58.422 12.547C58.1692 12.4603 58.1577 12.5008 58.083 12.2466L57.7094 12.5527C57.5888 12.6745 57.506 12.8289 57.4713 12.9972C57.4366 13.1654 57.4515 13.3402 57.514 13.5001C58.083 13.4655 58.2784 12.986 58.422 12.547Z" fill="#FEFEFE"/>
<path fill-rule="evenodd" clip-rule="evenodd" d="M75.9152 37.9644H74.8923L74.3693 39.6974H74.1337L73.6107 37.9644H72.5878L73.3464 40.1942L72.5246 42.4586H73.5475L74.1222 40.6736H74.3751L74.9498 42.4586H75.9727L75.1509 40.1942L75.9095 37.9644H75.9152ZM69.8926 42.4644L69.7949 41.4073H68.68L68.5823 42.4644H67.6226L68.0593 37.9701H70.4155L70.8523 42.4644H69.8926ZM68.9041 38.9348L68.7605 40.4368H69.7144L69.5765 38.9291L68.9041 38.9348ZM66.0307 41.1184H63.9849V42.4644H63.0251V37.9701H66.025V41.1184H66.0307ZM65.071 38.9348H63.9849V40.1537H65.071V38.9348ZM61.2724 38.9348H60.2494V42.4644H59.2897V38.9348H58.2668V37.9701H61.2666V38.9348H61.2724ZM56.6347 39.3739H55.6577V38.9348H54.7555V41.5055H55.6635V41.0664H56.6232V42.4644H53.7958V37.9701H56.6175V39.3681L56.6347 39.3739ZM51.8246 39.3739H50.8534V38.9348H49.9454V41.5055H50.8534V41.0664H51.8131V42.4644H48.9857V37.9701H51.8074V39.3681L51.8246 39.3739ZM47.1237 42.4644H44.1067V37.9701H47.1237V42.4644ZM46.1468 38.9348H45.0664V41.5055H46.1468V38.9348ZM42.5263 38.9348H40.9804V42.4644H40.0207V37.9701H42.5263V38.9348ZM38.0208 39.3739H37.0726V38.9348H36.1703V41.5055H37.0783V41.0664H38.0381V42.4644H35.2106V37.9701H38.0323V39.3681L38.0208 39.3739ZM33.1131 42.4702H30.119V37.9701H33.1188V42.4644L33.1131 42.4702ZM32.1821 38.9348H31.0787V41.5055H32.1821V38.9348ZM28.2225 41.1184H26.1594V42.4644H25.1997V37.9701H28.1995V41.1184H28.2225ZM27.2456 38.9348H26.1594V40.1537H27.2456V38.9348Z" fill="#2B2A29"/>
<path fill-rule="evenodd" clip-rule="evenodd" d="M50.5431 34.5969C47.5571 33.9773 44.7057 32.8249 42.124 31.1944C42.7562 30.4434 42.8136 29.3516 42.8021 28.4735V19.9298C42.7753 19.0644 42.6064 18.2095 42.3022 17.3996C43.7906 17.3187 46.7789 15.6666 47.5835 14.8174H53.4969C54.3015 15.6666 57.2898 17.3187 58.7782 17.3996C58.474 18.2095 58.3051 19.0644 58.2783 19.9298V28.4851C58.2783 29.3574 58.3242 30.455 58.9564 31.2059C56.3734 32.8272 53.5248 33.9753 50.5431 34.5969Z" fill="#58585F"/>
<path fill-rule="evenodd" clip-rule="evenodd" d="M46.9686 18.1099V31.0382H48.8076V25.0535H53.9797V18.1214L46.9686 18.1099ZM53.9797 28.3924H52.2212V30.1254H53.9797V31.0497H51.273V27.4797H53.9797V28.3924ZM50.6523 26.8674V31.0382H49.4225V25.6716H53.974V26.8616L50.6523 26.8674ZM52.1867 23.1818H48.8076V19.9006H52.181L52.1867 23.1818Z" fill="#FEFEFE"/>
</g>
<defs>
<clipPath id="clip0">
<rect width="101" height="46" fill="white"/>
</clipPath>
</defs>
</svg>
