<svg width="103" height="19" viewBox="0 0 103 19" fill="none" xmlns="http://www.w3.org/2000/svg">
<path d="M26.8473 11.6987C27.2735 12.155 27.7849 12.4869 28.4241 12.7358C29.0633 12.9847 29.7878 13.1092 30.6827 13.1092C31.1088 13.1092 31.535 13.0677 31.8759 13.0262C32.2594 12.9847 32.5577 12.9017 32.856 12.7773C33.1543 12.6943 33.41 12.5699 33.6657 12.4869C33.8788 12.3624 34.0918 12.2795 34.2623 12.1965L33.964 11.5742C33.7935 11.6572 33.6231 11.7402 33.4526 11.8231C33.2822 11.9061 33.1117 11.9476 32.8986 12.0306C32.6856 12.0721 32.4725 12.155 32.2168 12.155C31.9611 12.1965 31.6628 12.1965 31.3219 12.1965C30.6827 12.1965 30.1287 12.0721 29.7451 11.8231C29.319 11.5742 29.0207 11.2424 28.765 10.869C28.5519 10.4541 28.3815 9.95633 28.2962 9.41703C28.211 8.83624 28.1684 8.25546 28.1684 7.5917C28.1684 7.09389 28.211 6.55458 28.2536 6.01528C28.2962 5.47598 28.4241 5.01965 28.6372 4.6048C28.8502 4.18996 29.1059 3.85808 29.4894 3.56769C29.873 3.31878 30.3844 3.15284 31.0236 3.15284C31.6202 3.15284 32.1316 3.31878 32.5577 3.60917C32.9839 3.89956 33.2396 4.39738 33.3674 5.01965H34.0492V2.9869C33.8362 2.90393 33.6231 2.82096 33.3674 2.73799C33.1117 2.65502 32.856 2.61354 32.5577 2.57205C32.2594 2.53057 32.0037 2.53057 31.7054 2.48908C31.4497 2.48908 31.194 2.4476 30.981 2.4476C30.0434 2.4476 29.2764 2.57205 28.5945 2.82096C27.9553 3.06987 27.4013 3.44323 26.9752 3.89956C26.549 4.3559 26.2507 4.93668 26.0377 5.60044C25.8246 6.26419 25.7393 7.0524 25.7393 7.8821C25.7393 8.67031 25.8246 9.41703 26.0377 10.0393C26.1655 10.7445 26.4638 11.2838 26.8473 11.6987Z" fill="#585960"/>
<path d="M68.5246 12.7773C69.036 12.7358 69.5474 12.5699 69.9309 12.3624C70.357 12.1135 70.698 11.7817 70.911 11.3253C71.1667 10.869 71.2946 10.2467 71.2946 9.45852C71.2946 8.87773 71.2094 8.4214 71.0389 8.00655C70.8684 7.5917 70.6127 7.30131 70.2292 7.01092C69.8457 6.76201 69.3769 6.59607 68.7803 6.47162C68.1837 6.34716 67.4593 6.30568 66.6069 6.30568H65.712V3.85808C65.712 3.60917 65.7547 3.44323 65.8825 3.36026C66.0103 3.27729 66.2234 3.27729 66.5643 3.27729H67.8428C68.2263 3.27729 68.5672 3.27729 68.8229 3.31878C69.0786 3.36026 69.2917 3.40175 69.4195 3.5262C69.59 3.65066 69.7178 3.81659 69.8031 4.02402C69.8883 4.23144 70.0161 4.52183 70.1014 4.8952H70.6554V2.61354H62.8142V2.94541C62.8568 2.94541 62.8995 2.9869 63.0273 2.9869C63.1551 3.02838 63.2404 3.06987 63.283 3.11135C63.3256 3.15284 63.3682 3.23581 63.4108 3.36026C63.4108 3.48472 63.4535 3.60917 63.4535 3.77511V11.6987C63.4535 11.8646 63.4535 12.0306 63.4108 12.1135C63.4108 12.238 63.3682 12.321 63.283 12.3624C63.2404 12.4039 63.1551 12.4869 63.0273 12.4869C62.8995 12.5284 62.8568 12.5284 62.8142 12.5284V12.8603H66.7774C67.4166 12.8603 67.9706 12.8603 68.5246 12.7773ZM65.9251 12.0306C65.8399 11.9476 65.7973 11.8646 65.7973 11.7402C65.7973 11.6157 65.7547 11.4498 65.7547 11.2424V6.92795H66.6496C67.4592 6.92795 68.0559 7.13537 68.3968 7.55022C68.7377 7.96507 68.9081 8.62882 68.9081 9.54148C68.9081 10.1638 68.8655 10.6201 68.7377 10.9935C68.6098 11.3668 68.482 11.6157 68.2689 11.8231C68.0559 11.9891 67.8428 12.1135 67.6297 12.1965C67.374 12.238 67.1183 12.2795 66.8626 12.2795C66.6069 12.238 66.3939 12.238 66.266 12.1965C66.1382 12.155 66.0103 12.1135 65.9251 12.0306Z" fill="#585960"/>
<path d="M57.3169 12.5284C57.2743 12.5284 57.2317 12.4869 57.1038 12.4869C56.976 12.4454 56.8908 12.4039 56.8482 12.3624C56.8055 12.321 56.7629 12.238 56.7203 12.1135C56.7203 11.9891 56.6777 11.8646 56.6777 11.6987V8.83624H57.7431C58.2971 8.83624 58.8084 8.79476 59.3198 8.71179C59.8312 8.62882 60.2573 8.46288 60.6409 8.25546C61.0244 8.00655 61.3227 7.71616 61.5358 7.25983C61.7489 6.84498 61.8767 6.26419 61.8767 5.55895C61.8767 4.8952 61.7489 4.3559 61.5784 3.98253C61.3653 3.60917 61.067 3.27729 60.7261 3.06987C60.3852 2.86245 59.959 2.73799 59.4903 2.69651C59.0215 2.65502 58.5527 2.61354 58.0414 2.61354H53.8651V2.94541C53.9077 2.94541 53.9503 2.9869 54.0782 2.9869C54.206 3.02838 54.2913 3.06987 54.3339 3.11135C54.3765 3.15284 54.4191 3.23581 54.4617 3.36026C54.4617 3.48472 54.5043 3.60917 54.5043 3.77511V11.6572C54.5043 11.8231 54.5043 11.9891 54.4617 12.0721C54.4617 12.1965 54.4191 12.2795 54.3339 12.321C54.2913 12.3624 54.206 12.4454 54.0782 12.4454C53.9503 12.4869 53.9077 12.4869 53.8651 12.4869V12.8188H57.3169V12.5284ZM56.7203 3.77511C56.7203 3.69214 56.7203 3.60917 56.7629 3.5262C56.7629 3.44323 56.8055 3.40175 56.8482 3.36026C56.8908 3.31878 56.976 3.27729 57.1038 3.27729C57.2317 3.27729 57.3595 3.23581 57.5726 3.23581C57.8283 3.23581 58.084 3.27729 58.3397 3.31878C58.5954 3.40175 58.7658 3.5262 58.9789 3.69214C59.1494 3.85808 59.2772 4.10699 59.405 4.39738C59.4903 4.68777 59.5329 5.06114 59.5329 5.47598C59.5329 6.34716 59.405 7.01092 59.1494 7.46725C58.8937 7.92358 58.4249 8.17249 57.7857 8.17249H56.7203V3.77511Z" fill="#585960"/>
<path d="M52.4588 10.4956H51.777C51.6918 10.9105 51.6065 11.2009 51.5213 11.4498C51.4361 11.6987 51.3508 11.8646 51.1804 11.9891C51.0525 12.1135 50.8395 12.1965 50.5838 12.1965C50.3281 12.238 49.9872 12.238 49.5184 12.238C49.0923 12.238 48.7513 12.238 48.5383 12.1965C48.2826 12.155 48.1121 12.1135 47.9843 12.0306C47.8564 11.9476 47.7712 11.8231 47.7712 11.6987C47.7286 11.5328 47.7286 11.3668 47.7286 11.1179V7.8821H49.1349C49.2627 7.8821 49.3906 7.8821 49.561 7.8821C49.7315 7.8821 49.9019 7.92358 50.0724 7.92358C50.2429 7.92358 50.4133 7.96507 50.5838 8.00655C50.7542 8.04803 50.8821 8.08952 51.0099 8.17249V6.84498C50.8821 6.92795 50.7542 6.96943 50.5838 7.01092C50.4133 7.0524 50.2429 7.09389 50.0724 7.09389C49.9019 7.13537 49.7315 7.13537 49.561 7.13537C49.3906 7.13537 49.2627 7.13537 49.1349 7.13537H47.7286V3.73362C47.7286 3.5262 47.7712 3.36026 47.8138 3.27729C47.899 3.19432 48.0269 3.19432 48.24 3.19432H49.3906C49.7741 3.19432 50.115 3.19432 50.3707 3.23581C50.6264 3.27729 50.8395 3.31878 50.9673 3.44323C51.1378 3.56769 51.2656 3.73362 51.3508 3.94105C51.4361 4.14847 51.5639 4.43886 51.6492 4.81223H52.2031V2.61354H44.8734V2.94541C44.916 2.94541 44.9586 2.9869 45.0865 2.9869C45.2143 3.02838 45.2995 3.06987 45.3422 3.11135C45.3848 3.15284 45.4274 3.23581 45.47 3.36026C45.47 3.48472 45.5126 3.60917 45.5126 3.77511V11.6572C45.5126 11.8231 45.5126 11.9891 45.47 12.0721C45.47 12.1965 45.4274 12.2795 45.3422 12.321C45.2995 12.3624 45.2143 12.4454 45.0865 12.4454C44.9586 12.4869 44.916 12.4869 44.8734 12.4869V12.8188H52.4588V10.4956Z" fill="#585960"/>
<path d="M40.8676 12.7773C41.379 12.7358 41.8904 12.5699 42.2739 12.3624C42.7 12.1135 43.041 11.7817 43.2966 11.3253C43.5523 10.869 43.6802 10.2467 43.6802 9.45852C43.6802 8.87773 43.595 8.4214 43.4245 8.00655C43.254 7.5917 42.9983 7.30131 42.6148 7.01092C42.2313 6.76201 41.7625 6.59607 41.1659 6.47162C40.5693 6.34716 39.8448 6.30568 38.9926 6.30568H38.0976V3.85808C38.0976 3.60917 38.1403 3.44323 38.2681 3.36026C38.3959 3.27729 38.609 3.27729 38.9499 3.27729H40.2284C40.6119 3.27729 40.9528 3.27729 41.2085 3.31878C41.4642 3.36026 41.6773 3.40175 41.8051 3.5262C41.9756 3.65066 42.1034 3.81659 42.1887 4.02402C42.2739 4.23144 42.4017 4.52183 42.487 4.8952H43.041V2.61354H35.1998V2.94541C35.2424 2.94541 35.2851 2.9869 35.4129 2.9869C35.5408 3.02838 35.626 3.06987 35.6686 3.11135C35.7112 3.15284 35.7538 3.23581 35.7964 3.36026C35.7964 3.48472 35.8391 3.60917 35.8391 3.77511V11.0764C35.8391 11.0764 35.8391 11.0764 35.8391 11.1179V11.6572C35.8391 11.8231 35.8391 11.9476 35.7964 12.0721C35.7964 12.1965 35.7538 12.2795 35.6686 12.321C35.626 12.3624 35.5408 12.4454 35.4129 12.4454C35.2851 12.4869 35.2424 12.4869 35.1998 12.4869V12.8603H39.163C39.8022 12.8603 40.3136 12.8603 40.8676 12.7773ZM38.2681 12.0306C38.1829 11.9476 38.1403 11.8646 38.1403 11.7402C38.1403 11.6157 38.0976 11.4498 38.0976 11.2424V6.92795H38.9926C39.8022 6.92795 40.3988 7.13537 40.7398 7.55022C41.0807 7.96507 41.2511 8.62882 41.2511 9.54148C41.2511 10.1638 41.2085 10.6201 41.0807 10.9935C40.9528 11.3668 40.825 11.6157 40.6119 11.8231C40.3988 11.9891 40.1858 12.1135 39.9727 12.1965C39.717 12.238 39.4613 12.2795 39.2056 12.2795C38.9499 12.238 38.7795 12.238 38.609 12.1965C38.4812 12.155 38.3533 12.1135 38.2681 12.0306Z" fill="#585960"/>
<path d="M102.915 15.7642H25.6541V16.7598H102.915V15.7642Z" fill="#585960"/>
<path d="M96.7356 9.00218C96.9487 9.29258 97.1192 9.54148 97.3322 9.79039C97.5027 10.0393 97.7158 10.2882 97.8862 10.5371C98.0567 10.786 98.2271 11.0349 98.4402 11.2838C98.6533 11.5742 98.8237 11.8231 98.9942 12.1135C99.1647 12.3624 99.2925 12.6528 99.4204 12.9017L103 12.9432C102.616 12.5699 102.276 12.1965 101.892 11.8231C101.551 11.4498 101.253 11.1179 101.04 10.9105C100.699 10.5371 100.4 10.2052 100.145 9.91485C99.8465 9.58297 99.5908 9.29258 99.3351 9.00218C99.0794 8.71179 98.8237 8.37991 98.6107 8.08952C98.3976 7.79913 98.1419 7.42576 97.9288 7.09389L98.0993 6.88646C98.355 6.55459 98.6533 6.22271 98.9942 5.80786C99.3351 5.39301 99.676 4.97817 100.06 4.6048C100.443 4.18996 100.784 3.81659 101.168 3.48472C101.551 3.15284 101.849 2.90393 102.148 2.69651H99.676C99.5908 2.90393 99.463 3.15284 99.2925 3.44323C99.1221 3.73362 98.9516 4.0655 98.6959 4.39738C98.4828 4.72926 98.2271 5.10262 98.0141 5.47598C97.7584 5.84934 97.5453 6.18122 97.2896 6.5131C97.0339 6.84498 96.8209 7.17686 96.6078 7.42576C96.3947 7.71616 96.2242 7.92358 96.0964 8.131C96.3095 8.4214 96.5225 8.71179 96.7356 9.00218Z" fill="#585960"/>
<path d="M96.4373 12.5284C96.3947 12.5284 96.3521 12.4869 96.2242 12.4869C96.0964 12.4454 96.0112 12.4039 95.9686 12.3624C95.9259 12.321 95.8833 12.238 95.8407 12.1135C95.8407 11.9891 95.7981 11.8646 95.7981 11.6987V3.81659C95.7981 3.65066 95.7981 3.48472 95.8407 3.40175C95.8407 3.27729 95.8833 3.19432 95.9686 3.15284C96.0112 3.11135 96.0964 3.06987 96.2242 3.02838C96.3521 2.9869 96.3947 2.9869 96.4373 2.9869V2.61354H92.9855V2.94541C93.0281 2.94541 93.0707 2.9869 93.1986 2.9869C93.3264 3.02838 93.4117 3.06987 93.4543 3.11135C93.4969 3.15284 93.5395 3.23581 93.5821 3.36026C93.5821 3.48472 93.6247 3.60917 93.6247 3.77511V11.6572C93.6247 11.8231 93.6247 11.9891 93.5821 12.0721C93.5821 12.1965 93.5395 12.2795 93.4543 12.321C93.4117 12.3624 93.3264 12.4454 93.1986 12.4454C93.0707 12.4869 93.0281 12.4869 92.9855 12.4869V12.8188H96.4373V12.5284Z" fill="#585960"/>
<path d="M73.5106 11.6157C73.6384 11.0349 73.8941 10.2052 74.235 9.16812H77.6016L78.0703 10.4956C78.2834 11.0764 78.4539 11.5742 78.5391 11.9891C78.6669 12.4039 78.7522 12.6943 78.7522 12.9017H81.4369C81.3091 12.6943 81.1812 12.4039 81.0107 12.0721C80.8403 11.7402 80.6272 11.2424 80.4141 10.6201L77.9851 3.89956C77.8573 3.60917 77.8146 3.36026 77.772 3.15284C77.7294 2.94541 77.7294 2.77948 77.6868 2.65502H74.6611V2.9869C74.7038 2.9869 74.7464 3.02838 74.8742 3.02838C75.0021 3.06987 75.0873 3.11135 75.1299 3.15284C75.1725 3.19432 75.2151 3.27729 75.2578 3.40175C75.2578 3.48472 75.2578 3.5262 75.2578 3.60917C75.2578 3.85808 75.2151 4.10699 75.1299 4.27293L73.4253 8.33843C73.127 9.08515 72.8287 9.74891 72.6156 10.2467C72.4026 10.7445 72.1895 11.2009 72.0616 11.5328C71.8912 11.8646 71.7633 12.155 71.6355 12.3624C71.5077 12.5699 71.4224 12.7358 71.3372 12.9017H73.2549C73.2975 12.6114 73.3827 12.1965 73.5106 11.6157ZM75.9396 4.31441L77.3459 8.46288H74.4481L75.9396 4.31441Z" fill="#585960"/>
<path d="M85.4853 12.5284H85.4001C85.3575 12.5284 85.3148 12.4869 85.187 12.4869C85.0592 12.4454 84.9739 12.4039 84.9313 12.3624C84.8887 12.321 84.8461 12.238 84.8035 12.1135C84.8035 11.9891 84.7609 11.8646 84.7609 11.6987V7.75764H88.8519V11.6572C88.8519 11.8231 88.8519 11.9891 88.8093 12.0721C88.8093 12.1965 88.7666 12.2795 88.6814 12.321C88.6388 12.3624 88.5536 12.4454 88.4257 12.4454C88.2979 12.4869 88.2553 12.4869 88.2127 12.4869V12.8188H91.6645V12.4869C91.6218 12.4869 91.5792 12.4454 91.4514 12.4454C91.3235 12.4039 91.2383 12.3624 91.1957 12.321C91.1531 12.2795 91.1105 12.1965 91.0678 12.0721C91.0678 11.9476 91.0252 11.8231 91.0252 11.6572V3.73362C91.0252 3.56769 91.0252 3.40175 91.0678 3.31878C91.0678 3.19432 91.1105 3.11135 91.1957 3.06987C91.2383 3.02838 91.3235 2.9869 91.4514 2.94541C91.5792 2.90393 91.6218 2.90393 91.6645 2.90393V2.61354H88.2979V2.94541C88.3405 2.94541 88.3831 2.9869 88.511 2.9869C88.6388 3.02838 88.724 3.06987 88.7667 3.11135C88.8093 3.15284 88.8519 3.23581 88.8945 3.36026C88.8945 3.48472 88.9371 3.60917 88.9371 3.77511V7.0524H84.8461V3.77511C84.8461 3.60917 84.8461 3.44323 84.8887 3.36026C84.8887 3.23581 84.9313 3.15284 85.0165 3.11135C85.0592 3.06987 85.1444 3.02838 85.2722 2.9869C85.4001 2.94541 85.4427 2.94541 85.4853 2.94541V2.61354H82.0335V2.94541C82.0761 2.94541 82.1187 2.9869 82.2466 2.9869C82.3744 3.02838 82.4597 3.06987 82.5023 3.11135C82.5449 3.15284 82.5875 3.23581 82.6301 3.36026C82.6301 3.48472 82.6727 3.60917 82.6727 3.77511V11.6987C82.6727 11.8646 82.6727 11.9891 82.6301 12.1135C82.6301 12.238 82.5875 12.321 82.5023 12.3624C82.4597 12.4039 82.3744 12.4869 82.2466 12.4869C82.1187 12.5284 82.0761 12.5284 82.0335 12.5284V12.8603H85.4853V12.5284Z" fill="#585960"/>
<path d="M18.6227 3.69214C18.4096 3.40175 18.1965 3.11135 17.9834 2.82096L6.17915 9.41703L0.468763 6.22271C0.340918 6.59607 0.255689 6.92795 0.213074 7.30131L6.22176 10.6616L18.6227 3.69214Z" fill="#585960"/>
<path d="M6.17915 11.9061L0.0426148 8.46288C-3.17505e-09 8.67031 0 8.91921 0 9.12664C0 14.5611 4.51717 19 10.1423 19C15.7249 19 20.2847 14.6026 20.2847 9.12664C20.2847 7.50873 19.9011 5.9738 19.1767 4.64629L6.17915 11.9061Z" fill="#585960"/>
<path d="M17.1738 1.99127C16.8755 1.70087 16.5772 1.49345 16.2789 1.24454L6.17915 6.92795L1.32106 4.23144C1.1506 4.52183 0.980141 4.85371 0.809681 5.18559L6.13653 8.17249L17.1738 1.99127Z" fill="#585960"/>
<path d="M15.2561 0.580786C14.8726 0.373362 14.489 0.165939 14.0629 0L6.17915 4.43886L2.64212 2.48908C2.38643 2.73799 2.17336 3.02838 1.91767 3.31878L6.13653 5.68341L15.2561 0.580786Z" fill="#585960"/>
</svg>
