<svg width="99" height="28" viewBox="0 0 99 28" fill="none" xmlns="http://www.w3.org/2000/svg">
<path d="M77.6728 26.4188L88.2047 1.84436H92.8563L98.9999 26.4188H94.6994L93.0318 19.4853H85.2206L82.2366 26.4188H77.6728ZM91.9786 15.3603L90.2233 8.16351L87.0637 15.3603H91.9786ZM55.5557 26.4188L59.4174 1.93212H64.2446L60.9972 22.1183H71.968L71.2658 26.5066H55.5557V26.4188ZM28.2605 26.3311L32.1222 1.93212H47.8323L47.218 6.32042H36.2472L35.2818 11.8497H46.2525L45.5504 16.238H34.5797L33.702 22.1183H44.6728L43.8829 26.4188H28.2605V26.3311ZM4.82702 19.8364C5.26585 22.8204 9.03978 22.9082 11.1462 21.9428C11.8483 21.5039 12.3749 21.0651 12.726 20.363C13.6914 17.8178 11.2339 16.7646 9.56638 15.8869C6.84563 14.5704 3.68606 13.3417 2.89616 10.0066C2.72063 8.51457 2.8084 7.28585 3.51053 5.96936C6.23127 1.14223 13.3403 0.0890373 17.2898 3.68744C17.5531 3.86297 17.7286 4.03851 17.9041 4.3018C18.8696 5.61829 19.3084 7.02255 19.2206 8.6901C19.1329 9.2167 19.0451 9.74329 19.0451 10.1821H14.4813C14.6568 9.39223 14.6568 8.25127 14.3057 7.37361C13.2525 5.26723 10.3563 5.35499 8.77648 6.40819C7.98659 7.02255 7.72329 7.90021 7.81106 8.51457C7.98659 9.91882 9.74191 10.7965 10.9706 11.4108C13.6914 12.7273 16.6754 13.9561 17.6408 17.2034C18.343 20.0997 17.2898 22.6449 15.1834 24.488C11.1462 27.8231 3.42276 27.9108 0.702015 22.7327C0.614249 22.5571 0.526484 22.2938 0.438718 22.1183C-0.000111528 20.6263 -0.000112221 19.3098 0.263186 17.73L5.00255 17.8178C4.82701 18.2566 4.82702 18.6077 4.82702 19.0465C4.82702 19.3098 4.73925 19.5731 4.82702 19.8364Z" fill="#58585F"/>
</svg>
