<svg width="85" height="37" viewBox="0 0 85 37" fill="none" xmlns="http://www.w3.org/2000/svg">
<g clip-path="url(#clip0)">
<path fill-rule="evenodd" clip-rule="evenodd" d="M71.3479 0.142466C70.909 0.305221 70.4278 0.28461 69.9868 0.437414C69.6506 0.595905 69.2656 0.610119 68.94 0.792774C68.1105 1.12894 67.3001 1.51629 66.5704 2.03937C66.15 2.26609 65.8287 2.62358 65.4549 2.91356C65.0919 3.18647 64.83 3.56387 64.5065 3.87729C64.2192 4.20991 63.9892 4.58801 63.7195 4.93342C63.296 5.6501 62.9557 6.41319 62.7052 7.20772C62.4738 7.70522 62.5276 8.26669 62.3599 8.77912C62.2907 9.43611 62.2853 10.0983 62.3436 10.7563C62.5234 11.396 62.4469 12.0932 62.7187 12.7108C62.7895 13.0228 62.9551 13.2972 63.0457 13.6021C63.4674 14.5763 64.0742 15.4586 64.8321 16.1997C65.1817 16.6084 65.6404 16.8984 66.024 17.2729C66.5393 17.6347 67.0276 18.0355 67.5698 18.3575C67.9583 18.5778 68.3073 18.8607 68.7022 19.0682C69.3158 19.4115 69.9054 19.7988 70.5134 20.1506C71.0655 20.4392 71.5814 20.7903 72.1193 21.1065C73.2256 21.8244 74.3347 22.5472 75.3043 23.4519C75.7368 23.8961 76.2074 24.3169 76.5231 24.8577C76.882 25.2934 77.1084 25.8186 77.2903 26.3502C77.4269 26.6196 77.4276 26.9309 77.538 27.2095C77.6449 27.5947 77.6272 28.0019 77.635 28.3985C77.6209 28.7894 77.6449 29.1931 77.5161 29.5691C77.4276 29.8334 77.4453 30.1234 77.3243 30.3786C77.2033 30.6337 77.1934 30.9393 77.0476 31.1902C76.9561 31.3609 76.8738 31.5365 76.8013 31.7161C76.6781 31.923 76.5182 32.1049 76.3971 32.3131C76.0857 32.8156 75.6186 33.1838 75.1875 33.5796C74.6546 33.935 74.1301 34.3167 73.5264 34.5398C73.2652 34.7061 72.9474 34.7218 72.6686 34.8426C72.377 34.9847 72.0436 34.9897 71.7485 35.1269C71.2084 35.2577 70.6472 35.2577 70.0965 35.3124C68.8721 35.3643 67.6363 35.338 66.426 35.1319C66.0962 35.0032 65.7416 34.9577 65.4174 34.8135C64.4174 34.5839 63.5157 34.0665 62.6479 33.5342C62.2148 33.1625 61.7278 32.8554 61.352 32.419C60.921 32.0047 60.6152 31.4901 60.2903 30.9926C60.2026 30.837 60.1608 30.6614 60.0822 30.5022C59.8352 30.0659 59.8798 29.5428 59.7284 29.0765C59.642 28.5847 59.9407 28.1405 60.1452 27.7191C60.2825 27.3488 60.4475 26.9899 60.5918 26.6217C60.7001 26.2251 60.7376 25.8129 60.7964 25.4071C60.9875 24.7141 60.9033 23.9857 60.8488 23.2785C60.7171 22.8691 60.7072 22.4349 60.5933 22.0212C60.3993 21.5401 60.2089 21.0547 59.9513 20.6033C59.5344 19.7633 58.8189 19.1393 58.1628 18.4932C57.9264 18.28 57.6489 18.1194 57.4175 17.9005C57.0339 17.5558 56.5589 17.3426 56.1654 17.0128C55.7287 16.7413 55.2772 16.4975 54.8525 16.2047C54.2445 15.8401 53.6139 15.5167 53.0215 15.1251C52.3527 14.7698 51.7249 14.3483 51.0886 13.9404C50.4282 13.4556 49.7332 12.9852 49.2484 12.3057C48.9794 12.0442 48.8945 11.6739 48.7182 11.3548C48.5668 10.8459 48.5462 10.3057 48.5604 9.77768C48.5965 9.33774 48.6092 8.87507 48.8159 8.47564C49.0205 7.84523 49.4529 7.3193 49.9193 6.86018C50.4367 6.33851 51.1126 6.03006 51.7737 5.73582C52.1453 5.55459 52.5699 5.5617 52.9635 5.45793C53.3726 5.31152 53.8128 5.34279 54.2417 5.3364C54.6112 5.34422 54.9884 5.33071 55.3508 5.41742C55.6721 5.55317 56.0295 5.54961 56.3551 5.67186C56.4761 5.71379 56.5851 5.80476 56.7203 5.79837C56.9327 5.82395 57.099 5.66617 57.2582 5.5489C57.3388 5.4075 57.3812 5.24744 57.3813 5.08454C57.3814 4.92164 57.3393 4.76152 57.2589 4.61999C56.9334 4.3222 56.496 4.21275 56.0847 4.0898C55.1469 3.95192 54.195 3.97253 53.2501 4.00664C52.853 4.05782 52.4376 4.03507 52.0596 4.18503C51.8402 4.26392 51.6017 4.26606 51.388 4.35987C51.0539 4.51339 50.6738 4.53613 50.3567 4.73087C49.8896 4.86164 49.5117 5.17578 49.0792 5.38046C48.7112 5.59368 48.404 5.8872 48.0614 6.13453C47.0989 6.95897 46.3182 8.01581 45.8956 9.21834C45.7661 9.61137 45.5786 9.99516 45.5495 10.4145C45.4292 11.4309 45.4473 12.4591 45.6033 13.4706C45.8227 14.1813 46.0761 14.8863 46.4583 15.5267C46.7067 15.8472 46.9538 16.1663 47.2015 16.4904C47.5872 16.7896 47.8809 17.1933 48.2893 17.4641C48.5406 17.6581 48.7904 17.855 49.0403 18.0519C49.4649 18.3141 49.8896 18.5771 50.2973 18.8585C50.9102 19.2061 51.5196 19.5586 52.1134 19.9381C52.519 20.1719 52.9359 20.3873 53.3166 20.6666C54.3868 21.329 55.4109 22.088 56.2504 23.0361C56.4928 23.3682 56.7184 23.7124 56.9263 24.0674C57.0388 24.4448 57.249 24.7945 57.2752 25.1953C57.3529 25.8838 57.3434 26.5795 57.2469 27.2656C57.2172 27.5392 57.0579 27.7745 57.0091 28.0474C56.9475 28.3857 56.7069 28.643 56.5533 28.9401C56.3728 29.3075 56.0578 29.5797 55.7669 29.8583C55.4506 30.2222 55.0068 30.4269 54.602 30.6735C54.2506 30.8765 53.8714 31.0264 53.4766 31.1184C52.8899 31.3906 52.2217 31.3068 51.6095 31.4773C51.3582 31.5243 51.1006 31.5029 50.8472 31.5079C49.2314 31.4702 46.9134 30.9244 45.597 29.9095C44.6804 29.2038 44.3017 28.6757 43.773 27.6409C43.6318 27.1472 43.5808 26.6319 43.6223 26.1199C43.6584 25.798 43.262 25.2635 42.8862 25.2713C42.1459 25.287 42.0369 25.9778 42.051 26.5506C42.1841 28.4852 43.7652 30.4596 45.3931 31.3928C46.0846 31.8903 46.8957 32.1646 47.6884 32.4482C48.135 32.6422 48.6411 32.6024 49.0948 32.7765C50.0255 32.9045 50.9697 32.8725 51.9068 32.8384C52.2288 32.8178 52.56 32.8156 52.8679 32.704C53.3577 32.5896 53.8793 32.6045 54.3479 32.402C54.7131 32.3053 55.0464 32.1213 55.4166 32.0424C55.6672 31.9123 55.9297 31.81 56.1909 31.7041C56.5306 31.4702 56.91 31.3053 57.2462 31.0644C57.6001 30.8441 57.8931 30.5484 58.2371 30.3125C58.3298 30.7311 58.5003 31.1285 58.7396 31.4837C59.1105 32.2769 59.7213 32.9123 60.2726 33.5782C60.5515 33.8177 60.8445 34.043 61.0951 34.3145C61.4596 34.5647 61.8092 34.8369 62.1801 35.0786C62.5658 35.3479 62.999 35.5291 63.4109 35.7509C63.941 35.9641 64.445 36.2484 65.0105 36.3642C65.392 36.5547 65.8244 36.5632 66.23 36.6755C66.7679 36.8795 67.3624 36.7893 67.9088 36.9598C68.6864 37.0143 69.4668 37.0143 70.2444 36.9598C70.8708 36.7836 71.5453 36.8944 72.1604 36.6684C72.6771 36.5767 73.2072 36.5398 73.6963 36.3365C74.2964 36.2598 74.8096 35.9236 75.3808 35.753C75.8486 35.5434 76.3108 35.3216 76.7623 35.0786C77.2578 34.7232 77.8091 34.4432 78.2487 34.0125C78.5707 33.7738 78.8659 33.5007 79.1291 33.198C79.5276 32.8604 79.8263 32.4304 80.1518 32.0267C80.5949 31.4198 80.9092 30.7361 81.2546 30.0723C81.353 29.8512 81.3791 29.6046 81.4888 29.3885C81.6453 29.0915 81.6375 28.7489 81.7394 28.4319C81.7946 28.289 81.8356 28.1409 81.8618 27.9898C81.9902 26.9453 82.0109 25.8902 81.9234 24.8414C81.8944 24.5485 81.8859 24.2479 81.7819 23.9686C81.6445 23.5827 81.6729 23.1506 81.4832 22.781C81.3692 22.5564 81.3374 22.2991 81.2135 22.0795C81.072 21.8137 80.9113 21.5607 80.7952 21.2835C80.6062 20.963 80.3875 20.6602 80.1823 20.3503C79.9608 20.1165 79.7633 19.8621 79.5545 19.6176C78.6561 18.7027 77.6645 17.8852 76.596 17.1784C76.1367 16.823 75.615 16.5643 75.1472 16.2225C74.7013 15.9915 74.2922 15.6944 73.8406 15.4734C73.6212 15.3405 73.4231 15.1727 73.1916 15.0612C72.5999 14.7463 72.0394 14.3782 71.4611 14.0391C71.1072 13.8899 70.8312 13.6049 70.4801 13.4485C70.1602 13.246 69.8368 13.0484 69.5147 12.8501C68.7362 12.273 67.9088 11.7279 67.2952 10.9632C66.8231 10.4657 66.5343 9.82601 66.2795 9.19844C66.0766 8.23866 66.068 7.24771 66.254 6.2845C66.3594 5.93204 66.4944 5.58919 66.6575 5.25964C66.8429 4.77422 67.1777 4.36911 67.5004 3.96969C68.1268 3.21135 68.9952 2.72166 69.8538 2.27391C70.0576 2.18152 70.2784 2.14314 70.4908 2.05146C70.9069 1.84606 71.3882 1.87022 71.8171 1.70107C72.8688 1.55209 73.9354 1.54301 74.9894 1.67406C75.2725 1.73519 75.5393 1.85459 75.8302 1.88728C76.1742 1.92068 76.4559 2.19715 76.8154 2.14314C77.0582 2.15451 77.2273 1.96972 77.3922 1.81834C77.4702 1.67334 77.5123 1.51161 77.5149 1.34683C77.5175 1.18205 77.4805 1.01906 77.4071 0.871663C77.2592 0.658448 77.0228 0.539758 76.8069 0.41325C76.5089 0.298113 76.1834 0.278213 75.8868 0.149573C75.4968 0.0621549 75.0948 0.0657085 74.6985 0.0259082C73.5823 -0.0124706 72.4548 -0.0295278 71.3479 0.141045V0.142466ZM0.0050495 1.32084C-0.0275081 1.62147 0.159344 1.86596 0.347612 2.07491C0.779353 2.26396 1.26772 2.20781 1.72565 2.19289C2.45536 2.13177 3.1879 2.09765 3.91974 2.10618C5.75429 2.10618 7.58813 2.09979 9.42268 2.11045C9.42268 9.23895 9.42268 16.3672 9.42268 23.4953C9.42268 26.5513 9.42268 29.6074 9.33137 32.6678C9.33137 32.8142 9.2606 32.9521 9.25423 33.0942C9.22946 34.0182 9.18345 34.9371 9.17 35.8589C11.0994 35.8412 13.0288 35.8646 14.9575 35.8483C14.9575 35.6087 14.9681 35.3699 14.9808 35.1311C14.9306 32.8874 14.8393 30.6437 14.8548 28.3985C14.8824 26.6217 14.8647 24.8449 14.8697 23.0681C14.8697 16.0818 14.8697 9.09515 14.8697 2.10831C16.4565 2.10263 18.0434 2.10831 19.6302 2.10831C20.292 2.10831 20.9537 2.09481 21.6119 2.13532C22.2695 2.15806 22.9305 2.26965 23.588 2.17867C23.8457 2.16233 24.0276 1.95977 24.1918 1.7828C24.2718 1.59233 24.2696 1.38054 24.2626 1.17727C24.2682 0.770741 23.8704 0.498536 23.5222 0.395482C23.0143 0.35755 22.5038 0.373033 21.9991 0.441679C21.6905 0.541179 21.3621 0.53194 21.0429 0.537626H3.13624C2.83827 0.528386 2.53321 0.537626 2.24586 0.448786C1.79288 0.366342 1.32575 0.377714 0.86924 0.381978C0.388662 0.36421 -0.0515723 0.831152 0.0050495 1.32084ZM82.2398 0.443811C82.106 0.503511 81.9694 0.553261 81.8328 0.599458C81.5497 0.682612 81.3721 0.93776 81.1633 1.12823C81.05 1.25474 80.9099 1.37059 80.8575 1.53761C80.7613 1.83966 80.5885 2.12679 80.6211 2.45657C80.5786 2.86665 80.7846 3.2277 80.9339 3.59372C81.181 3.96116 81.544 4.24189 81.9305 4.44658C82.5051 4.62267 83.1185 4.62588 83.695 4.45582C84.0404 4.30586 84.3114 4.02939 84.5719 3.76358C84.7326 3.62143 84.7623 3.40111 84.855 3.21988C85.0305 2.90645 85.0008 2.53332 84.9867 2.1872C84.9782 1.96546 84.8451 1.77996 84.7743 1.5767C84.6759 1.25687 84.402 1.0465 84.172 0.823335C83.9547 0.603722 83.6391 0.559658 83.3736 0.425332C83.0042 0.340046 82.5951 0.322989 82.2348 0.441679L82.2398 0.443811ZM24.9696 2.64704C25.0822 5.56667 25.1473 8.48844 25.1345 11.4109V24.6303C25.1565 27.6395 25.0701 30.6465 24.9781 33.6564C29.8257 33.672 34.6746 33.6564 39.5221 33.6649C40.2299 33.6791 40.9377 33.7232 41.6455 33.7069C41.8401 33.6926 42.0659 33.6592 42.189 33.4887C42.3759 33.3188 42.3455 33.0359 42.344 32.8064C42.3554 32.4333 42.0085 32.1205 41.649 32.1141C41.23 32.08 40.8096 32.1205 40.3906 32.1333C39.4422 32.2101 38.4895 32.1731 37.5397 32.1817C34.9917 32.1724 32.4437 32.2009 29.8957 32.1682C29.8738 26.3637 29.8957 20.5586 29.8851 14.7556C29.8718 14.4106 29.8815 14.0651 29.9141 13.7215H37.3981C38.5589 13.7371 39.7217 13.6888 40.8818 13.7456C41.5124 13.7755 42.1466 13.833 42.7772 13.774C43.2875 13.7293 43.4991 13.091 43.3031 12.6682C43.1282 12.396 42.8359 12.1586 42.4969 12.1785C42.1317 12.1785 41.7615 12.1629 41.4013 12.2247C40.9823 12.3917 40.5265 12.3398 40.0877 12.3441C37.2094 12.3441 34.3311 12.3441 31.4528 12.3441C30.9404 12.3391 30.4266 12.369 29.9162 12.3178C29.8518 11.6398 29.9021 10.9582 29.8879 10.278C29.8943 8.19278 29.8752 6.10682 29.8964 4.0237C30.675 3.9903 31.4535 4.02015 32.2321 4.0102H37.8943C38.4442 4.0102 38.9963 3.98959 39.5441 4.05142C40.0084 4.08056 40.472 4.12249 40.937 4.11823C41.2201 4.11823 41.5329 4.11823 41.7729 3.93984C42.0213 3.58448 41.9633 3.10829 41.8111 2.72593C41.6426 2.65486 41.477 2.56673 41.2916 2.56033C40.4422 2.50916 39.5929 2.64064 38.7436 2.63922C35.4407 2.63922 32.1377 2.63922 28.8348 2.63922C27.5459 2.64491 26.2585 2.61861 24.9696 2.64917V2.64704Z" fill="#585960"/>
</g>
<defs>
<clipPath id="clip0">
<rect width="85" height="37" fill="white"/>
</clipPath>
</defs>
</svg>
