<svg width="100" height="14" viewBox="0 0 100 14" fill="none" xmlns="http://www.w3.org/2000/svg">
<g clip-path="url(#clip0)">
<path d="M72.543 10.043C72.543 11.239 72.1907 12.1536 71.4683 12.8043C70.7459 13.4551 69.7241 13.7717 68.4027 13.7717H63.3461V1.21387H68.4908C69.5479 1.21387 70.4112 1.47769 71.0631 2.00533C71.715 2.53296 72.0321 3.30683 72.0321 4.30935C72.0321 4.88975 71.8735 5.41739 71.5388 5.90985C71.2216 6.40231 70.7635 6.73648 70.1997 6.92995V6.98271C70.5345 7.05307 70.8516 7.19377 71.1335 7.36965C71.4154 7.54553 71.6797 7.77417 71.8911 8.03799C72.1026 8.30181 72.2611 8.61839 72.3845 8.95256C72.4725 9.28673 72.543 9.65608 72.543 10.043ZM64.6851 2.53296V6.36714H68.3674C69.0545 6.36714 69.5831 6.17367 69.9707 5.80432C70.3583 5.43497 70.5345 4.9601 70.5345 4.41487C70.5345 3.83447 70.3583 3.37719 70.0059 3.04302C69.6536 2.69126 69.125 2.53296 68.4379 2.53296H64.6851ZM64.6851 7.70382V12.435H68.4203C69.3188 12.435 69.9707 12.2239 70.4112 11.8018C70.8516 11.3797 71.0631 10.7993 71.0631 10.0606C71.0631 9.30432 70.8164 8.72392 70.3055 8.3194C69.7945 7.91487 69.1603 7.70382 68.385 7.70382H64.6851ZM77.8638 4.16864C78.9562 4.16864 79.8019 4.41487 80.3833 4.92492C80.9647 5.43497 81.2642 6.19126 81.2642 7.21136V13.7717H79.89V12.8395H79.8547C79.3438 13.2968 78.8505 13.5782 78.3572 13.7189C77.8638 13.8596 77.3881 13.9299 76.93 13.9299C76.5601 13.9299 76.1901 13.8772 75.8025 13.7717C75.4325 13.6661 75.0977 13.4902 74.7806 13.244C74.4811 13.0154 74.2344 12.6988 74.0406 12.3294C73.8468 11.9601 73.7587 11.5028 73.7587 10.9576C73.7587 10.5003 73.8468 10.0782 74.023 9.70884C74.1992 9.3395 74.4458 9.02291 74.763 8.7591C75.0801 8.49528 75.4501 8.30181 75.8906 8.1611C76.3134 8.0204 76.7891 7.95005 77.3177 7.95005C77.7229 7.95005 78.1457 7.98523 78.5686 8.07316C78.9914 8.1611 79.4319 8.3194 79.89 8.58322V7.42241C79.89 6.70131 79.7138 6.17367 79.3438 5.8395C78.9738 5.50533 78.4276 5.34703 77.7053 5.34703C77.2472 5.34703 76.8067 5.3998 76.4191 5.52291C76.0139 5.64603 75.6263 5.78673 75.221 5.9802L74.763 4.90734C75.221 4.69628 75.6967 4.5204 76.1901 4.3797C76.6834 4.23899 77.2472 4.16864 77.8638 4.16864ZM79.9076 9.72643C79.52 9.51538 79.1324 9.3395 78.7448 9.19879C78.3571 9.07568 77.8991 9.00533 77.3529 9.00533C76.7362 9.00533 76.2253 9.16362 75.8025 9.49779C75.3796 9.83196 75.1682 10.3068 75.1682 10.9224C75.1682 11.538 75.3444 12.0129 75.7144 12.3294C76.0667 12.646 76.5953 12.8043 77.2648 12.8043C77.7581 12.7867 78.2514 12.646 78.6919 12.3998C79.15 12.1536 79.5552 11.8546 79.89 11.5204V9.72643H79.9076ZM90.7783 13.7717H89.404V8.10834C89.404 7.22894 89.2278 6.54301 88.8754 6.06814C88.5231 5.59327 87.9593 5.36462 87.1665 5.36462C86.585 5.36462 86.0917 5.55809 85.6865 5.92744C85.2813 6.31437 84.9994 6.77166 84.8584 7.2993C84.7879 7.56311 84.7703 7.82693 84.7703 8.12593V13.7717H83.3961V4.34452H84.7703V5.68121L84.8056 5.69879C85.1579 5.15357 85.5808 4.76663 86.0917 4.53799C86.6026 4.29176 87.096 4.18623 87.5717 4.18623C88.664 4.18623 89.4745 4.50281 89.9854 5.13598C90.514 5.76915 90.7606 6.70131 90.7606 7.89729L90.7783 13.7717ZM95.5 8.70633L99.7637 4.36211H98.1957L94.1434 8.53045V0.422412L92.7692 1.03799V13.7717H94.1434V8.95256L98.2309 13.7717H99.8871L95.5 8.70633ZM0.113037 2.51538H3.79532V13.7541H6.42049V2.51538H9.96182V0.334473H0.113037V2.51538ZM35.9316 4.3797H33.0422L29.6594 8.38975V0.61588L27.1576 1.53045V13.7541H29.6594V9.18121L32.9717 13.7541H35.9492L32.2317 8.70633L35.9316 4.3797ZM44.1595 5.47015C43.7543 5.04804 43.2786 4.71387 42.6971 4.50281C42.1334 4.27417 41.5167 4.16864 40.8296 4.16864C40.1601 4.16864 39.5258 4.27417 38.962 4.50281C38.3982 4.73146 37.9049 5.04804 37.4997 5.47015C37.0944 5.89226 36.7773 6.40231 36.5483 7.01789C36.3192 7.63347 36.2135 8.3194 36.2135 9.09327C36.2135 9.83196 36.3192 10.5179 36.5483 11.1159C36.7597 11.7139 37.0768 12.2415 37.4644 12.6636C37.852 13.0857 38.3454 13.4199 38.9091 13.6485C39.4729 13.8772 40.1072 14.0003 40.7943 14.0003C41.4638 14.0003 42.0805 13.8948 42.6619 13.6661C43.2257 13.4375 43.719 13.1209 44.1243 12.6988C44.5295 12.2767 44.8466 11.749 45.0933 11.1511C45.3223 10.5355 45.4456 9.84955 45.4456 9.07568C45.4456 8.33698 45.3399 7.65106 45.1109 7.05307C44.8819 6.4199 44.5647 5.90985 44.1595 5.47015ZM42.7852 10.2013C42.6971 10.5531 42.5562 10.8521 42.38 11.1159C42.2038 11.3797 41.9924 11.5908 41.7281 11.7315C41.4638 11.8722 41.1643 11.9601 40.8472 11.9601C40.1601 11.9601 39.6491 11.6963 39.2968 11.2038C38.9444 10.6938 38.7506 9.97266 38.7506 9.05809C38.7506 8.23146 38.9268 7.56312 39.2615 7.01789C39.6139 6.47266 40.1072 6.20884 40.7767 6.20884C41.4815 6.20884 42.01 6.47266 42.38 7.0003C42.7324 7.52794 42.9262 8.23146 42.9262 9.09327C42.9262 9.4802 42.8733 9.84955 42.7852 10.2013ZM12.4989 0.334473C12.0761 0.334473 11.7061 0.475176 11.4242 0.756583C11.1423 1.03799 11.0013 1.38975 11.0013 1.77668C11.0013 2.16362 11.1423 2.49779 11.4242 2.7792C11.7061 3.0606 12.0761 3.20131 12.4989 3.20131C12.9041 3.20131 13.2565 3.0606 13.5384 2.7792C13.8379 2.49779 13.9789 2.16362 13.9789 1.77668C13.9789 1.37216 13.8379 1.03799 13.5384 0.756583C13.2389 0.475176 12.8865 0.334473 12.4989 0.334473ZM11.2127 4.36211H13.7322V13.7541H11.2127V4.36211ZM21.5548 4.27417C19.7225 4.13347 18.683 5.13598 18.683 5.13598V4.36211H16.1636V13.7541H18.683V8.1611C18.683 7.21136 19.4759 6.43749 20.4625 6.43749C21.4491 6.43749 22.242 7.21136 22.242 8.1611V13.7541H24.7614V8.19628C24.7614 5.2591 23.0348 4.3797 21.5548 4.27417ZM47.8418 4.16864V4.34452H46.3266V6.2792H47.8418V13.7717H50.3612V6.2792H51.8764V4.34452H50.3612V4.15106C50.3612 2.84955 50.9779 2.21638 52.1583 2.40985L52.5459 0.457588C48.7227 0.000301987 47.8418 2.0405 47.8418 4.16864ZM54.3606 4.16864V4.34452H52.8454V6.2792H54.3606V13.7717H56.8801V6.2792H58.3953V4.34452H56.8801V4.15106C56.8801 2.84955 57.4968 2.21638 58.6772 2.40985L59.0648 0.457588C55.224 0.000301987 54.3606 2.0405 54.3606 4.16864ZM3.79532 2.51538V13.7541V2.51538Z" fill="#58585F"/>
</g>
<defs>
<clipPath id="clip0">
<rect width="100" height="14" fill="white"/>
</clipPath>
</defs>
</svg>
