<svg width="50" height="50" viewBox="0 0 50 50" fill="none" xmlns="http://www.w3.org/2000/svg">
<g clip-path="url(#clip0)">
<path d="M7.09276 49.2905C6.86962 49.1949 6.69429 49.0674 6.58272 48.908C6.45521 48.7486 6.35958 48.5733 6.31176 48.3661C6.26395 48.1748 6.24801 47.9676 6.24801 47.7604V43.2338C6.24801 43.17 6.26394 43.1063 6.29582 43.0903C6.3277 43.0744 6.39145 43.0425 6.45521 43.0425H7.42748C7.52311 43.0425 7.57093 43.0585 7.61874 43.0744C7.63468 43.0903 7.66656 43.1541 7.66656 43.2338V47.6648C7.66656 47.8879 7.73032 48.0632 7.84189 48.127C7.95346 48.2067 8.11284 48.2386 8.28817 48.2386H10.6152C10.679 48.2386 10.7268 48.2545 10.7587 48.2704C10.7746 48.2864 10.7906 48.3342 10.7906 48.4298V49.2427C10.7906 49.3702 10.7268 49.434 10.6152 49.434H7.98533C7.58687 49.434 7.29997 49.4021 7.09276 49.2905ZM16.8632 45.7681H16.7995L16.417 46.6128L15.6519 48.2864C15.5881 48.4458 15.5084 48.5573 15.4447 48.6052C15.3809 48.6689 15.2694 48.6849 15.1259 48.6849H14.6159C14.4724 48.6849 14.3449 48.6689 14.2971 48.6052C14.2333 48.5414 14.1696 48.4458 14.1058 48.2864L13.532 47.1069L12.9582 45.8796H12.8945V49.2746C12.8945 49.3543 12.8785 49.418 12.8467 49.434C12.8148 49.4499 12.751 49.4499 12.6873 49.4499H11.7469C11.6831 49.4499 11.6353 49.434 11.5875 49.434C11.5556 49.418 11.5237 49.3702 11.5237 49.2746V43.696C11.5237 43.4729 11.5716 43.2975 11.6672 43.2019C11.7628 43.1063 11.9063 43.0585 12.1294 43.0585H12.6713C12.8467 43.0585 12.9742 43.0903 13.0539 43.1541C13.1336 43.2178 13.2133 43.3294 13.293 43.4888L14.2971 45.7202L14.8709 47.0113H14.9028L15.5403 45.5927L16.4807 43.5207C16.5445 43.3613 16.6401 43.2497 16.7198 43.17C16.8154 43.1063 16.9429 43.0744 17.1501 43.0744H17.5964C17.7877 43.0744 17.9471 43.1222 18.0427 43.2019C18.1383 43.2816 18.1862 43.441 18.1862 43.6801V49.3065C18.1862 49.3862 18.1702 49.4499 18.1383 49.4659C18.1065 49.4818 18.0427 49.4818 17.963 49.4818H17.0386C16.9748 49.4818 16.927 49.4659 16.8951 49.4659C16.8632 49.4499 16.8473 49.4021 16.8473 49.3065L16.8632 45.7681ZM22.8244 48.127H20.7364L20.3857 49.2905C20.3698 49.3543 20.3379 49.3862 20.306 49.418C20.2741 49.434 20.2104 49.4659 20.1148 49.4659H19.0469C18.9831 49.4659 18.9512 49.4499 18.9193 49.4021C18.9034 49.3702 18.9034 49.3224 18.9193 49.2746L20.8161 43.5526C20.8479 43.4569 20.8798 43.3613 20.9117 43.2975C20.9436 43.2338 20.9914 43.186 21.0551 43.1541C21.103 43.1222 21.1667 43.0903 21.2464 43.0744C21.3102 43.0585 21.3899 43.0585 21.4855 43.0585H22.0433C22.139 43.0585 22.2346 43.0585 22.3143 43.0744C22.3781 43.0903 22.4578 43.1063 22.5056 43.1381C22.5693 43.17 22.6012 43.2338 22.649 43.2975C22.6809 43.3613 22.7287 43.4569 22.7606 43.5685L24.6573 49.2905C24.6733 49.3224 24.6733 49.3702 24.6573 49.4021C24.6414 49.4499 24.6095 49.4659 24.5457 49.4659H23.4619C23.3981 49.4659 23.3344 49.4499 23.2866 49.4499C23.2388 49.434 23.2069 49.3862 23.1909 49.3224L22.8244 48.127ZM21.0711 46.9953H22.5056L22.1549 45.8318L21.8202 44.5248H21.7724L21.4217 45.8318L21.0711 46.9953ZM29.2955 46.4375C29.5027 46.5331 29.6462 46.6606 29.7258 46.836C29.8055 46.9953 29.8693 47.1866 29.9331 47.4098L30.3953 49.2427C30.4112 49.2746 30.4112 49.3224 30.3953 49.3702C30.3793 49.434 30.3315 49.4499 30.2678 49.4499H29.3114C29.2477 49.4499 29.168 49.434 29.1042 49.434C29.0405 49.418 28.9767 49.3702 28.9608 49.2746L28.5464 47.6488C28.4667 47.346 28.3551 47.1388 28.1957 47.0272C28.0523 46.9156 27.8291 46.8519 27.5582 46.8519H26.6656V49.2587C26.6656 49.3383 26.6497 49.4021 26.6337 49.418C26.6178 49.434 26.554 49.4499 26.4584 49.4499H25.4861C25.4224 49.4499 25.3586 49.434 25.3267 49.4021C25.2949 49.3862 25.2789 49.3224 25.2789 49.2587V43.6163C25.2789 43.425 25.3108 43.2975 25.3905 43.2019C25.4543 43.1063 25.6136 43.0585 25.8208 43.0585H28.0682C28.7376 43.0585 29.2477 43.2338 29.6143 43.5685C29.9809 43.9032 30.1562 44.3495 30.1562 44.9074C30.1562 45.2102 30.0924 45.4971 29.9331 45.784C29.7896 46.055 29.5824 46.2622 29.2955 46.4215V46.4375ZM28.7217 44.9871C28.7217 44.9074 28.7058 44.8277 28.6898 44.748C28.6739 44.6683 28.6261 44.5886 28.5623 44.5248C28.4986 44.4611 28.4189 44.3973 28.3232 44.3495C28.2276 44.3017 28.1001 44.2857 27.9248 44.2857H26.6815V45.7521H27.8929C28.1638 45.7521 28.3711 45.6884 28.4986 45.5449C28.642 45.3855 28.7217 45.1943 28.7217 44.9871ZM35.3522 44.222H33.6946V49.2268C33.6946 49.3065 33.6787 49.3543 33.6468 49.3862C33.6309 49.4021 33.5512 49.418 33.4715 49.418H32.4992C32.4354 49.418 32.3717 49.4021 32.3398 49.3702C32.3079 49.3543 32.292 49.2905 32.292 49.2268V44.222H30.6662C30.5547 44.222 30.4909 44.1582 30.4909 44.0307V43.2178C30.4909 43.1381 30.5068 43.0903 30.5228 43.0744C30.5387 43.0585 30.5865 43.0425 30.6662 43.0425H35.3363C35.4001 43.0425 35.4638 43.0585 35.4798 43.0744C35.4957 43.0903 35.5116 43.1541 35.5116 43.2178V44.0307C35.5435 44.1742 35.4798 44.222 35.3522 44.222ZM5.2598 48.5733C5.2598 48.7964 5.21199 48.9718 5.11635 49.1311C5.02072 49.2905 4.84539 49.4021 4.59037 49.4659C4.46286 49.4977 4.33535 49.5296 4.1919 49.5296C4.04845 49.5456 3.88907 49.5456 3.76155 49.5615C3.61811 49.5774 3.47466 49.5774 3.34715 49.5774H3.04431C2.51833 49.5774 2.07204 49.5296 1.68951 49.434C1.30698 49.3383 1.00414 49.1949 0.765061 48.9718C0.525979 48.7486 0.350653 48.4617 0.239082 48.127C0.12751 47.7763 0.079694 47.3301 0.079694 46.7881L0.0637554 43.2338C0.0637554 43.17 0.0796932 43.1063 0.12751 43.0903C0.159387 43.0744 0.223142 43.0425 0.286898 43.0425H1.2751C1.37074 43.0425 1.41855 43.0585 1.46637 43.0744C1.48231 43.0903 1.51419 43.1541 1.51419 43.2338V46.8838C1.51419 47.1388 1.53012 47.3619 1.57794 47.5373C1.62576 47.7126 1.68951 47.8879 1.80108 47.9995C1.91265 48.127 2.07204 48.2226 2.24737 48.2704C2.4227 48.3183 2.67772 48.3661 2.96462 48.3661H3.13994C3.21964 48.3661 3.28339 48.3501 3.37902 48.3501C3.47466 48.3501 3.57029 48.3342 3.64998 48.3342C3.72968 48.3342 3.84125 48.3183 3.92094 48.2864V43.2338C3.92094 43.17 3.93688 43.1063 3.96876 43.0903C4.00064 43.0744 4.06439 43.0425 4.12815 43.0425H5.10041C5.19605 43.0425 5.24386 43.0585 5.27574 43.0744C5.29168 43.0903 5.30762 43.1541 5.30762 43.2338V48.5892H5.2598V48.5733ZM37.2011 48.7486C37.2011 48.9718 37.1214 49.179 36.9621 49.3383C36.8027 49.4977 36.6114 49.5774 36.3723 49.5774C36.2608 49.5774 36.1492 49.5615 36.0536 49.5137C35.9579 49.4659 35.8623 49.418 35.7826 49.3383C35.7029 49.2746 35.6391 49.179 35.5913 49.0674C35.5435 48.9718 35.5276 48.8602 35.5276 48.7486C35.5276 48.637 35.5435 48.5255 35.5913 48.4298C35.6391 48.3342 35.687 48.2386 35.7826 48.1589C35.8623 48.0951 35.942 48.0314 36.0536 47.9835C36.1492 47.9357 36.2608 47.9198 36.3723 47.9198C36.6114 47.9198 36.8027 47.9995 36.9621 48.1589C37.1214 48.3342 37.2011 48.5255 37.2011 48.7486ZM42.6363 46.4694C42.8435 46.565 42.9869 46.6925 43.0666 46.8678C43.1463 47.0432 43.226 47.2185 43.2738 47.4416L43.752 49.2746C43.7679 49.3065 43.7679 49.3543 43.752 49.418C43.736 49.4818 43.6882 49.4977 43.6085 49.4977H42.6522C42.5885 49.4977 42.5088 49.4818 42.445 49.4818C42.3813 49.4659 42.3175 49.418 42.2856 49.3224L41.8871 47.6967C41.8075 47.3938 41.6959 47.1866 41.5365 47.075C41.3771 46.9635 41.1699 46.8997 40.8989 46.8997H40.0064V49.3065C40.0064 49.3862 39.9904 49.4499 39.9745 49.4659C39.9586 49.4818 39.8948 49.4977 39.7992 49.4977H38.811C38.7472 49.4977 38.6835 49.4818 38.6516 49.4499C38.6197 49.434 38.6038 49.3702 38.6038 49.3065V43.6163C38.6038 43.425 38.6356 43.2975 38.7153 43.2019C38.7791 43.1063 38.9385 43.0585 39.1457 43.0585H41.393C42.0625 43.0585 42.5725 43.2338 42.9391 43.5685C43.3057 43.9032 43.497 44.3654 43.497 44.9233C43.497 45.2261 43.4332 45.529 43.2738 45.8159C43.1144 46.1028 42.9232 46.294 42.6363 46.4534V46.4694ZM42.0625 45.003C42.0625 44.9233 42.0465 44.8436 42.0306 44.748C42.0147 44.6683 41.9668 44.5886 41.9031 44.5248C41.8393 44.4611 41.7596 44.3973 41.664 44.3495C41.5684 44.3017 41.4249 44.2857 41.2655 44.2857H40.0064V45.7521H41.2177C41.4887 45.7521 41.6959 45.6884 41.8393 45.5449C41.9828 45.4015 42.0625 45.2261 42.0625 45.003ZM49.9522 48.5892C49.9522 48.8124 49.9044 48.9877 49.8087 49.1471C49.7131 49.2905 49.5378 49.418 49.2827 49.4818C49.1552 49.5137 49.0277 49.5455 48.8843 49.5455C48.7408 49.5615 48.5814 49.5615 48.4539 49.5774C48.3105 49.5774 48.167 49.5934 48.0395 49.5934H47.7367C47.2107 49.5934 46.7644 49.5456 46.3819 49.4499C45.9994 49.3543 45.6965 49.2108 45.4574 48.9877C45.2184 48.7645 45.043 48.4936 44.9315 48.1429C44.8199 47.7923 44.7721 47.346 44.7721 46.8041L44.7561 43.2497C44.7561 43.186 44.7721 43.1222 44.8199 43.1063C44.8518 43.0903 44.9155 43.0585 44.9793 43.0585H45.9675C46.0631 43.0585 46.1109 43.0744 46.1587 43.0903C46.1747 43.1063 46.2066 43.17 46.2066 43.2497V46.8997C46.2066 47.1547 46.2225 47.3779 46.2703 47.5532C46.3181 47.7445 46.3819 47.9039 46.4935 48.0154C46.605 48.1429 46.7644 48.2386 46.9397 48.2864C47.131 48.3501 47.3701 48.382 47.657 48.382H47.8323C47.912 48.382 47.9758 48.3661 48.0714 48.3661C48.167 48.3661 48.2627 48.3501 48.3424 48.3501C48.438 48.3342 48.5336 48.3342 48.6133 48.3023V43.2497C48.6133 43.186 48.6293 43.1222 48.6611 43.1063C48.693 43.0903 48.7568 43.0585 48.8205 43.0585H49.7928C49.8884 43.0585 49.9362 43.0744 49.9681 43.0903C49.9841 43.1063 50 43.17 50 43.2497V48.5892H49.9522ZM31.2719 0.40625H30.8734C28.4189 0.422189 25.9962 0.868475 23.6532 1.74511C21.5333 2.54205 19.4613 3.68964 17.5008 5.17195C14.2174 7.6584 11.1731 11.0852 8.4635 15.4047C3.71374 22.9596 1.11572 31.726 0 37.5118H10.9659C11.3006 37.5118 11.46 37.3683 11.5397 37.0336C12.7032 32.5548 14.8868 26.6096 18.1065 21.4773C20.0829 18.3374 22.1868 15.9147 24.3704 14.273C26.5381 12.6313 28.7058 11.8184 30.9372 11.8184C31.0488 11.8184 31.1763 11.8184 31.2879 11.8344C35.2885 12.0256 38.4922 15.309 38.4922 19.3575C38.4922 23.5175 35.1291 26.8806 30.9691 26.8806C26.8091 26.8806 23.446 23.5016 23.446 19.3575C23.446 18.9431 23.4938 18.5446 23.5575 18.1461C23.5735 18.0824 23.5097 18.0664 23.4619 18.0983C22.2824 19.3575 21.1348 20.8717 20.0032 22.6568C18.2818 25.3983 16.9429 28.2513 15.9547 30.7697C15.9388 30.7856 15.9547 30.8653 15.9707 30.8653C19.4294 35.376 24.8645 38.2768 30.985 38.2768C41.4409 38.2768 49.9203 29.7974 49.9203 19.3415C49.8884 8.99726 41.5684 0.597516 31.2719 0.40625ZM0.0956325 28.3948C1.48231 24.1072 3.57029 19.0228 6.59866 14.2252C8.12879 11.7865 9.77048 9.61887 11.5078 7.72216C11.5237 7.70622 11.5716 7.6584 11.5716 7.57871V1.85668C11.5716 1.50603 11.2847 1.21913 10.934 1.21913H0.637552C0.286898 1.21913 0 1.50603 0 1.85668V28.4107C0 28.4904 0.0637549 28.4585 0.0956325 28.3948Z" fill="#57575E"/>
</g>
<defs>
<clipPath id="clip0">
<rect width="50" height="50" fill="white"/>
</clipPath>
</defs>
</svg>
