
<svg width="62" height="62" viewBox="0 0 62 62" fill="none" xmlns="http://www.w3.org/2000/svg">
<circle cx="31" cy="31" r="31" fill="black"/>
<path fill-rule="evenodd" clip-rule="evenodd" d="M18.2862 38.331C18.0412 38.421 17.8379 38.4973 17.8379 38.7355C17.8379 38.8883 17.9726 38.9854 18.1864 38.9854C18.3342 38.9854 18.5375 38.9227 18.6479 38.8644L18.7099 39.0892C18.5317 39.1729 18.3378 39.2178 18.141 39.2207C17.7521 39.2207 17.5383 39.027 17.5383 38.7636C17.5383 38.352 17.8799 38.2342 18.1692 38.1264C18.4105 38.0404 18.6167 37.9639 18.6167 37.732C18.6167 37.5999 18.5103 37.5033 18.3102 37.5033C18.1658 37.5033 18 37.5623 17.9034 37.6174L17.8416 37.4099C18.0047 37.3221 18.1872 37.2768 18.3723 37.278C18.7202 37.278 18.9063 37.4721 18.9063 37.7114C18.9063 38.109 18.5718 38.2236 18.2859 38.3308L18.2862 38.331ZM19.9956 37.5099C19.8789 37.5099 19.7371 37.5417 19.6754 37.5727L19.4272 38.9264C19.4787 38.9507 19.6168 38.9745 19.7305 38.9745C20.2541 38.9745 20.4787 38.4176 20.4787 38.0333C20.4787 37.7251 20.3161 37.5099 19.9956 37.5099V37.5099ZM19.7202 39.2033C19.5827 39.2033 19.4475 39.1755 19.3858 39.1516L19.2414 39.9272H18.9546L19.4203 37.4099C19.565 37.3368 19.7855 37.278 20.0202 37.278C20.499 37.278 20.7607 37.5833 20.7607 38.0264C20.7607 38.5907 20.4228 39.2033 19.7202 39.2033V39.2033ZM21.8679 39.1307L21.3304 39.9275H21.0162L21.5337 39.1794C21.3404 38.632 21.192 38.0539 21.192 37.4517C21.192 37.389 21.196 37.3233 21.196 37.3167H21.4956V37.4305C21.4956 37.9327 21.5783 38.4351 21.7161 38.9198H21.723C22.0366 38.4176 22.3125 37.8983 22.4949 37.3164H22.7982C22.5986 37.9533 22.2433 38.577 21.8679 39.1307V39.1307ZM24.4942 37.9327L24.264 39.1821H23.9775L24.2085 37.9327C24.2154 37.8914 24.2154 37.8633 24.2154 37.8321C24.2154 37.6177 24.0704 37.5136 23.8294 37.5136C23.6636 37.5136 23.5195 37.5486 23.4228 37.5867L23.1298 39.1823H22.8402L23.1676 37.4099C23.3571 37.3305 23.5952 37.2783 23.8571 37.2783C24.2706 37.2783 24.505 37.4721 24.505 37.7979C24.505 37.8395 24.5013 37.8879 24.4944 37.9327H24.4942ZM26.4216 37.9327L26.1904 39.1821H25.9047L26.1354 37.9327C26.1423 37.8914 26.1423 37.8633 26.1423 37.8321C26.1423 37.6177 25.9976 37.5136 25.7563 37.5136C25.5911 37.5136 25.4461 37.5486 25.3498 37.5867L25.0567 39.1823H24.7674L25.0948 37.4099C25.284 37.3305 25.5222 37.2783 25.7838 37.2783C26.1975 37.2783 26.4319 37.4721 26.4319 37.7979C26.4319 37.8395 26.4288 37.8879 26.4216 37.9327V37.9327ZM26.9768 38.6977C26.9768 38.8745 27.1078 39.0026 27.4008 39.0026C27.5423 39.0026 27.711 38.9714 27.7836 38.9401L27.9177 38.2069C27.5735 38.2238 26.9768 38.2413 26.9768 38.6979V38.6977ZM28.2519 37.9017L28.0283 39.0892C27.8763 39.1659 27.6252 39.2207 27.3733 39.2207C26.9251 39.2207 26.7012 39.0129 26.7012 38.7257C26.7012 38.0748 27.4694 38.033 27.9557 38.0055L27.9834 37.8636C27.9903 37.8321 27.9903 37.8008 27.9903 37.7736C27.9903 37.569 27.8348 37.4999 27.6075 37.4999C27.4354 37.4999 27.2181 37.5552 27.08 37.6174L27.0423 37.4096C27.2359 37.3249 27.4446 37.2802 27.6558 37.278C28.018 37.278 28.2622 37.4379 28.2622 37.7527C28.2622 37.7977 28.2622 37.8495 28.2519 37.9017V37.9017ZM30.2486 38.1714C30.4344 38.2339 30.5617 38.3618 30.6411 38.5563L30.8962 39.1826H30.5894L30.3555 38.601C30.2829 38.4176 30.1451 38.2789 29.9035 38.2789L29.7383 39.1826H29.4555L29.8003 37.3164H30.0833L29.9241 38.168H29.9312L30.8616 37.3164H31.2204L30.2486 38.1714V38.1714ZM32.1821 37.5139C31.7169 37.5139 31.5205 38.1023 31.5205 38.487C31.5205 38.7773 31.6446 38.9814 31.9136 38.9814C32.3788 38.9814 32.5718 38.3861 32.5718 38.002C32.5718 37.7148 32.4514 37.5139 32.1821 37.5139V37.5139ZM31.8822 39.221C31.4545 39.221 31.2378 38.9023 31.2378 38.487C31.2378 37.9051 31.5614 37.278 32.2098 37.278C32.6372 37.278 32.854 37.5933 32.854 38.0089C32.854 38.5907 32.5266 39.221 31.8822 39.221V39.221ZM35.2398 39.1826H34.9779L35.0571 37.8186C35.0642 37.7212 35.0774 37.611 35.0848 37.5692H35.0774C35.0605 37.611 35.0259 37.7077 34.9673 37.8186L34.2505 39.1826H34.0198L33.806 37.8186C33.7948 37.7359 33.7889 37.6526 33.7885 37.5692H33.7819C33.768 37.6214 33.7476 37.7045 33.7128 37.8186L33.2891 39.1826H33.0097L33.6162 37.3164H33.9641L34.1642 38.6251C34.1785 38.712 34.1816 38.8123 34.1816 38.8581H34.1885C34.2025 38.8263 34.2439 38.7286 34.2952 38.6251L34.9744 37.3164H35.3256L35.2398 39.1826V39.1826ZM37.3116 37.9327L37.0804 39.1821H36.7947L37.026 37.9327C37.0326 37.8914 37.0326 37.8633 37.0326 37.8321C37.0326 37.6177 36.8879 37.5136 36.6463 37.5136C36.4811 37.5136 36.3367 37.5486 36.2398 37.5867L35.9465 39.1823H35.6571L35.9848 37.4099C36.174 37.3305 36.4122 37.2783 36.6743 37.2783C37.0875 37.2783 37.3219 37.4721 37.3219 37.7979C37.3219 37.8395 37.3185 37.8879 37.3114 37.9327H37.3116ZM37.8671 38.6977C37.8671 38.8745 37.998 39.0026 38.2908 39.0026C38.432 39.0026 38.601 38.9714 38.6731 38.9401L38.8077 38.2069C38.4629 38.2238 37.8671 38.2413 37.8671 38.6979V38.6977ZM39.1419 37.9017L38.9181 39.0892C38.7663 39.1659 38.5147 39.2207 38.2633 39.2207C37.8151 39.2207 37.5912 39.0129 37.5912 38.7257C37.5912 38.0748 38.3594 38.033 38.8457 38.0055L38.8732 37.8636C38.8803 37.8321 38.8803 37.8008 38.8803 37.7736C38.8803 37.569 38.7248 37.4999 38.4972 37.4999C38.3256 37.4999 38.1081 37.5552 37.97 37.6174L37.932 37.4096C38.1258 37.3249 38.3347 37.2802 38.5461 37.278C38.9078 37.278 39.152 37.4379 39.152 37.7527C39.152 37.7977 39.152 37.8495 39.1419 37.9017V37.9017ZM40.807 39.1826H40.5211L40.676 38.3414H39.8492L39.694 39.1826H39.4044L39.7494 37.3164H40.0387L39.8906 38.1092H40.7175L40.8659 37.3164H41.1518L40.807 39.1826ZM42.7239 39.0857C42.5549 39.1617 42.3237 39.2207 42.0586 39.2207C41.6243 39.2207 41.4176 39.0164 41.4176 38.6977C41.4176 38.6492 41.4213 38.5907 41.4313 38.5388L41.6557 37.3164H41.9448L41.7175 38.5351C41.711 38.5752 41.7075 38.6158 41.7072 38.6564C41.7072 38.8642 41.8141 38.9783 42.0829 38.9783C42.2418 38.9783 42.386 38.947 42.4694 38.9123L42.7653 37.3162H43.0515L42.7242 39.0857H42.7239ZM44.3026 37.1081C44.051 37.1081 43.9066 36.9564 43.9066 36.7206C43.9066 36.6968 43.9098 36.6756 43.9132 36.6443L44.0927 36.6136V36.6343C44.0927 36.8074 44.1513 36.9149 44.3272 36.9149C44.4993 36.9149 44.6062 36.8108 44.6719 36.6136L44.8475 36.6443C44.7783 36.9286 44.5959 37.1081 44.3026 37.1081V37.1081ZM44.6236 39.0855C44.4547 39.1622 44.2234 39.2207 43.9584 39.2207C43.5238 39.2207 43.3171 39.0164 43.3171 38.6979C43.3171 38.6495 43.3205 38.5907 43.3311 38.5386L43.555 37.3162H43.844L43.6167 38.5354C43.6102 38.5754 43.6068 38.6158 43.6067 38.6564C43.6067 38.8644 43.7134 38.9785 43.9824 38.9785C44.141 38.9785 44.2852 38.9473 44.3686 38.9129L44.6643 37.3162H44.951L44.6236 39.0855ZM22.6195 25.5066C22.2871 25.5066 21.743 25.3848 21.4112 25.1273C21.6241 24.9585 21.7969 24.7442 21.917 24.5002C22.0371 24.2561 22.1015 23.9882 22.1055 23.7161C22.1055 23.2309 21.743 23.0033 21.2448 23.0033C20.5656 23.0033 19.5684 23.413 18.5874 25.2787C18.0283 26.3563 17.6357 27.949 17.6357 29.6177C17.6357 31.3013 18.2846 32.2725 19.7496 32.2725C19.9959 32.2725 20.5492 32.2042 21.2074 31.9347C21.7423 31.7151 22.2375 31.4086 22.6731 31.0275C22.8352 30.8859 23.073 30.9121 23.1145 31.121C23.1525 31.3108 22.9038 31.563 22.7898 31.6856C22.643 31.8431 22.5384 31.9432 22.3861 32.0663C21.7533 32.5785 21.1994 32.9273 20.686 33.1627C19.8301 33.5573 19.0888 33.6378 18.2846 33.6378C16.9564 33.6378 15.0382 33.0618 15.0382 29.8599C15.0382 27.327 16.0501 25.218 17.2431 23.9893C18.5117 22.6848 20.0067 22.2449 21.1543 22.2449C23.5253 22.2449 23.9028 23.3214 23.9028 24.0499C23.9028 24.8236 23.3743 25.5066 22.6195 25.5066ZM32.8975 32.1081C32.4994 32.6547 31.5968 33.6222 30.3367 33.6222C29.8531 33.6222 29.1744 33.4406 29.1744 32.5607C29.1744 31.8476 29.31 31.3015 29.4611 30.5132L29.5513 30.1032H27.377L26.7126 33.2127C26.2294 33.4104 25.0816 33.5166 24.2962 33.5166L25.0515 29.9817C25.293 28.8893 25.4287 28.1004 25.4287 27.9339C25.4287 27.5694 25.368 27.4178 25.127 27.4178C24.9158 27.4178 24.6578 27.5342 24.3133 27.8476C24.2645 27.8924 24.0905 27.8831 24.0285 27.7587C23.9532 27.6073 24.0665 27.45 24.1325 27.3786C24.6417 26.8314 26.0021 25.8708 27.15 25.8708C27.6336 25.8708 27.9663 26.068 27.9663 26.7049C27.9663 27.2666 27.7543 28.4035 27.5133 29.4658L29.7024 29.3903L30.2763 26.5381C30.3521 26.1432 31.3032 25.8711 32.0285 25.8711C32.5414 25.8711 32.5868 25.8856 32.8437 25.9463C32.6621 26.5834 32.0736 28.7979 31.983 29.2384L31.756 30.2546C31.6504 30.725 31.5596 31.2557 31.5596 31.5591C31.5596 31.8778 31.6504 32.0753 31.9075 32.0753C32.1092 32.0753 32.3339 31.968 32.6494 31.6843C32.6771 31.6594 32.8083 31.5607 32.8783 31.5538C32.9427 31.5472 33.0211 31.558 33.0483 31.6147C33.1222 31.7671 32.948 32.0387 32.8978 32.1081H32.8975ZM37.6617 29.8147C37.239 29.8147 36.6654 29.7543 36.6654 29.7543L36.7921 29.3467L36.8164 29.2683C36.8164 29.2683 37.0429 29.3141 37.3293 29.3141C38.5677 29.3141 38.8851 27.9032 38.8851 27.342C38.8851 26.7049 38.7193 26.4624 38.2362 26.4624C37.6472 26.4624 37.0582 26.9476 36.6049 28.4948C36.4085 29.1778 36.2723 30.2093 36.2723 30.6339C36.2723 31.923 36.7102 32.363 37.5263 32.363C38.0075 32.363 38.7428 32.2645 39.6493 31.6144C39.6813 31.5916 39.7945 31.5578 39.8473 31.5797C39.9007 31.6009 39.9569 31.63 39.9733 31.6597C40.0013 31.7113 40.0002 31.7817 39.9883 31.8479C39.9698 31.9511 39.8664 32.1052 39.8355 32.1348C38.5825 33.3445 37.3256 33.5618 36.5143 33.5618C35.1402 33.5618 33.8717 32.9549 33.8717 30.8004C33.8717 29.3753 34.4604 28.116 35.3665 27.1599C36.2878 26.1893 37.4959 25.7795 38.3563 25.7795C39.9569 25.7795 40.6974 26.3711 40.6974 27.4935C40.6974 28.677 39.595 29.8147 37.662 29.8147H37.6617ZM45.8021 29.5574L45.0772 29.9814C44.3821 30.3912 43.9895 30.8311 43.9895 31.468C43.9895 31.9538 44.2773 32.3328 44.9711 32.3328C45.6041 32.3328 46.5384 31.9612 47.2916 31.2052C47.3286 31.167 47.4191 31.1289 47.4775 31.125C47.5266 31.1218 47.657 31.1816 47.6776 31.2279C47.7079 31.2957 47.7145 31.3619 47.704 31.4058C47.6739 31.5308 47.614 31.6131 47.5905 31.6464C46.6118 33.0573 44.9106 33.6079 43.6125 33.6079C42.2078 33.6079 41.3474 33.0618 41.3474 31.9236C41.3474 30.8155 42.1624 30.285 43.2648 29.6786L44.3367 29.0867C45.0925 28.677 45.4093 28.3588 45.4093 27.7669C45.4093 27.2513 45.1223 26.9778 44.5484 26.9778C44.1727 26.9778 43.522 27.0861 42.693 27.9088C42.6413 27.9599 42.5222 28.0305 42.4118 28.0401C42.3012 28.0493 42.1991 27.998 42.1581 27.9448C42.1338 27.9107 42.1178 27.8714 42.1114 27.8299C42.105 27.7885 42.1085 27.7461 42.1214 27.7063C42.1513 27.6057 42.2392 27.4935 42.2864 27.4469C43.4032 26.3468 44.8364 25.7792 45.9225 25.7792C47.327 25.7792 47.9616 26.28 47.9616 27.1446C47.9616 28.1918 47.1459 28.7685 45.8021 29.5574" fill="white"/>
</svg>