<svg width="256" height="513" viewBox="0 0 256 513" fill="none" xmlns="http://www.w3.org/2000/svg">
<path fill-rule="evenodd" clip-rule="evenodd" d="M0 513C0.166626 513 0.333282 513 0.5 513C142.161 513 257 398.161 257 256.5C257 114.839 142.161 1.00395e-05 0.499955 2.24239e-05C0.333238 2.24385e-05 0.166581 0.000205559 -4.48478e-05 0.000510749L-4.39736e-05 10.0005C0.166582 10.0002 0.333238 10 0.499956 10C136.638 10 247 120.362 247 256.5C247 392.638 136.638 503 0.499999 503C0.333282 503 0.166625 503 -8.74271e-07 503L0 513Z" fill="#F8F8F8"/>
<path fill-rule="evenodd" clip-rule="evenodd" d="M-0.00012207 481C0.145721 481 0.291595 481 0.4375 481C124.425 481 224.937 380.488 224.937 256.5C224.937 132.512 124.425 32 0.437461 32C0.291556 32 0.145682 32.0002 -0.000161323 32.0004L-0.000160449 42.0004C0.145683 42.0001 0.291557 42 0.437462 42C118.903 42 214.937 138.035 214.937 256.5C214.937 374.965 118.903 471 0.437499 471C0.291595 471 0.145721 471 -0.000122945 471L-0.00012207 481Z" fill="#F8F8F8"/>
<path fill-rule="evenodd" clip-rule="evenodd" d="M0 448C0.124405 448 0.24884 448 0.373291 448C106.136 448 191.873 362.263 191.873 256.5C191.873 150.737 106.136 65 0.373258 65C0.248807 65 0.124371 65.0001 -3.34829e-05 65.0004L-3.26087e-05 75.0004C0.124372 75.0001 0.248792 75 0.373258 75C100.613 75 181.873 156.26 181.873 256.5C181.873 356.74 100.613 438 0.37329 438C0.248824 438 0.124404 438 -8.74261e-07 438L0 448Z" fill="#F8F8F8"/>
<path fill-rule="evenodd" clip-rule="evenodd" d="M-0.000137329 416C0.101852 416 0.203873 416 0.305908 416C87.0146 416 157.306 345.709 157.306 259C157.306 172.291 87.0146 102 0.305881 102C0.203845 102 0.101825 102 -0.00016478 102L-0.000163906 112C0.101826 112 0.203846 112 0.305882 112C81.4917 112 147.306 177.814 147.306 259C147.306 340.186 81.4918 406 0.305907 406C0.203872 406 0.101852 406 -0.000138203 406L-0.000137329 416Z" fill="#F8F8F8"/>
<path fill-rule="evenodd" clip-rule="evenodd" d="M1.52588e-05 385C0.0812073 385 0.162422 385 0.243652 385C69.2792 385 125.244 329.036 125.244 260C125.244 190.964 69.2792 135 0.24363 135C0.1624 135 0.0811854 135 -6.59689e-06 135L-5.72265e-06 145C0.0811863 145 0.162401 145 0.243631 145C63.7564 145 115.244 196.487 115.244 260C115.244 323.513 63.7564 375 0.243651 375C0.162421 375 0.0812064 375 1.43845e-05 375L1.52588e-05 385Z" fill="#F8F8F8"/>
<path fill-rule="evenodd" clip-rule="evenodd" d="M-0.0001297 353C0.0602875 353 0.120712 353 0.181152 353C51.5436 353 93.1811 311.362 93.1811 260C93.1811 208.638 51.5436 167 0.181136 167C0.120696 167 0.0602712 167 -0.00014596 167L-0.000145086 177C0.0602645 177 0.120697 177 0.181137 177C46.0208 177 83.1811 214.16 83.1811 260C83.1811 305.84 46.0208 343 0.181151 343C0.120711 343 0.060279 343 -0.000130574 343L-0.0001297 353Z" fill="#F8F8F8"/>
</svg>
