<svg width="513" height="856" viewBox="0 0 513 856" fill="none" xmlns="http://www.w3.org/2000/svg">
<path fill-rule="evenodd" clip-rule="evenodd" d="M257 856C257.167 856 257.333 856 257.5 856C399.161 856 514 741.161 514 599.5C514 457.839 399.161 343 257.5 343C257.333 343 257.167 343 257 343.001L257 353.001C257.167 353 257.333 353 257.5 353C393.638 353 504 463.362 504 599.5C504 735.638 393.638 846 257.5 846C257.333 846 257.167 846 257 846L257 856Z" fill="#F8F8F8"/>
<path fill-rule="evenodd" clip-rule="evenodd" d="M257 824C257.146 824 257.292 824 257.438 824C381.425 824 481.937 723.488 481.937 599.5C481.937 475.512 381.425 375 257.437 375C257.292 375 257.146 375 257 375L257 385C257.146 385 257.292 385 257.437 385C375.903 385 471.937 481.035 471.937 599.5C471.937 717.965 375.903 814 257.437 814C257.292 814 257.146 814 257 814L257 824Z" fill="#F8F8F8"/>
<path fill-rule="evenodd" clip-rule="evenodd" d="M257.499 792C257.624 792 257.749 792 257.874 792C364.189 792 450.374 705.815 450.374 599.5C450.374 493.185 364.189 407 257.874 407C257.749 407 257.624 407 257.499 407L257.499 417C257.624 417 257.749 417 257.874 417C358.666 417 440.374 498.708 440.374 599.5C440.374 700.292 358.666 782 257.874 782C257.749 782 257.624 782 257.499 782L257.499 792Z" fill="#F8F8F8"/>
<path fill-rule="evenodd" clip-rule="evenodd" d="M257.249 760C257.353 760 257.457 760 257.562 760C346.203 760 418.062 688.142 418.062 599.5C418.062 510.858 346.203 439 257.561 439C257.457 439 257.353 439 257.249 439L257.249 449C257.353 449 257.457 449 257.561 449C340.68 449 408.062 516.381 408.062 599.5C408.062 682.619 340.68 750 257.562 750C257.457 750 257.353 750 257.249 750L257.249 760Z" fill="#F8F8F8"/>
<path fill-rule="evenodd" clip-rule="evenodd" d="M257.247 728C257.33 728 257.414 728 257.497 728C328.466 728 385.997 670.469 385.997 599.5C385.997 528.531 328.466 471 257.497 471C257.414 471 257.33 471 257.247 471L257.247 481C257.33 481 257.414 481 257.497 481C322.943 481 375.997 534.054 375.997 599.5C375.997 664.946 322.943 718 257.497 718C257.414 718 257.33 718 257.247 718L257.247 728Z" fill="#F8F8F8"/>
<path fill-rule="evenodd" clip-rule="evenodd" d="M257 696C257.063 696 257.126 696 257.188 696C310.484 696 353.688 652.795 353.688 599.5C353.688 546.205 310.484 503 257.188 503C257.126 503 257.063 503 257 503L257 513C257.063 513 257.126 513 257.188 513C304.961 513 343.688 551.727 343.688 599.5C343.688 647.273 304.961 686 257.188 686C257.126 686 257.063 686 257 686L257 696Z" fill="#F8F8F8"/>
<path fill-rule="evenodd" clip-rule="evenodd" d="M257 0.000476947C256.833 0.00015903 256.667 0 256.5 0C114.839 0 0 114.839 0 256.5C0 398.161 114.839 513 256.5 513C256.667 513 256.833 513 257 513V503C256.833 503 256.667 503 256.5 503C120.362 503 10 392.638 10 256.5C10 120.362 120.362 10 256.5 10C256.667 10 256.833 10.0002 257 10.0005V0.000476947Z" fill="#F8F8F8"/>
<path fill-rule="evenodd" clip-rule="evenodd" d="M257 32.0004C256.854 32.0001 256.708 32 256.562 32C132.575 32 32.0625 132.512 32.0625 256.5C32.0625 380.488 132.575 481 256.562 481C256.708 481 256.854 481 257 481V471C256.854 471 256.708 471 256.562 471C138.097 471 42.0625 374.965 42.0625 256.5C42.0625 138.035 138.097 42 256.562 42C256.708 42 256.854 42.0001 257 42.0004V32.0004Z" fill="#F8F8F8"/>
<path fill-rule="evenodd" clip-rule="evenodd" d="M256.501 64.0004C256.376 64.0001 256.251 64 256.126 64C149.811 64 63.6257 150.185 63.6257 256.5C63.6257 362.815 149.811 449 256.126 449C256.251 449 256.376 449 256.501 449V439C256.376 439 256.251 439 256.126 439C155.334 439 73.6257 357.292 73.6257 256.5C73.6257 155.708 155.334 74 256.126 74C256.251 74 256.376 74.0001 256.501 74.0004V64.0004Z" fill="#F8F8F8"/>
<path fill-rule="evenodd" clip-rule="evenodd" d="M256.751 96.0003C256.647 96.0001 256.543 96 256.438 96C167.797 96 95.9385 167.858 95.9385 256.5C95.9385 345.142 167.797 417 256.438 417C256.543 417 256.647 417 256.751 417V407C256.647 407 256.543 407 256.438 407C173.32 407 105.938 339.619 105.938 256.5C105.938 173.381 173.32 106 256.438 106C256.543 106 256.647 106 256.751 106V96.0003Z" fill="#F8F8F8"/>
<path fill-rule="evenodd" clip-rule="evenodd" d="M256.753 128C256.67 128 256.586 128 256.503 128C185.534 128 128.003 185.531 128.003 256.5C128.003 327.469 185.534 385 256.503 385C256.586 385 256.67 385 256.753 385V375C256.67 375 256.586 375 256.503 375C191.057 375 138.003 321.946 138.003 256.5C138.003 191.054 191.057 138 256.503 138C256.586 138 256.67 138 256.753 138V128Z" fill="#F8F8F8"/>
<path fill-rule="evenodd" clip-rule="evenodd" d="M257 160C256.937 160 256.874 160 256.812 160C203.516 160 160.312 203.205 160.312 256.5C160.312 309.795 203.516 353 256.812 353C256.874 353 256.937 353 257 353V343C256.937 343 256.874 343 256.812 343C209.039 343 170.312 304.273 170.312 256.5C170.312 208.727 209.039 170 256.812 170C256.874 170 256.937 170 257 170V160Z" fill="#F8F8F8"/>
</svg>
