<svg width="390" height="273" viewBox="0 0 390 273" fill="none" xmlns="http://www.w3.org/2000/svg">
<path d="M197.5 4.37114e-07L197.5 273H187.5L187.5 0L197.5 4.37114e-07Z" fill="#F8F8F8"/>
<path d="M165.5 4.37114e-07L165.5 273H155.5L155.5 0L165.5 4.37114e-07Z" fill="#F8F8F8"/>
<path d="M133.5 4.37114e-07L133.5 273H123.5L123.5 0L133.5 4.37114e-07Z" fill="#F8F8F8"/>
<path d="M101.5 4.37114e-07L101.5 273H91.5002L91.5002 0L101.5 4.37114e-07Z" fill="#F8F8F8"/>
<path d="M69.5001 4.37114e-07V273H59.5V0L69.5001 4.37114e-07Z" fill="#F8F8F8"/>
<path d="M37.5 4.37114e-07L37.5 273H27.5L27.5 0L37.5 4.37114e-07Z" fill="#F8F8F8"/>
<path d="M389.5 4.37114e-07V273H379.5V0L389.5 4.37114e-07Z" fill="#F8F8F8"/>
<path d="M357.5 4.37114e-07V273H347.5V0L357.5 4.37114e-07Z" fill="#F8F8F8"/>
<path d="M325.5 4.37114e-07V273H315.5V0L325.5 4.37114e-07Z" fill="#F8F8F8"/>
<path d="M293.5 4.37114e-07V273H283.5V0L293.5 4.37114e-07Z" fill="#F8F8F8"/>
<path d="M261.5 4.37114e-07V273H251.5V0L261.5 4.37114e-07Z" fill="#F8F8F8"/>
<path d="M229.5 4.37114e-07L229.5 273H219.5L219.5 0L229.5 4.37114e-07Z" fill="#F8F8F8"/>
<path d="M5.00001 4.37114e-07L5 273H-5L-4.99999 0L5.00001 4.37114e-07Z" fill="#F8F8F8"/>
</svg>
