<svg viewBox="0 -20 512 512" width="81px" xmlns="http://www.w3.org/2000/svg"><g fill-rule="evenodd"><path d="m509.070312 453.988281-60.574218-60.574219c15.589844-18.792968 24.074218-42.21875 24.074218-66.960937 0-54.625-41.855468-99.65625-95.183593-104.710937v-155.8125c0-5.523438-4.476563-10.003907-10.003907-10.003907h-96.828124v-14.542969c0-22.816406-18.578126-41.382812-41.410157-41.382812h-80.898437c-22.835938 0-41.414063 18.5625-41.414063 41.382812v14.542969h-96.828125c-5.523437 0-10.003906 4.480469-10.003906 10.003907v220.527343c0 5.527344 4.480469 10.003907 10.003906 10.003907 5.527344 0 10.007813-4.476563 10.007813-10.003907v-97.222656c11.242187 10.503906 26.324219 16.949219 42.886719 16.949219h64.542968v4.25c0 15.570312 12.675782 28.234375 28.261719 28.234375h65.988281c15.5625 0 28.230469-12.664063 28.230469-28.234375v-4.25h64.570313c16.5625 0 31.640624-6.445313 42.886718-16.949219v32.507813c-50.03125 4.742187-89.960937 44.671874-94.707031 94.703124h-212.671875c-5.523438 0-10.003906 4.480469-10.003906 10.007813 0 5.523437 4.480468 10.003906 10.003906 10.003906h212.671875c.882813 9.335938 2.992187 18.464844 6.324219 27.246094 1.960937 5.167969 7.734375 7.765625 12.902344 5.808594 5.167968-1.960938 7.769531-7.738281 5.808593-12.90625-3.652343-9.621094-5.503906-19.765625-5.503906-30.152344 0-46.96875 38.214844-85.175781 85.179687-85.175781 46.96875 0 85.179688 38.207031 85.179688 85.175781 0 22.761719-8.863281 44.144531-24.960938 60.214844-16.097656 16.097656-37.484374 24.960937-60.21875 24.960937-10.382812 0-20.539062-1.851562-30.1875-5.503906-5.171874-1.953125-10.945312.652344-12.898437 5.816406-1.957031 5.171875.644531 10.945313 5.816406 12.902344 11.921875 4.511719 24.460938 6.796875 37.269531 6.796875 24.722657 0 48.148438-8.488281 66.960938-24.078125l60.574219 60.578125c1.957031 1.953125 4.515625 2.929687 7.078125 2.929687 2.558594 0 5.121094-.976562 7.074218-2.929687 3.90625-3.910156 3.90625-10.246094 0-14.152344zm-382.226562-412.605469c0-11.78125 9.601562-21.371093 21.402344-21.371093h80.898437c11.800781 0 21.398438 9.589843 21.398438 21.371093v14.542969h-123.699219zm103.066406 169.050782c0 4.535156-3.6875 8.222656-8.222656 8.222656h-65.988281c-4.546875 0-8.246094-3.691406-8.246094-8.222656v-28.484375c0-4.472657 3.773437-8.25 8.246094-8.25h65.988281c4.53125 0 8.222656 3.699219 8.222656 8.25zm84.582032-24.261719h-64.570313v-4.222656c0-15.585938-12.667969-28.261719-28.230469-28.261719h-65.988281c-15.585937 0-28.261719 12.675781-28.261719 28.261719v4.222656h-64.542968c-23.648438 0-42.886719-19.238281-42.886719-42.886719v-67.347656h337.363281v67.347656c.003906 23.648438-19.238281 42.886719-42.882812 42.886719zm0 0"/><path d="m10.003906 316.445312c-5.496094 0-10.003906 4.507813-10.003906 10.007813 0 5.496094 4.507812 10.003906 10.003906 10.003906 5.5 0 10.007813-4.507812 10.007813-10.003906 0-5.5-4.507813-10.007813-10.007813-10.007813zm0 0"/><path d="m300.0625 383.765625c-5.5 0-10.007812 4.480469-10.007812 9.976563 0 5.53125 4.507812 10.007812 10.007812 10.007812 5.527344 0 10.007812-4.476562 10.007812-10.007812 0-5.496094-4.480468-9.976563-10.007812-9.976563zm0 0"/></g></svg>