<svg viewBox="-85 0 497 497.83371" width="55px" xmlns="http://www.w3.org/2000/svg"><path d="m163.910156 296.417969c35.296875.0625 69.164063-13.941407 94.109375-38.914063 51.898438-51.898437 51.882813-136.367187-.042969-188.289062-51.921874-51.925782-136.390624-51.941406-188.289062-.042969-51.902344 51.902344-51.882812 136.371094.039062 188.292969 24.964844 24.996094 58.859376 39.015625 94.183594 38.953125zm-85.738281-218.757813c47.351563-47.222656 123.992187-47.207031 171.320313.039063 47.246093 47.246093 47.261718 124.101562.042968 171.320312-47.222656 47.222657-124.078125 47.199219-171.324218-.039062-47.246094-47.242188-47.257813-124.101563-.039063-171.320313zm0 0"/><path d="m141.121094 325.148438v19.683593h-5.269532v-.046875c-1.496093.105469-2.914062.71875-4.015624 1.734375-1.09375 1.132813-1.6875 2.65625-1.644532 4.230469l.078125 113.644531c-.003906 8.878907 3.523438 17.394531 9.808594 23.671875 6.28125 6.273438 14.804687 9.785156 23.683594 9.765625h.285156c.515625 0 1.035156-.050781 1.550781-.074219 17.738282-1 31.625-15.65625 31.660156-33.425781l-.019531-113.527343c-.003906-1.585938-.636719-3.109376-1.761719-4.230469-1.125-1.117188-2.652343-1.742188-4.238281-1.738281h-4.570312v-19.683594c35.136719-4.863282 67.71875-21.089844 92.773437-46.199219 63.707032-63.707031 63.6875-167.398437-.050781-231.132813-63.734375-63.734374-167.417969-63.769531-231.125-.0625-43.8125 43.828126-59.066406 108.660157-39.394531 167.425782 19.667968 58.761718 70.882812 101.347656 132.25 109.964844zm23.898437 160.585937c-.382812.015625-.769531.027344-1.1875.019531-11.855469-.003906-21.472656-9.597656-21.5-21.453125l-.027343-107.5625 42.9375.011719.019531 107.613281c-.015625 11.363281-8.894531 20.742188-20.242188 21.371094zm9.648438-140.988281h-21.542969v-18.414063c3.601562.238281 7.199219.363281 10.800781.363281 3.582031 0 7.164063-.125 10.738281-.359374zm-117.914063-288.507813c59.1875-59.027343 154.988282-59.003906 214.152344.050781 59.054688 59.054688 59.078125 155.125.050781 214.152344-59.230469 58.667969-154.738281 58.441406-213.691406-.511718-58.949219-58.949219-59.179687-154.457032-.507813-213.6875zm0 0"/><path d="m101.566406 251.832031h124.570313c1.523437.070313 3.007812-.496093 4.09375-1.570312 1.085937-1.070313 1.671875-2.546875 1.621093-4.070313v-22.480468c.039063-7.695313-3.007812-15.085938-8.464843-20.515626-5.457031-5.425781-12.859375-8.441406-20.554688-8.363281h-7.980469v-14.769531c9.46875-8.8125 14.894532-21.136719 15-34.070312v-39.710938c7-5.582031 11.902344-15.601562 11.902344-27.480469-.03125-1.761719-.820312-3.421875-2.167968-4.558593-1.34375-1.136719-3.117188-1.632813-4.859376-1.367188l-28.632812 4.5c-4.558594.722656-9.21875.46875-13.675781-.738281l-13.105469-3.542969c-5.304688-1.453125-10.980469-.332031-15.335938 3.027344-1.296874.960937-2.460937 2.085937-3.460937 3.347656-13.984375 8.199219-22.601563 23.175781-22.664063 39.386719v27.136719c.117188 12.902343 5.542969 25.1875 15 33.964843v14.875h-7.976562c-7.695312-.078125-15.101562 2.9375-20.558594 8.363281-5.453125 5.429688-8.503906 12.820313-8.464844 20.515626v22.480468c-.050781 1.523438.539063 3 1.625 4.070313 1.082032 1.074219 2.566407 1.640625 4.089844 1.570312zm47.285156-161.699219c.085938-3.140624 2.648438-5.644531 5.789063-5.65625.511719 0 1.019531.066407 1.515625.199219l13.117188 3.542969c6.082031 1.648438 12.441406 1.992188 18.664062 1.007812l20.839844-3.277343c-1.371094 5.605469-4.53125 10.628906-9.539063 12.402343-4.246093.640626-34.386719 5.160157-50.386719 5.472657zm-12 8.238282v7.09375c.039063 2.972656 1.34375 5.789062 3.589844 7.738281-3.183594 1.832031-6.738281 2.914063-10.398437 3.167969.441406-6.539063 2.808593-12.804688 6.808593-17.996094zm-7 47.617187v-17.601562c10-.347657 19.035157-4.734375 27.21875-12.941407 14.09375-.980468 32.78125-3.527343 40.78125-4.699218v35.25c0 18.714844-15.699218 34.53125-34 34.53125-18.300781 0-34-15.820313-34-34.535156zm34.054688 46.53125c6.550781-.015625 13.019531-1.476562 18.945312-4.269531v9.25c-11.269531 8.40625-26.722656 8.410156-38 .011719v-9.3125c5.953126 2.832031 12.460938 4.308593 19.054688 4.324219zm-56.054688 31.191407c-.042968-4.515626 1.742188-8.855469 4.949219-12.03125 3.203125-3.179688 7.558594-4.925782 12.074219-4.847657h11.609375c16.226563 12 38.386719 12 54.617187 0h11.730469c4.511719-.078125 8.867188 1.667969 12.074219 4.847657 3.203125 3.175781 4.988281 7.515624 4.945312 12.03125v16.121093h-112zm0 0"/></svg>